$MeshFormat
2.2 0 8
$EndMeshFormat
$PhysicalNames
5
1 1 "topo"
1 2 "base"
1 3 "lados"
1 4 "furos"
2 10 "aleta"
$EndPhysicalNames
$Nodes
867
1 -2 0 0
2 2 0 0
3 -3 3.5 0
4 3 3.5 0
5 -1.05 1.75 0
6 1.95 1.75 0
7 -1.749706845000356 0 0
8 -1.503704202211869 0 0
9 -1.257770083177717 0 0
10 -1.007608133567732 0 0
11 -0.7557061001757979 0 0
12 -0.5038040667838637 0 0
13 -0.2519020333919297 0 0
14 4.440892098500626e-15 0 0
15 0.2519020333919362 0 0
16 0.5038040667838684 0 0
17 0.7557061001758005 0 0
18 1.007608133567733 0 0
19 1.257768228201749 0 0
20 1.503701364763928 0 0
21 1.749705977283624 0 0
22 -2.931750836692529 3.26112792842385 0
23 -2.863501673385057 3.0222558568477 0
24 -2.797020187459786 2.789570656109251 0
25 -2.737017369565096 2.579560793477836 0
26 -2.68278308792094 2.389740807723289 0
27 -2.633344069156226 2.21670424204679 0
28 -2.587799489842957 2.057298214450351 0
29 -2.545315487432856 1.908604206014997 0
30 -2.50510550051397 1.767869251798896 0
31 -2.466417286704456 1.632460503465598 0
32 -2.428521441838678 1.499825046435371 0
33 -2.390702154137103 1.367457539479861 0
34 -2.352242591846178 1.232849071461622 0
35 -2.312416598020569 1.093458093071993 0
36 -2.270478212070749 0.946673742247623 0
37 -2.22564906962877 0.7897717437006961 0
38 -2.17710552785475 0.6198693474916257 0
39 -2.123966397623927 0.4338823916837442 0
40 -2.065269079417545 0.2284417779614065 0
41 2.065267879763383 0.2284375791718412 0
42 2.123962544589177 0.4338689060621173 0
43 2.177103073737841 0.6198607580824448 0
44 2.225644794922758 0.7897567822296517 0
45 2.270472974628915 0.9466554112012039 0
46 2.31241094332913 1.093438301651954 0
47 2.352236815790577 1.232828855267019 0
48 2.390696988469309 1.36743945964258 0
49 2.428515816705888 1.499805358470608 0
50 2.466409714659493 1.632434001308227 0
51 2.505109311852525 1.767882591483837 0
52 2.545320423902348 1.908621483658218 0
53 2.587803931692207 2.057313760922723 0
54 2.633348126210564 2.216718441736975 0
55 2.682788445494968 2.389759559232388 0
56 2.737020313670439 2.579571097846536 0
57 2.797024419227158 2.789585467295054 0
58 2.863503958799601 3.022263855798603 0
59 2.931751979399801 3.261131927899302 0
60 2.748731976851567 3.5 0
61 2.497463953703134 3.5 0
62 2.2461959305547 3.5 0
63 1.994927907406267 3.5 0
64 1.74534438783596 3.5 0
65 1.499998561078165 3.5 0
66 1.254654128696483 3.5 0
67 1.00507209259373 3.5 0
68 0.7538040694452963 3.5 0
69 0.5025360462968633 3.5 0
70 0.2512680231484299 3.5 0
71 -3.552713678800501e-15 3.5 0
72 -0.2512680231484374 3.5 0
73 -0.5025360462968704 3.5 0
74 -0.7538040694453039 3.5 0
75 -1.005072092593737 3.5 0
76 -1.254655612164042 3.5 0
77 -1.500001438921838 3.5 0
78 -1.745345871303517 3.5 0
79 -1.994927907406266 3.5 0
80 -2.2461959305547 3.5 0
81 -2.497463953703133 3.5 0
82 -2.748731976851566 3.5 0
83 -1.061282439518179 1.850134420280342 0
84 -1.094564009443912 1.945247682602901 0
85 -1.148175832889387 2.03057041083643 0
86 -1.21942958916357 2.101824167110613 0
87 -1.304752317397099 2.155435990556088 0
88 -1.399865579719659 2.188717560481821 0
89 -1.5 2.2 0
90 -1.600134420280342 2.188717560481821 0
91 -1.695247682602902 2.155435990556088 0
92 -1.780570410836431 2.101824167110613 0
93 -1.851824167110614 2.030570410836429 0
94 -1.90543599055609 1.945247682602899 0
95 -1.938717560481821 1.850134420280339 0
96 -1.95 1.749999999999997 0
97 -1.93871756048182 1.649865579719655 0
98 -1.905435990556087 1.554752317397095 0
99 -1.851824167110611 1.469429589163567 0
100 -1.780570410836427 1.398175832889384 0
101 -1.695247682602898 1.34456400944391 0
102 -1.600134420280338 1.311282439518179 0
103 -1.499999999999997 1.3 0
104 -1.399865579719656 1.31128243951818 0
105 -1.304752317397097 1.344564009443912 0
106 -1.219429589163569 1.398175832889387 0
107 -1.148175832889386 1.469429589163571 0
108 -1.094564009443911 1.554752317397099 0
109 -1.061282439518179 1.649865579719659 0
110 1.938717560481821 1.850134420280342 0
111 1.905435990556088 1.945247682602901 0
112 1.851824167110613 2.03057041083643 0
113 1.78057041083643 2.101824167110613 0
114 1.695247682602901 2.155435990556088 0
115 1.600134420280341 2.188717560481821 0
116 1.5 2.2 0
117 1.399865579719658 2.188717560481821 0
118 1.304752317397098 2.155435990556088 0
119 1.219429589163569 2.101824167110613 0
120 1.148175832889386 2.030570410836429 0
121 1.09456400944391 1.945247682602899 0
122 1.061282439518179 1.850134420280339 0
123 1.05 1.749999999999997 0
124 1.06128243951818 1.649865579719655 0
125 1.094564009443913 1.554752317397095 0
126 1.148175832889389 1.469429589163567 0
127 1.219429589163573 1.398175832889384 0
128 1.304752317397102 1.34456400944391 0
129 1.399865579719662 1.311282439518179 0
130 1.500000000000003 1.3 0
131 1.600134420280344 1.31128243951818 0
132 1.695247682602903 1.344564009443912 0
133 1.780570410836431 1.398175832889387 0
134 1.851824167110614 1.469429589163571 0
135 1.905435990556089 1.554752317397099 0
136 1.938717560481821 1.649865579719659 0
137 0.1381239742835943 3.290822697552094 0
138 -0.1259510166959626 0.2181535601823699 0
139 1.78190908350828 2.205275375625513 0
140 -1.794070006598421 2.202341525869015 0
141 1.557709157463067 1.219561258853981 0
142 -1.559838089379572 1.218922268003086 0
143 -1.565533440625591 2.276696378134926 0
144 1.442437283633768 2.267799963626597 0
145 -0.6303889930126287 3.2788648859161 0
146 -1.31890864957881 2.248908437875435 0
147 0.6297550834798344 0.2181535601823692 0
148 1.334262878692513 1.238480410242615 0
149 -0.8895860459187463 0.2131159044235531 0
150 -1.309208081330829 1.24676657544711 0
151 0.875310638471116 3.291502463431417 0
152 2.539393425707534 2.522736359621208 0
153 -2.559462243986481 2.52971427658809 0
154 1.999191329839096 0.5702928889860104 0
155 -2.00460252237822 0.5852693746672712 0
156 1.943507920829928 2.029113173613137 0
157 -1.946550380035843 2.034915607618522 0
158 1.860788281280252 3.290804642631751 0
159 -1.849240251994395 3.286633410513815 0
160 -1.141434815219426 3.289710266620752 0
161 1.123131773301955 0.2319394913944433 0
162 1.392930368052146 3.290071752571869 0
163 1.791622920496011 1.306257890296828 0
164 -1.780133815680186 1.289283306609671 0
165 -1.386461366146463 0.2102932159606214 0
166 2.477166132688929 2.175133214547694 0
167 -2.483971687869293 2.175371603670352 0
168 2.117813960974615 0.9279355676352992 0
169 -2.116653711264644 0.9052458303846 0
170 -2.03478283451143 1.805506784319785 0
171 2.036133873958778 1.803010581627827 0
172 1.951009784698762 1.464733190604822 0
173 -1.960716634022541 1.469866162680164 0
174 2.227788092778101 1.219898248202443 0
175 -2.20918837052771 1.19757502602319 0
176 -2.418525693340623 1.874306141698983 0
177 2.408602697372459 1.867503298284523 0
178 -2.375563262108029 3.245468728751943 0
179 2.373888968523223 3.292085864045383 0
180 2.31799646979342 1.608639359886154 0
181 -2.332719714826657 1.598928389077601 0
182 1.628728894677379 0.1750711118934947 0
183 -2.616092002461235 2.922043899424467 0
184 2.617620465053412 2.972014410143255 0
185 -1.877904852022026 1.372095147977967 0
186 -1.886197266650176 1.265723945106923 0
187 -1.81110610699819 1.190936087857171 0
188 -1.911678833542769 1.166886378642925 0
189 -1.830799878889184 1.093936078595586 0
190 -1.984276054893071 1.363802733349816 0
191 -2.059061554393721 1.438892824353724 0
192 -1.735258137870681 1.120878828258108 0
193 -1.752544313460611 1.021090256403316 0
194 -1.654106164709698 1.049242690448742 0
195 -1.671399972557966 0.946038036367375 0
196 -1.566465003318105 0.9762374842075847 0
197 -1.585507176282243 0.8693832984910959 0
198 -1.465739510820834 0.8999276772170826 0
199 -1.499053800551672 0.7757475388724606 0
200 -1.363463138080605 0.8148473077520699 0
201 -1.764911328117677 0.9270436412577741 0
202 -1.394613076447403 0.6802253142060277 0
203 -1.257746048754434 0.7272857493593521 0
204 -1.234037271929948 0.8584968344647042 0
205 -1.122140077164049 0.7753417520287145 0
206 -1.10997715257271 0.9298743011233943 0
207 -0.9873395828460849 0.8284542000085953 0
208 -0.9621510251078986 0.9722566606389387 0
209 -0.8485612187266766 0.8765420495500171 0
210 -0.8213180816217635 1.02402802297254 0
211 -0.704919166672097 0.9255015371129129 0
212 -0.6822836539855033 1.072748533362029 0
213 -0.556653815859691 0.9773635481646756 0
214 -0.5407738639859792 1.151362607154902 0
215 -0.3959454807810325 1.032230750645621 0
216 -0.3651594876666506 1.204691662014274 0
217 -0.2211056457811535 1.087994969767428 0
218 1.044818070499043 1.48065206063934 0
219 -0.1864469309504627 1.287098270201774 0
220 0.9856642761913395 1.92308006701614 0
221 -1.001091562124565 1.931091350421191 0
222 0.9772347242165493 1.687229779542751 0
223 -0.02695189680981656 1.151810947222788 0
224 -0.9733036218650739 1.68446655937441 0
225 0.008992779244556279 1.360802336629696 0
226 -0.1547629415754677 1.493195807741892 0
227 0.03902074445811074 1.569800862650263 0
228 -0.1277153704743437 1.690728905680451 0
229 0.06364708999134405 1.772356142583508 0
230 -0.1023292145724032 1.89061297423706 0
231 0.08309893365913233 1.968208754062588 0
232 -0.08034923188879388 2.090990843251842 0
233 0.1142894749412832 2.178618501722429 0
234 1.133106680391898 2.124378192467837 0
235 0.1991183526781911 1.236647721529616 0
236 -0.05690993895624802 2.297516284443437 0
237 -1.124973061456305 2.141619127891758 0
238 -0.2673014867425714 2.203036929987578 0
239 0.2264017882693953 1.662760326335164 0
240 0.1364657124827144 2.381787482022271 0
241 0.3025664821356367 2.265015712758172 0
242 0.3184464493711314 2.467257934731309 0
243 -0.4995267811960628 1.340969441981665 0
244 -0.2796637868382661 1.80461369864807 0
245 -1.035621176877583 1.471201035910386 0
246 0.4780448113934785 2.339281358165054 0
247 0.461903127157147 2.163687407139796 0
248 -0.2255143760925414 2.4183106317626 0
249 -0.4105880529609525 2.346225329091831 0
250 0.5000365244434982 2.523298682214768 0
251 0.1359000926709242 1.014660492265335 0
252 0.33569391922526 1.067211412666113 0
253 0.6361605755669195 2.415256583738381 0
254 0.6585444902393068 2.584258667848362 0
255 0.7868167280074815 2.485666061814436 0
256 -0.5899320214597797 0.8083545870337878 0
257 0.8098157208097848 2.644745623528094 0
258 0.9451611063968061 2.532846073229089 0
259 0.9523114269701856 2.69905699200559 0
260 1.075604741911327 2.611200374564848 0
261 -0.3824699300624298 2.533229223867716 0
262 -0.5518314054328551 2.45338754411106 0
263 -0.5768678202112969 2.286826903440548 0
264 -0.7075596772201627 2.384322744287187 0
265 -0.6864737186531882 2.546107347761976 0
266 -0.8297613228513443 2.478237920041997 0
267 -0.8194228710555583 2.631026056465369 0
268 -0.9620260294983135 2.558478311230914 0
269 0.5382934515426848 2.722510197304667 0
270 0.7663204757264644 2.329845364145816 0
271 1.081874573742656 2.753784562760555 0
272 1.207400723180647 2.665821626217956 0
273 -0.2011059415653604 2.618987412381739 0
274 0.2852404771475757 0.8682394278036438 0
275 0.473882149260391 0.9367119957121055 0
276 0.5193766195459544 1.113741769214806 0
277 0.6448299629567613 0.9991504961051103 0
278 0.6797964546190787 1.15935116592645 0
279 0.813214309126992 1.070605259620303 0
280 0.7731144086806755 0.8972165061595136 0
281 0.9186887062798534 0.9497761514425058 0
282 0.8921654736007726 0.7982799754845589 0
283 1.03813458655749 0.8484219834763849 0
284 -0.9463269307937638 2.718756026050225 0
285 -1.079976079180071 2.649824845602876 0
286 0.5669889555118204 1.268036999333857 0
287 -1.54047779334127 0.6353359717980249 0
288 0.9729320569337212 1.082901989824283 0
289 -0.7219806132742799 2.23371672569127 0
290 -0.6868364937601967 2.719119319433423 0
291 -0.2444128829378453 0.8983646350331558 0
292 -0.6077907564676986 2.141556139433152 0
293 -0.810352493437706 1.155418541067698 0
294 1.193371686512195 2.533348268950115 0
295 1.308884859108149 2.585490687366134 0
296 1.338336954188371 2.716670897632487 0
297 1.435533589246836 2.623903961910659 0
298 1.465877736609562 2.764953870340249 0
299 1.571791000327852 2.680334575704229 0
300 1.599647468345693 2.819009782632813 0
301 1.708322898402221 2.723797974890593 0
302 1.686781053086621 2.571505488106883 0
303 1.817422884619958 2.624335648423012 0
304 1.84133738814046 2.7735262054488 0
305 1.951716849290106 2.668376716999635 0
306 1.920198442728034 2.530435239357754 0
307 2.050367083438712 2.567851404981448 0
308 2.016286452151862 2.435473522246205 0
309 2.0809024770582 2.717137807145892 0
310 0.7148318597458226 1.308247923322095 0
311 0.6162954484010591 1.40761729733297 0
312 0.7426655541803995 0.7388069819985925 0
313 -1.056804825400828 1.060651936421074 0
314 -1.093023509309377 2.507369261825123 0
315 -1.202931617430569 2.594414875752514 0
316 -1.198319912124761 2.730687391310371 0
317 -1.314890024017765 2.663887512345262 0
318 -1.320303725546289 2.805738265486717 0
319 -1.444691434637133 2.716094100288502 0
320 -1.451481003529052 2.891872876773511 0
321 -1.579584002720087 2.811732307014822 0
322 -1.584966023975211 2.663361033910227 0
323 -1.706635961266868 2.738225774574992 0
324 -1.708078189048928 2.596011865850961 0
325 -1.826895791753605 2.667625545256902 0
326 -1.831101718875647 2.532543960720345 0
327 -1.944367077071557 2.600110262761789 0
328 -1.93976852794739 2.755336262994825 0
329 -1.944683709987301 2.469353516885103 0
330 -2.060377289917512 2.53532951458501 0
331 -2.049436298676663 2.386303401145907 0
332 0.7416848232949175 1.443472671039833 0
333 0.656672319382636 1.536824483957733 0
334 -0.8732654822148489 0.7258109124577057 0
335 2.146846519529161 2.472088457755292 0
336 2.112522942362065 2.344144310079441 0
337 1.0107213331892 0.6978653345051118 0
338 1.154628381722606 0.753303653027056 0
339 1.186435022623579 0.8900466203139386 0
340 1.29885762712721 0.8070871213321833 0
341 1.274450662325604 0.659558456837043 0
342 1.411822150191798 0.7217217923333563 0
343 1.431746808794607 0.8626966466236619 0
344 1.542353045561627 0.7831876379669476 0
345 1.550895881967861 0.9356014242043686 0
346 1.661275205424576 0.8440768146177611 0
347 1.674866965956177 0.9715734498999992 0
348 1.650744253886799 0.7117946872586065 0
349 0.8300162069651038 2.803829828433498 0
350 -1.156973254007331 0.6239718246402557 0
351 -0.7361723901782328 2.09295274006175 0
352 -0.6403251761369377 2.007907808559356 0
353 -0.8259924053105117 2.175622556499132 0
354 1.354337941660179 2.852873918006464 0
355 1.435818072937306 0.9838608428644524 0
356 -1.298968182903385 2.528793786626799 0
357 1.776072409801194 0.8970820919359834 0
358 1.784817401458942 1.019593180658188 0
359 -2.175609863054485 2.466728940519968 0
360 -2.178173344139347 2.608345798942755 0
361 -2.171972366753329 2.332862669969915 0
362 0.4744303251613733 1.381529459589235 0
363 -1.19977076293642 2.884047388456854 0
364 -1.456918325295903 1.021046023971735 0
365 -1.697388261433651 2.862859944778147 0
366 1.399700744782254 0.5651376678464723 0
367 0.8245465573828561 1.363230397311728 0
368 -2.069246490224314 2.261166564076085 0
369 -2.171480078935021 2.207729040064686 0
370 2.241299979763624 2.376525708707244 0
371 2.191001673969903 2.25106875806093 0
372 -0.7633883040901064 1.962854940138894 0
373 -0.6680247970872475 1.884116437042926 0
374 -0.5139613785333175 2.03626050143346 0
375 0.1641937472355826 2.601296133323053 0
376 -0.7784449721643655 1.850156975957333 0
377 -0.6880608858233309 1.768671286773686 0
378 -1.599925896248169 2.537571934662044 0
379 0.4338435101806244 0.7363088769525734 0
380 0.2325511252802058 0.6611468464453587 0
381 1.988601845466045 2.313434214112357 0
382 1.285726843585937 2.462339966107755 0
383 1.185629327625007 2.414548694950013 0
384 0.790798615977675 1.56676090661362 0
385 0.6955072873271353 1.658074519550748 0
386 0.5618228079736154 1.620961038211334 0
387 0.6089071272271636 1.749363393708516 0
388 0.7305160376284034 1.776292423600134 0
389 0.6513485414185688 1.865757360858825 0
390 0.5120184556060666 1.844091799957636 0
391 0.7674906090198272 1.887589678011196 0
392 0.690683910730016 1.978113593007989 0
393 0.8052047299589755 1.99929921208364 0
394 0.7220725552660823 2.098306193374 0
395 0.84050732903687 2.102768197274902 0
396 -0.3709052503817711 2.737410026117135 0
397 -0.1712528041777997 2.835158876176232 0
398 -0.5644932691985193 1.811181907082893 0
399 -0.590004261060974 1.684017999292376 0
400 -0.7093770419225544 1.654413756839787 0
401 -0.6318604220352573 1.558067769161923 0
402 -0.7540019323621902 1.534706758725743 0
403 -0.4892391210508692 1.595130887439535 0
404 -1.828058713229668 2.39496639444995 0
405 -1.931870881008214 1.063164848898221 0
406 -2.28995621232963 2.392051033217036 0
407 2.290877457995948 2.510383355691966 0
408 1.281587019837594 2.343393819064321 0
409 1.18179898177954 2.296612820159066 0
410 1.09319689379078 2.360324121929963 0
411 -0.3522539302819273 2.962910942721479 0
412 1.693500118041936 1.088507209381867 0
413 -1.414723542786494 0.5268173087145513 0
414 -1.580766848306549 0.4804637457366514 0
415 -1.700904429711084 0.6036152908437504 0
416 -1.750527333066646 0.4364433456064418 0
417 -2.014602951593321 1.136069447469784 0
418 -2.08460407901858 1.343814927470763 0
419 -2.149762289014859 1.420113865675466 0
420 -2.12170672079186 1.520780782400772 0
421 1.80187020930463 1.129455042944362 0
422 1.888728599503261 1.06923671261932 0
423 1.898548603547944 1.175810989974642 0
424 1.988970670280994 1.121840047766687 0
425 1.984863238027799 1.236338525546445 0
426 0.8414114290229227 1.800246041361457 0
427 0.3940173927335355 0.5188329529753295 0
428 1.256158032391817 0.5039719213953853 0
429 1.384487921680642 0.3935748242906845 0
430 1.549498613119783 0.4684611464326915 0
431 0.1687460165818666 0.4481951184299515 0
432 0.00390653814834216 0.6095939521570191 0
433 -2.069075894328539 2.154336048609074 0
434 -2.166162210708849 2.093461814854857 0
435 -2.000588214440574 2.20351475045414 0
436 -2.251532731902727 2.143042134404179 0
437 -2.258623582577031 2.037069054681833 0
438 -2.156681057333051 1.981057285905872 0
439 2.00547497794683 1.933137088769707 0
440 2.105279958488248 1.887763741944579 0
441 2.130689648966271 1.789049416528804 0
442 2.088405706011251 1.992332977079152 0
443 2.189180639383138 1.957560820721808 0
444 2.062321918300175 2.095502469255943 0
445 1.567944567976582 2.282591018469074 0
446 1.477904391084449 2.363481404278142 0
447 1.603053469784859 2.374786483624369 0
448 1.539804048543815 2.46116879163757 0
449 -2.041306623385465 1.712252367317976 0
450 -2.124630138491828 1.769677858409803 0
451 -2.13606301388794 1.668368857880182 0
452 -2.217336975079236 1.737887892151835 0
453 -2.207692626353277 1.832626002632505 0
454 1.092676390797723 1.387241048945705 0
455 1.178293837316882 1.310312206177622 0
456 1.07179283394064 1.28428241734843 0
457 1.152515033261966 1.198557044112379 0
458 -1.683037461946765 2.266141055388277 0
459 -1.623081109534967 2.348510580843498 0
460 -1.535281178586845 2.378595028989511 0
461 2.002956931477664 1.548608075301271 0
462 2.050773658204966 1.458432366684499 0
463 2.108457951185159 1.545863227747699 0
464 2.160029604876799 1.460218384019994 0
465 2.097289040092 1.369553668201224 0
466 2.198074702185696 1.349509058199601 0
467 -1.047478270996218 2.034338247766654 0
468 -0.9524964372470712 2.030483840322989 0
469 -1.015850104232481 2.130589356065224 0
470 -1.060100513380162 2.216502309746538 0
471 0.9873084433954439 1.572041517798982 0
472 0.9419287804170738 1.481247065161894 0
473 -0.9689222680030865 1.809838089379576 0
474 -1.123279190867927 1.359172198347821 0
475 -1.015723945106926 1.363802733349821 0
476 -1.07577504473899 1.279881552065657 0
477 -0.9444401328979213 1.438919611438386 0
478 -0.9296076211078312 1.336798691926303 0
479 1.439816100299542 1.203969740285594 0
480 1.359031122195601 1.140259056623573 0
481 1.055303933703188 2.062510024583551 0
482 1.055085286763108 2.163937960336471 0
483 1.643679334261072 1.227395437190183 0
484 -1.464075099214729 1.210996461443604 0
485 1.898406345559707 2.114637449229887 0
486 1.877785190498313 1.376309332359521 0
487 -1.995147702804674 1.949632430037 0
488 2.164778784801336 2.057003011023599 0
489 2.288029067783106 2.037743822703036 0
490 1.675965544400439 2.239805803365294 0
491 1.711304770243801 2.364087901934505 0
492 -1.225312946303896 2.203603761492853 0
493 -1.232470252871987 2.307991099276006 0
494 -1.334455908826473 2.346834712265609 0
495 -1.258355955556036 2.413487023918083 0
496 -1.144999347121185 2.387811417656185 0
497 2.031077731996914 1.690161910620425 0
498 -0.9978093324185611 1.582712006254302 0
499 -0.9013813785917951 1.61792125848844 0
500 -0.8802066502553579 1.716643027326246 0
501 -1.223413873164501 1.295807295100835 0
502 -1.230536979307423 1.1911899123767 0
503 -1.320586634612575 1.143338020330707 0
504 -1.234085480937535 1.089668484091119 0
505 -1.440249784721886 2.290199887170373 0
506 2.143214334100446 1.676095413851261 0
507 -0.6427438999833299 1.412645629033803 0
508 0.9923336005599181 1.347212533445209 0
509 0.9881360693541658 1.26658936804015 0
510 -0.9771137374308212 2.223057662989087 0
511 -0.1499622562436597 3.055349937999353 0
512 0.04718511064593941 2.926843952104962 0
513 1.521191717174995 1.122952214662118 0
514 -1.715906799130993 2.479792714999049 0
515 -1.48652394515119 2.581535972207707 0
516 1.442298848014324 2.453621123315767 0
517 0.6346848109752616 2.230973951373866 0
518 -1.934372926986387 2.360425743519722 0
519 -1.611539933120955 0.3072613792159515 0
520 -0.882001451202765 1.918810535236475 0
521 2.275592438572075 1.456931268013954 0
522 0.299493870821558 2.048195325826672 0
523 0.2422542577514181 1.845404777981787 0
524 -0.7754722318679057 1.405630278876672 0
525 -0.6982550789872279 1.314405636588851 0
526 2.385881454260875 2.407398686361406 0
527 2.668487177505478 3.248967949318673 0
528 -2.663286831578319 3.273850211475938 0
529 1.262273226250107 1.162619054719042 0
530 1.290978241912223 1.058336208872499 0
531 1.181367511101106 1.084901091616516 0
532 1.087429147493875 0.9935267552764729 0
533 0.8995079339007793 2.387530630990106 0
534 0.88289240252618 2.272337507028047 0
535 -0.3224786043742555 1.607841863396387 0
536 -1.983382788894814 1.563810764909358 0
537 -1.667719208803964 1.253711665028022 0
538 -2.223224228411227 1.518272623227203 0
539 2.06139936218654 2.210998937904315 0
540 -1.768139072444157 0.2341274503562183 0
541 -0.3271601119759182 1.406154130534882 0
542 -0.8394805159505039 2.320879833755517 0
543 -0.9527085178733954 2.412110714456407 0
544 0.807647380776878 1.690260439293063 0
545 0.8916226474643121 1.630448271221735 0
546 -0.9377549394449406 1.102239035916572 0
547 -0.3589888555494712 3.229364507046178 0
548 1.900587630263737 2.400394981047783 0
549 1.810410718356838 2.486855106575119 0
550 0.8111450094159389 1.235074572554602 0
551 0.9550638820225671 1.806111103346926 0
552 1.99087879756451 0.998765649137159 0
553 2.076819948748713 1.061801629133089 0
554 1.975062029736788 0.8601770882846167 0
555 0.9069601675491481 2.008207084901648 0
556 -1.332959532787449 1.046780032913856 0
557 1.592883840405307 1.051073443911207 0
558 1.8717669085198 2.283790778374293 0
559 -1.427565427627257 2.399029884045518 0
560 -1.87531340047726 2.11473623198916 0
561 -1.518040451868946 1.131342027509236 0
562 0.8769658489607965 1.904088864453501 0
563 1.984276054893075 1.363802733349821 0
564 -1.038407385004621 2.317823040848794 0
565 0.3758505336564555 1.752372925460027 0
566 0.4036114348841984 1.559078601061219 0
567 0.2012227470882837 1.458832358598314 0
568 0.5925329925124514 2.071196993075947 0
569 0.468790209901542 2.000084201655301 0
570 1.625477517874821 3.295708471880001 0
571 1.740626605828355 3.085260887595303 0
572 1.96190231876804 3.091505952377236 0
573 1.506645157307246 3.098230655856198 0
574 1.291926030786212 3.108556131781288 0
575 1.121045080971983 3.270491455170666 0
576 1.089359164810047 3.056259342162416 0
577 2.104379770013471 3.283823700074034 0
578 2.25052030069592 3.089987557418177 0
579 2.087541175770938 2.912788307849722 0
580 2.310929450460815 2.874262066569845 0
581 1.074028770541035 2.259898392149982 0
582 -2.281170139507593 1.328822841528496 0
583 1.330405621970089 0.9476299404325921 0
584 -1.997698649212594 1.252301350787398 0
585 0.3764970815420662 0.2561602877563671 0
586 -1.129069317112992 0.207971724834062 0
587 -0.9942769530785081 0.3948411329101771 0
588 -0.7806977615042114 0.4090395240822668 0
589 -1.232739068848614 0.4342873099716631 0
590 -0.6506108815622371 0.2202058920159331 0
591 -0.5509017073288005 0.4283277854225649 0
592 -0.6968201920896533 0.6191668882720458 0
593 2.371348727573323 1.738589883724443 0
594 2.287674041579166 1.821785619339022 0
595 -2.387889819288001 1.734117219824282 0
596 -1.772034692219893 2.305821596689184 0
597 -2.177124670327331 1.050291491578717 0
598 -0.2595438476101922 1.991012154187464 0
599 -2.45329678721613 2.018921483944433 0
600 2.427916881226622 2.014418525059249 0
601 -2.057555671358103 2.039626850058219 0
602 -0.3989538143677013 0.2212997330001312 0
603 -0.3191721703726356 0.4336652410960928 0
604 -2.061436861551668 0.7519642764841368 0
605 -1.984426163798382 0.8695914330320058 0
606 -1.920340632507445 0.7291567428714889 0
607 -2.530550530555092 2.343772399855705 0
608 0.8763576280454182 0.2167932515807292 0
609 0.750532583583547 0.4322609993127704 0
610 0.956756199220884 0.4199591538211582 0
611 -1.367013418261082 3.291248877105963 0
612 -1.235414745705189 3.082672951518513 0
613 -1.004756358750259 3.095601815536468 0
614 -0.8825977104612466 3.288358373788038 0
615 -0.7845070948497144 3.091029369085373 0
616 -1.447890905629823 3.079757626722735 0
617 -1.600584815016854 3.267303269217914 0
618 -1.733703661255043 3.113409740202173 0
619 -1.943773617341237 3.071549266475569 0
620 -2.095669403129249 3.276869503323173 0
621 -2.195996073339838 3.063092987762386 0
622 -0.915539309375353 2.907335539214705 0
623 -2.410380015161244 3.029384406393576 0
624 -2.288304621882407 2.846839569637617 0
625 -2.07690283655636 2.876796105285701 0
626 1.937370493127382 0.3875253479881409 0
627 1.828649211960959 0.5402449507930829 0
628 1.896430251883387 0.7093617708964597 0
629 2.59637133566208 2.73333571993843 0
630 2.395711496356536 2.667719663434982 0
631 -2.597347330562595 2.722725189039868 0
632 -2.415000896542491 2.663060409200785 0
633 1.083303354209383 1.108574936555189 0
634 0.6319702425525772 3.285503364378718 0
635 0.7580802644972031 3.084153483274892 0
636 0.5187677987819523 3.08038830032911 0
637 -0.4746606589530452 0.6397802156802888 0
638 0.386260537134199 3.286028845888998 0
639 0.2559178052766138 3.064731537063898 0
640 0.6405180038572742 2.893828110338027 0
641 2.258011250361196 1.712509925687183 0
642 0.9886391345178077 2.319480715735792 0
643 1.074183605650103 2.484510470020437 0
644 1.642461085468655 2.465608649263774 0
645 1.222025095715507 2.200132275495403 0
646 -1.043115498652327 1.190561327322796 0
647 -1.868309559024325 2.291227991410815 0
648 0.4191018464825632 2.890995777882623 0
649 1.944170453576361 2.207858668520453 0
650 -0.9204818197953745 1.226765517940181 0
651 -1.511389571156668 2.473619819163273 0
652 -1.905817271217564 2.91009342737093 0
653 1.324639401055129 2.248159332234338 0
654 0.5918006473090109 0.5967253329111852 0
655 2.206455955081327 1.553491326892762 0
656 2.247637134171153 2.144709948056462 0
657 -2.120633427457852 1.874389480064504 0
658 0.7893801335259477 2.201894785152767 0
659 -0.535450223491367 2.833785594969559 0
660 -0.5593006427930108 3.054949550482567 0
661 1.857069323393548 0.1908312987751533 0
662 0.3918261033778797 1.232311447149935 0
663 2.514790102589555 2.329380991476013 0
664 1.891651965933866 2.923397233657487 0
665 -0.2529178427263937 0.6731846109779043 0
666 -0.4383766313524319 1.730884398019358 0
667 -0.4367008997739678 1.89598428882402 0
668 -2.465424973321994 2.836810694739262 0
669 0.9174741072292432 2.967567282818401 0
670 -1.604816190135264 2.977209876069178 0
671 -2.097331820510723 1.228577287395609 0
672 2.073637418430575 0.7419602082363954 0
673 -1.146174348744861 1.13383621988306 0
674 -0.4515759907220204 2.188603787809802 0
675 -1.634801896889992 1.152419699954232 0
676 2.430241963931296 2.993291380275236 0
677 -1.931108291049125 0.3824074378721909 0
678 0.0942413992737843 0.2246041755420265 0
679 -0.7210692496552566 2.892291037463666 0
680 -2.039584006023541 1.018695398660428 0
681 0.8695538355786809 0.6124467007253511 0
682 -0.8501473204653903 1.484317125513781 0
683 -1.631128934117482 0.7442187374814999 0
684 -2.276330389646311 2.265360378404072 0
685 1.378241920770559 0.2087609571047839 0
686 1.236462949565506 2.953362968296796 0
687 -0.03112230959155993 2.504566254392718 0
688 -0.8441574049552822 2.046247836015811 0
689 0.3627141779629908 2.680103592698554 0
690 -2.231065351400065 1.625515601083906 0
691 -0.09691184576587591 3.280980686870162 0
692 -0.533127819473558 2.633565930096229 0
693 2.346715791450078 2.258365522480842 0
694 0.5425664671605764 1.501202176030498 0
695 1.371659283391259 2.407874631255759 0
696 -0.8624249276641488 1.808837012336449 0
697 -1.23350125005772 0.981400460445812 0
698 -1.417657772856947 1.120993399648298 0
699 1.892081894398487 1.279388915541755 0
700 2.091669931670738 1.182060241147959 0
701 1.530117770022998 0.645996662046312 0
702 1.880433062054553 0.9450200505638571 0
703 1.62131126925195 2.970579910330724 0
704 -2.23330915965411 1.921901703820905 0
705 -1.846072492707309 0.9850371069785646 0
706 -1.347769838162076 0.9370830561275434 0
707 -1.066924706246292 2.805974917690544 0
708 0.6886106717940181 2.737749386090547 0
709 0.08728898468262092 0.8082327699213148 0
710 1.609199717944525 1.137478325799423 0
711 1.135387753927656 0.6136753245386599 0
712 -0.9189287495565387 2.133915049299929 0
713 0.610022705427977 0.8174866983065137 0
714 -0.5425239095580904 1.471719796897521 0
715 2.180597748473938 2.600956890313905 0
716 0.8500237835082425 1.466519885479489 0
717 -0.06414510982083145 0.9530252212713618 0
718 -1.012103262269694 0.6870201853400077 0
719 -0.8985818192929018 0.5655091097558631 0
720 -0.8132269624254119 1.292495062892831 0
721 -2.058699111870628 2.666003340956661 0
722 0.007351808541547787 2.727019243185601 0
723 1.733818259626801 2.865224508803937 0
724 -1.28932317247164 0.5875251947898572 0
725 1.708742944175146 0.3785693940147916 0
726 1.970629971238714 2.799045254220307 0
727 1.212625688989645 2.808532591121596 0
728 2.145427774685821 2.15185662486025 0
729 -2.293714741203196 2.547760167858256 0
730 1.537457378032858 2.570981685721381 0
731 -0.7410936943135276 0.7886377869941661 0
732 0.5579763363362578 0.4034933755262264 0
733 1.490091630178042 2.90010899858318 0
734 -1.326831686315909 2.94858974740403 0
735 0.9589863685305147 2.106556076151271 0
736 -0.4190871171196312 0.8382130579225724 0
737 1.796708900524013 2.376808366543476 0
738 -1.450884451634391 0.3790298836084998 0
739 -1.693927799301426 0.8402010198566425 0
740 2.133755228553276 1.273944235980902 0
741 -1.141955273130455 2.263474221329624 0
742 -1.152566995065692 1.234236374059706 0
743 -1.845730969038286 0.5796535828146947 0
744 -1.974108554397355 2.124606119596828 0
745 1.227024800756831 0.9913201388616126 0
746 0.5813572560368521 1.953039596052165 0
747 1.769004664399965 0.7738610406441291 0
748 -1.821440241418644 2.808902329400696 0
749 1.03016664446927 1.187611225869093 0
750 1.075075173772663 2.89899799610597 0
751 2.470174942292828 2.848124648072349 0
752 -1.050163008534929 2.418705869791891 0
753 -2.416864625363187 2.463013088981 0
754 -0.5647011041459978 1.927090188588531 0
755 -2.348036377206858 1.961335452603511 0
756 -2.174836872044513 2.754044339466734 0
757 -2.301310497752545 1.821197214085633 0
758 1.002911112777348 2.414853204065473 0
759 2.201982417414301 1.860810802236625 0
760 1.434367727904019 1.085938731934097 0
761 -1.608584737360261 2.439819784238253 0
762 -2.32423913676461 1.456523766784812 0
763 2.363243725337871 2.125225460571101 0
764 -0.7883826173252479 1.74009860685932 0
765 -0.6828732305238088 1.197736172396788 0
766 1.748521378809718 2.298790291213964 0
767 0.8923305327690507 1.726677287543025 0
768 2.30972228017158 1.928417848670453 0
769 1.246419458583714 1.250906544939113 0
770 -0.8117812261217312 1.641869581922418 0
771 0.3851924434285676 1.894934737640035 0
772 0.3301913829952505 1.363904303383923 0
773 -1.768907136375374 0.7361133482499937 0
774 -1.349606913102431 2.439832981523462 0
775 1.808622126760852 1.224085911032473 0
776 1.865343376301842 2.194944316408943 0
777 2.22450605454529 2.741662358351967 0
778 -0.9261873739526955 1.5244859034178 0
779 -2.402859141514564 2.278354760809417 0
780 -0.105745719177205 0.4251160868834694 0
781 -1.061615243067383 2.945198315508237 0
782 2.052085790249559 1.293778774886452 0
783 1.671703254051149 0.5667753564922624 0
784 1.712121980873778 1.180443400562639 0
785 -0.9402514791184017 2.303852722266856 0
786 0.2225384061795535 2.844600692286713 0
787 2.196499162223565 1.082640636171631 0
788 0.4971361058834535 1.716512912493288 0
789 -1.709281334461718 2.374032591283665 0
790 -0.8178389709280257 2.773705595725477 0
791 -2.0611730480911 1.603033390951266 0
792 2.059852448470672 1.613473643033432 0
793 0.9736609917801963 2.221747613026618 0
794 -0.3815667286448421 2.075794613528927 0
795 1.246136107132298 0.3550003532291011 0
796 1.859400483575177 0.8371004084650091 0
797 -0.09405606253082145 0.7884802378721512 0
798 1.375301941113753 2.511712265712958 0
799 -2.369598144743356 2.123111250363347 0
800 0.9057420395186313 1.30048345210747 0
801 1.375892741899437 2.982626534504785 0
802 -1.196511742472813 2.488707278094524 0
803 -1.156108611542731 1.039086280392892 0
804 2.40901578924397 2.536365858450871 0
805 -0.8437799809853023 1.561391237528446 0
806 0.9202226881364531 1.190544311335984 0
807 -1.410436397966404 2.504193350654319 0
808 -2.077420074359322 1.94559760423585 0
809 -1.382278633546947 1.20667537927758 0
810 0.9138667800612938 1.399804988697806 0
811 -2.171860448466276 1.313312337336318 0
812 -2.295537949352851 1.692519197156493 0
813 -2.109584934492482 1.131773882691115 0
814 0.9487437066445428 3.133978598405246 0
815 2.294480512507268 1.322941664820072 0
816 1.763066442637811 0.6590297718429599 0
817 1.520834872120497 0.3208576250410589 0
818 0.9928803862809704 2.004178334202164 0
819 -2.157598279349008 1.590512872541335 0
820 1.975993222422784 2.125029370893604 0
821 -1.620771735647618 0.1326906515763311 0
822 -1.391101996935175 2.598900944424518 0
823 0.03937156576029371 3.119917538405308 0
824 1.507031448077898 1.035885331515249 0
825 1.729098929387344 2.441880077710591 0
826 -0.996914130387526 1.28164413399939 0
827 2.217694478351962 1.6383010724256 0
828 1.366988003002371 1.0292169960622 0
829 -1.845615372097106 0.8651587842852455 0
830 -1.05893487149941 0.5411259125235932 0
831 1.375600460092439 2.319841584017967 0
832 -0.8953189329344706 2.241767100454203 0
833 -2.270006095162391 2.684010057021229 0
834 1.466079160990317 2.524277565659667 0
835 -2.238635805900326 1.412025805833716 0
836 -0.8625788537528921 1.391632154129595 0
837 0.9667406685291369 2.826531135438751 0
838 -1.568864593146938 1.063039611301537 0
839 2.479891172895117 3.133415478298518 0
840 -0.6128345709352817 1.283423897431202 0
841 -1.91635716405095 2.203288679734187 0
842 0.7352897654820889 0.5963126910954608 0
843 1.135473076917964 2.20642410038474 0
844 1.251915191574675 2.271012369448805 0
845 1.11958235872704 0.4546245290833912 0
846 1.018400296128692 0.5597142085347344 0
847 -1.789890067678596 2.973556164994208 0
848 2.204314338484276 1.772050235528579 0
849 -0.4357286257629167 1.489724513713798 0
850 -2.039973098046921 1.883024560117983 0
851 -1.73299465390914 1.201561383734094 0
852 -2.04268868012944 1.516924714583489 0
853 -1.60224193852382 3.105559428105827 0
854 -2.585764756938777 3.098600620578725 0
855 -1.979272905591968 2.283823688322398 0
856 -1.916070602491804 0.156551208181742 0
857 -1.940722051872126 0.9689681977502489 0
858 2.157956999625688 1.60315920543489 0
859 -1.010092871764106 2.481971224757835 0
860 0.8931584508786127 1.54196710112249 0
861 0.8890854450799417 2.181060835726721 0
862 0.785782059888112 2.936703505328337 0
863 1.659105123219907 2.315144077355516 0
864 2.024456909085409 2.027123778605201 0
865 2.092758848901891 1.727873427641248 0
866 0.9875770360485566 1.425191190854172 0
867 1.710653973179302 1.268547789632174 0
$EndNodes
$Elements
1736
1 1 2 2 1 1 7
2 1 2 2 1 7 8
3 1 2 2 1 8 9
4 1 2 2 1 9 10
5 1 2 2 1 10 11
6 1 2 2 1 11 12
7 1 2 2 1 12 13
8 1 2 2 1 13 14
9 1 2 2 1 14 15
10 1 2 2 1 15 16
11 1 2 2 1 16 17
12 1 2 2 1 17 18
13 1 2 2 1 18 19
14 1 2 2 1 19 20
15 1 2 2 1 20 21
16 1 2 2 1 21 2
17 1 2 3 2 3 22
18 1 2 3 2 22 23
19 1 2 3 2 23 24
20 1 2 3 2 24 25
21 1 2 3 2 25 26
22 1 2 3 2 26 27
23 1 2 3 2 27 28
24 1 2 3 2 28 29
25 1 2 3 2 29 30
26 1 2 3 2 30 31
27 1 2 3 2 31 32
28 1 2 3 2 32 33
29 1 2 3 2 33 34
30 1 2 3 2 34 35
31 1 2 3 2 35 36
32 1 2 3 2 36 37
33 1 2 3 2 37 38
34 1 2 3 2 38 39
35 1 2 3 2 39 40
36 1 2 3 2 40 1
37 1 2 3 3 2 41
38 1 2 3 3 41 42
39 1 2 3 3 42 43
40 1 2 3 3 43 44
41 1 2 3 3 44 45
42 1 2 3 3 45 46
43 1 2 3 3 46 47
44 1 2 3 3 47 48
45 1 2 3 3 48 49
46 1 2 3 3 49 50
47 1 2 3 3 50 51
48 1 2 3 3 51 52
49 1 2 3 3 52 53
50 1 2 3 3 53 54
51 1 2 3 3 54 55
52 1 2 3 3 55 56
53 1 2 3 3 56 57
54 1 2 3 3 57 58
55 1 2 3 3 58 59
56 1 2 3 3 59 4
57 1 2 1 4 4 60
58 1 2 1 4 60 61
59 1 2 1 4 61 62
60 1 2 1 4 62 63
61 1 2 1 4 63 64
62 1 2 1 4 64 65
63 1 2 1 4 65 66
64 1 2 1 4 66 67
65 1 2 1 4 67 68
66 1 2 1 4 68 69
67 1 2 1 4 69 70
68 1 2 1 4 70 71
69 1 2 1 4 71 72
70 1 2 1 4 72 73
71 1 2 1 4 73 74
72 1 2 1 4 74 75
73 1 2 1 4 75 76
74 1 2 1 4 76 77
75 1 2 1 4 77 78
76 1 2 1 4 78 79
77 1 2 1 4 79 80
78 1 2 1 4 80 81
79 1 2 1 4 81 82
80 1 2 1 4 82 3
81 1 2 4 5 5 83
82 1 2 4 5 83 84
83 1 2 4 5 84 85
84 1 2 4 5 85 86
85 1 2 4 5 86 87
86 1 2 4 5 87 88
87 1 2 4 5 88 89
88 1 2 4 5 89 90
89 1 2 4 5 90 91
90 1 2 4 5 91 92
91 1 2 4 5 92 93
92 1 2 4 5 93 94
93 1 2 4 5 94 95
94 1 2 4 5 95 96
95 1 2 4 5 96 97
96 1 2 4 5 97 98
97 1 2 4 5 98 99
98 1 2 4 5 99 100
99 1 2 4 5 100 101
100 1 2 4 5 101 102
101 1 2 4 5 102 103
102 1 2 4 5 103 104
103 1 2 4 5 104 105
104 1 2 4 5 105 106
105 1 2 4 5 106 107
106 1 2 4 5 107 108
107 1 2 4 5 108 109
108 1 2 4 5 109 5
109 1 2 4 6 6 110
110 1 2 4 6 110 111
111 1 2 4 6 111 112
112 1 2 4 6 112 113
113 1 2 4 6 113 114
114 1 2 4 6 114 115
115 1 2 4 6 115 116
116 1 2 4 6 116 117
117 1 2 4 6 117 118
118 1 2 4 6 118 119
119 1 2 4 6 119 120
120 1 2 4 6 120 121
121 1 2 4 6 121 122
122 1 2 4 6 122 123
123 1 2 4 6 123 124
124 1 2 4 6 124 125
125 1 2 4 6 125 126
126 1 2 4 6 126 127
127 1 2 4 6 127 128
128 1 2 4 6 128 129
129 1 2 4 6 129 130
130 1 2 4 6 130 131
131 1 2 4 6 131 132
132 1 2 4 6 132 133
133 1 2 4 6 133 134
134 1 2 4 6 134 135
135 1 2 4 6 135 136
136 1 2 4 6 136 6
137 2 2 10 4 224 500 473
138 2 2 10 4 473 520 221
139 2 2 10 4 494 505 146
140 2 2 10 4 143 505 460
141 2 2 10 4 532 745 531
142 2 2 10 4 494 559 505
143 2 2 10 4 505 559 460
144 2 2 10 4 630 715 407
145 2 2 10 4 386 788 566
146 2 2 10 4 473 696 520
147 2 2 10 4 216 541 243
148 2 2 10 4 372 520 376
149 2 2 10 4 555 562 220
150 2 2 10 4 542 832 353
151 2 2 10 4 168 787 553
152 2 2 10 4 253 517 270
153 2 2 10 4 220 562 551
154 2 2 10 4 394 658 517
155 2 2 10 4 243 714 507
156 2 2 10 4 507 840 243
157 2 2 10 4 178 621 620
158 2 2 10 4 695 831 446
159 2 2 10 4 613 622 615
160 2 2 10 4 446 831 144
161 2 2 10 4 517 658 270
162 2 2 10 4 237 741 492
163 2 2 10 4 501 742 474
164 2 2 10 4 757 812 452
165 2 2 10 4 525 840 507
166 2 2 10 4 73 547 72
167 2 2 10 4 470 741 237
168 2 2 10 4 474 742 476
169 2 2 10 4 572 579 578
170 2 2 10 4 500 696 473
171 2 2 10 4 551 562 426
172 2 2 10 4 239 523 229
173 2 2 10 4 190 584 186
174 2 2 10 4 180 521 49
175 2 2 10 4 159 617 78
176 2 2 10 4 185 190 186
177 2 2 10 4 468 469 467
178 2 2 10 4 250 689 242
179 2 2 10 4 151 575 67
180 2 2 10 4 566 694 386
181 2 2 10 4 145 547 73
182 2 2 10 4 235 567 225
183 2 2 10 4 178 623 621
184 2 2 10 4 384 545 544
185 2 2 10 4 324 514 378
186 2 2 10 4 514 761 378
187 2 2 10 4 628 672 554
188 2 2 10 4 302 730 644
189 2 2 10 4 438 704 657
190 2 2 10 4 127 455 128
191 2 2 10 4 598 667 244
192 2 2 10 4 45 787 168
193 2 2 10 4 363 781 612
194 2 2 10 4 517 568 394
195 2 2 10 4 520 696 376
196 2 2 10 4 455 769 128
197 2 2 10 4 239 565 523
198 2 2 10 4 539 820 444
199 2 2 10 4 759 768 443
200 2 2 10 4 159 618 617
201 2 2 10 4 219 541 216
202 2 2 10 4 231 523 522
203 2 2 10 4 364 706 556
204 2 2 10 4 644 730 448
205 2 2 10 4 532 633 288
206 2 2 10 4 309 777 579
207 2 2 10 4 725 783 430
208 2 2 10 4 630 777 715
209 2 2 10 4 466 740 174
210 2 2 10 4 198 706 364
211 2 2 10 4 589 830 350
212 2 2 10 4 657 704 453
213 2 2 10 4 613 615 614
214 2 2 10 4 468 712 469
215 2 2 10 4 412 784 710
216 2 2 10 4 649 820 539
217 2 2 10 4 710 784 483
218 2 2 10 4 480 760 479
219 2 2 10 4 479 760 513
220 2 2 10 4 404 647 596
221 2 2 10 4 289 542 353
222 2 2 10 4 356 774 495
223 2 2 10 4 598 794 667
224 2 2 10 4 281 532 288
225 2 2 10 4 572 578 577
226 2 2 10 4 457 531 529
227 2 2 10 4 235 772 567
228 2 2 10 4 279 806 550
229 2 2 10 4 495 802 356
230 2 2 10 4 245 778 498
231 2 2 10 4 518 647 404
232 2 2 10 4 49 521 48
233 2 2 10 4 550 800 367
234 2 2 10 4 531 633 532
235 2 2 10 4 314 802 496
236 2 2 10 4 288 806 279
237 2 2 10 4 689 786 375
238 2 2 10 4 178 620 80
239 2 2 10 4 614 615 145
240 2 2 10 4 183 854 23
241 2 2 10 4 625 721 328
242 2 2 10 4 548 558 381
243 2 2 10 4 302 825 549
244 2 2 10 4 577 578 179
245 2 2 10 4 496 752 314
246 2 2 10 4 208 546 313
247 2 2 10 4 393 562 555
248 2 2 10 4 684 799 436
249 2 2 10 4 312 681 282
250 2 2 10 4 16 585 15
251 2 2 10 4 485 776 113
252 2 2 10 4 627 783 725
253 2 2 10 4 489 768 600
254 2 2 10 4 340 583 339
255 2 2 10 4 656 763 693
256 2 2 10 4 477 778 245
257 2 2 10 4 375 786 722
258 2 2 10 4 570 573 571
259 2 2 10 4 413 738 589
260 2 2 10 4 154 672 628
261 2 2 10 4 243 849 714
262 2 2 10 4 151 814 575
263 2 2 10 4 350 724 589
264 2 2 10 4 438 601 434
265 2 2 10 4 174 815 466
266 2 2 10 4 399 666 398
267 2 2 10 4 664 726 579
268 2 2 10 4 293 720 650
269 2 2 10 4 81 528 178
270 2 2 10 4 179 527 61
271 2 2 10 4 656 693 371
272 2 2 10 4 282 681 337
273 2 2 10 4 650 720 478
274 2 2 10 4 58 527 184
275 2 2 10 4 302 549 303
276 2 2 10 4 522 771 569
277 2 2 10 4 453 757 452
278 2 2 10 4 632 833 624
279 2 2 10 4 667 794 374
280 2 2 10 4 586 589 165
281 2 2 10 4 74 614 145
282 2 2 10 4 384 544 385
283 2 2 10 4 550 806 800
284 2 2 10 4 665 736 637
285 2 2 10 4 372 688 520
286 2 2 10 4 558 649 381
287 2 2 10 4 431 780 678
288 2 2 10 4 247 568 517
289 2 2 10 4 162 573 570
290 2 2 10 4 231 522 233
291 2 2 10 4 62 577 179
292 2 2 10 4 595 812 757
293 2 2 10 4 246 517 253
294 2 2 10 4 163 699 486
295 2 2 10 4 179 839 527
296 2 2 10 4 644 825 302
297 2 2 10 4 308 548 381
298 2 2 10 4 605 857 680
299 2 2 10 4 594 768 759
300 2 2 10 4 430 817 725
301 2 2 10 4 625 652 619
302 2 2 10 4 362 694 566
303 2 2 10 4 546 646 313
304 2 2 10 4 23 854 528
305 2 2 10 4 67 575 66
306 2 2 10 4 269 689 250
307 2 2 10 4 583 745 339
308 2 2 10 4 593 641 180
309 2 2 10 4 339 745 532
310 2 2 10 4 663 693 166
311 2 2 10 4 113 776 139
312 2 2 10 4 180 655 521
313 2 2 10 4 147 585 16
314 2 2 10 4 554 796 628
315 2 2 10 4 264 542 289
316 2 2 10 4 476 742 646
317 2 2 10 4 572 664 579
318 2 2 10 4 541 849 243
319 2 2 10 4 526 663 152
320 2 2 10 4 563 699 425
321 2 2 10 4 293 650 546
322 2 2 10 4 535 666 403
323 2 2 10 4 735 818 481
324 2 2 10 4 566 772 362
325 2 2 10 4 220 818 555
326 2 2 10 4 449 791 97
327 2 2 10 4 461 792 136
328 2 2 10 4 533 758 258
329 2 2 10 4 310 550 367
330 2 2 10 4 589 724 413
331 2 2 10 4 458 789 596
332 2 2 10 4 459 789 458
333 2 2 10 4 600 763 489
334 2 2 10 4 660 679 659
335 2 2 10 4 161 610 608
336 2 2 10 4 437 799 755
337 2 2 10 4 523 771 522
338 2 2 10 4 621 625 619
339 2 2 10 4 516 695 446
340 2 2 10 4 633 749 288
341 2 2 10 4 403 666 399
342 2 2 10 4 80 620 79
343 2 2 10 4 703 723 571
344 2 2 10 4 538 690 181
345 2 2 10 4 255 533 258
346 2 2 10 4 279 550 278
347 2 2 10 4 676 839 578
348 2 2 10 4 78 617 77
349 2 2 10 4 434 601 433
350 2 2 10 4 457 633 531
351 2 2 10 4 612 734 363
352 2 2 10 4 571 723 664
353 2 2 10 4 22 528 82
354 2 2 10 4 60 527 59
355 2 2 10 4 623 624 621
356 2 2 10 4 138 603 602
357 2 2 10 4 168 553 552
358 2 2 10 4 462 563 465
359 2 2 10 4 225 567 227
360 2 2 10 4 779 799 684
361 2 2 10 4 312 713 654
362 2 2 10 4 556 698 364
363 2 2 10 4 605 680 169
364 2 2 10 4 268 859 543
365 2 2 10 4 622 707 284
366 2 2 10 4 229 523 231
367 2 2 10 4 496 741 564
368 2 2 10 4 800 806 509
369 2 2 10 4 226 541 219
370 2 2 10 4 727 750 271
371 2 2 10 4 646 742 673
372 2 2 10 4 573 703 571
373 2 2 10 4 611 612 160
374 2 2 10 4 612 781 613
375 2 2 10 4 23 528 22
376 2 2 10 4 59 527 58
377 2 2 10 4 579 777 580
378 2 2 10 4 615 679 660
379 2 2 10 4 625 756 721
380 2 2 10 4 442 488 444
381 2 2 10 4 604 605 169
382 2 2 10 4 491 644 447
383 2 2 10 4 589 738 165
384 2 2 10 4 181 762 538
385 2 2 10 4 712 832 510
386 2 2 10 4 454 455 127
387 2 2 10 4 334 719 592
388 2 2 10 4 496 802 495
389 2 2 10 4 161 845 610
390 2 2 10 4 418 584 190
391 2 2 10 4 320 734 616
392 2 2 10 4 353 712 688
393 2 2 10 4 186 584 188
394 2 2 10 4 753 779 406
395 2 2 10 4 264 289 263
396 2 2 10 4 221 468 467
397 2 2 10 4 171 440 439
398 2 2 10 4 173 190 185
399 2 2 10 4 222 545 471
400 2 2 10 4 458 596 140
401 2 2 10 4 479 513 141
402 2 2 10 4 143 459 458
403 2 2 10 4 185 186 164
404 2 2 10 4 492 493 146
405 2 2 10 4 474 475 245
406 2 2 10 4 445 446 144
407 2 2 10 4 471 472 218
408 2 2 10 4 467 469 237
409 2 2 10 4 148 480 479
410 2 2 10 4 498 499 224
411 2 2 10 4 150 502 501
412 2 2 10 4 486 563 172
413 2 2 10 4 566 788 565
414 2 2 10 4 82 528 81
415 2 2 10 4 61 527 60
416 2 2 10 4 270 534 533
417 2 2 10 4 654 713 379
418 2 2 10 4 277 278 276
419 2 2 10 4 247 517 246
420 2 2 10 4 580 777 630
421 2 2 10 4 482 843 581
422 2 2 10 4 353 688 351
423 2 2 10 4 587 830 589
424 2 2 10 4 162 570 65
425 2 2 10 4 37 604 169
426 2 2 10 4 383 643 410
427 2 2 10 4 167 607 27
428 2 2 10 4 557 824 345
429 2 2 10 4 258 758 643
430 2 2 10 4 552 554 168
431 2 2 10 4 176 599 29
432 2 2 10 4 52 600 177
433 2 2 10 4 35 597 175
434 2 2 10 4 641 827 180
435 2 2 10 4 367 716 332
436 2 2 10 4 9 586 165
437 2 2 10 4 426 767 551
438 2 2 10 4 678 780 138
439 2 2 10 4 59 4 60
440 2 2 10 4 3 22 82
441 2 2 10 4 720 836 478
442 2 2 10 4 294 382 295
443 2 2 10 4 270 533 255
444 2 2 10 4 181 595 31
445 2 2 10 4 50 593 180
446 2 2 10 4 519 821 165
447 2 2 10 4 558 776 649
448 2 2 10 4 482 735 481
449 2 2 10 4 290 692 659
450 2 2 10 4 268 543 266
451 2 2 10 4 561 838 364
452 2 2 10 4 253 270 255
453 2 2 10 4 503 698 556
454 2 2 10 4 549 737 548
455 2 2 10 4 403 849 535
456 2 2 10 4 262 263 249
457 2 2 10 4 345 355 343
458 2 2 10 4 230 598 244
459 2 2 10 4 324 378 322
460 2 2 10 4 75 614 74
461 2 2 10 4 514 789 761
462 2 2 10 4 582 835 762
463 2 2 10 4 266 542 264
464 2 2 10 4 172 563 462
465 2 2 10 4 289 353 351
466 2 2 10 4 262 264 263
467 2 2 10 4 278 310 286
468 2 2 10 4 275 276 252
469 2 2 10 4 306 548 308
470 2 2 10 4 670 847 365
471 2 2 10 4 464 655 463
472 2 2 10 4 310 367 332
473 2 2 10 4 770 805 402
474 2 2 10 4 484 809 104
475 2 2 10 4 575 814 576
476 2 2 10 4 358 412 347
477 2 2 10 4 241 247 246
478 2 2 10 4 367 810 716
479 2 2 10 4 97 791 536
480 2 2 10 4 136 792 497
481 2 2 10 4 624 668 632
482 2 2 10 4 570 571 158
483 2 2 10 4 520 688 468
484 2 2 10 4 608 610 609
485 2 2 10 4 469 712 510
486 2 2 10 4 162 574 573
487 2 2 10 4 308 381 336
488 2 2 10 4 278 550 310
489 2 2 10 4 587 589 586
490 2 2 10 4 329 404 326
491 2 2 10 4 293 546 210
492 2 2 10 4 281 288 279
493 2 2 10 4 529 769 457
494 2 2 10 4 163 775 699
495 2 2 10 4 63 577 62
496 2 2 10 4 247 569 568
497 2 2 10 4 420 852 791
498 2 2 10 4 283 532 281
499 2 2 10 4 277 279 278
500 2 2 10 4 564 741 470
501 2 2 10 4 188 584 417
502 2 2 10 4 275 277 276
503 2 2 10 4 310 332 311
504 2 2 10 4 534 642 533
505 2 2 10 4 260 294 272
506 2 2 10 4 584 671 417
507 2 2 10 4 693 763 166
508 2 2 10 4 210 546 208
509 2 2 10 4 326 514 324
510 2 2 10 4 385 544 388
511 2 2 10 4 266 543 542
512 2 2 10 4 581 793 482
513 2 2 10 4 425 782 563
514 2 2 10 4 294 643 383
515 2 2 10 4 388 426 391
516 2 2 10 4 149 587 586
517 2 2 10 4 289 351 292
518 2 2 10 4 391 562 393
519 2 2 10 4 383 408 382
520 2 2 10 4 347 557 345
521 2 2 10 4 96 449 97
522 2 2 10 4 126 454 127
523 2 2 10 4 135 461 136
524 2 2 10 4 94 487 95
525 2 2 10 4 112 485 113
526 2 2 10 4 103 484 104
527 2 2 10 4 120 481 121
528 2 2 10 4 339 532 283
529 2 2 10 4 328 652 625
530 2 2 10 4 303 549 306
531 2 2 10 4 76 611 160
532 2 2 10 4 345 824 355
533 2 2 10 4 369 433 368
534 2 2 10 4 557 710 513
535 2 2 10 4 285 314 268
536 2 2 10 4 433 435 368
537 2 2 10 4 241 246 242
538 2 2 10 4 535 541 226
539 2 2 10 4 165 738 519
540 2 2 10 4 294 383 382
541 2 2 10 4 154 628 627
542 2 2 10 4 177 594 593
543 2 2 10 4 611 616 612
544 2 2 10 4 549 825 737
545 2 2 10 4 481 818 121
546 2 2 10 4 647 855 841
547 2 2 10 4 761 789 459
548 2 2 10 4 506 848 441
549 2 2 10 4 322 515 319
550 2 2 10 4 558 766 139
551 2 2 10 4 358 421 412
552 2 2 10 4 152 663 55
553 2 2 10 4 208 313 206
554 2 2 10 4 336 539 371
555 2 2 10 4 291 736 665
556 2 2 10 4 27 607 26
557 2 2 10 4 115 490 445
558 2 2 10 4 221 467 84
559 2 2 10 4 93 560 157
560 2 2 10 4 224 473 5
561 2 2 10 4 171 439 110
562 2 2 10 4 173 185 99
563 2 2 10 4 163 486 133
564 2 2 10 4 220 551 122
565 2 2 10 4 222 471 124
566 2 2 10 4 98 536 173
567 2 2 10 4 91 458 140
568 2 2 10 4 87 492 146
569 2 2 10 4 143 458 90
570 2 2 10 4 140 560 92
571 2 2 10 4 102 537 142
572 2 2 10 4 146 505 88
573 2 2 10 4 100 185 164
574 2 2 10 4 123 551 222
575 2 2 10 4 107 474 245
576 2 2 10 4 111 439 156
577 2 2 10 4 237 492 86
578 2 2 10 4 119 645 234
579 2 2 10 4 130 479 141
580 2 2 10 4 106 501 474
581 2 2 10 4 245 498 108
582 2 2 10 4 89 505 143
583 2 2 10 4 116 445 144
584 2 2 10 4 83 473 221
585 2 2 10 4 85 467 237
586 2 2 10 4 125 471 218
587 2 2 10 4 109 498 224
588 2 2 10 4 139 490 114
589 2 2 10 4 150 501 105
590 2 2 10 4 148 479 129
591 2 2 10 4 134 486 172
592 2 2 10 4 6 497 171
593 2 2 10 4 164 537 101
594 2 2 10 4 705 857 829
595 2 2 10 4 332 384 333
596 2 2 10 4 665 780 432
597 2 2 10 4 118 653 645
598 2 2 10 4 144 653 117
599 2 2 10 4 38 604 37
600 2 2 10 4 331 855 518
601 2 2 10 4 343 583 340
602 2 2 10 4 331 518 329
603 2 2 10 4 592 637 256
604 2 2 10 4 547 691 72
605 2 2 10 4 246 253 250
606 2 2 10 4 234 843 482
607 2 2 10 4 637 736 256
608 2 2 10 4 578 839 179
609 2 2 10 4 551 767 222
610 2 2 10 4 351 372 352
611 2 2 10 4 381 539 336
612 2 2 10 4 545 767 544
613 2 2 10 4 361 368 331
614 2 2 10 4 317 356 315
615 2 2 10 4 329 518 404
616 2 2 10 4 338 339 283
617 2 2 10 4 244 535 228
618 2 2 10 4 138 602 13
619 2 2 10 4 653 844 645
620 2 2 10 4 258 643 260
621 2 2 10 4 416 743 677
622 2 2 10 4 444 728 539
623 2 2 10 4 841 855 435
624 2 2 10 4 645 843 234
625 2 2 10 4 418 671 584
626 2 2 10 4 142 675 561
627 2 2 10 4 29 599 28
628 2 2 10 4 238 598 232
629 2 2 10 4 53 600 52
630 2 2 10 4 384 860 545
631 2 2 10 4 686 750 727
632 2 2 10 4 579 726 309
633 2 2 10 4 161 608 18
634 2 2 10 4 252 662 235
635 2 2 10 4 404 514 326
636 2 2 10 4 662 772 235
637 2 2 10 4 36 597 35
638 2 2 10 4 294 295 272
639 2 2 10 4 515 822 319
640 2 2 10 4 393 555 395
641 2 2 10 4 248 249 238
642 2 2 10 4 253 255 254
643 2 2 10 4 233 522 241
644 2 2 10 4 426 562 391
645 2 2 10 4 249 674 238
646 2 2 10 4 344 345 343
647 2 2 10 4 524 836 720
648 2 2 10 4 612 613 160
649 2 2 10 4 228 535 226
650 2 2 10 4 242 689 375
651 2 2 10 4 608 609 147
652 2 2 10 4 634 635 151
653 2 2 10 4 278 286 276
654 2 2 10 4 145 660 547
655 2 2 10 4 400 770 402
656 2 2 10 4 155 606 604
657 2 2 10 4 791 819 420
658 2 2 10 4 412 557 347
659 2 2 10 4 372 376 373
660 2 2 10 4 795 845 161
661 2 2 10 4 624 625 621
662 2 2 10 4 522 569 247
663 2 2 10 4 675 838 561
664 2 2 10 4 555 818 735
665 2 2 10 4 749 806 288
666 2 2 10 4 212 293 210
667 2 2 10 4 285 315 314
668 2 2 10 4 600 768 177
669 2 2 10 4 571 572 158
670 2 2 10 4 299 730 302
671 2 2 10 4 646 826 476
672 2 2 10 4 342 343 340
673 2 2 10 4 560 744 157
674 2 2 10 4 368 855 331
675 2 2 10 4 261 262 249
676 2 2 10 4 585 678 15
677 2 2 10 4 299 302 301
678 2 2 10 4 537 675 142
679 2 2 10 4 323 324 322
680 2 2 10 4 230 244 228
681 2 2 10 4 64 570 158
682 2 2 10 4 616 734 612
683 2 2 10 4 659 692 396
684 2 2 10 4 306 549 548
685 2 2 10 4 206 697 204
686 2 2 10 4 618 847 670
687 2 2 10 4 30 595 176
688 2 2 10 4 138 780 603
689 2 2 10 4 12 602 590
690 2 2 10 4 177 593 51
691 2 2 10 4 700 782 425
692 2 2 10 4 526 693 663
693 2 2 10 4 666 667 398
694 2 2 10 4 144 831 653
695 2 2 10 4 169 597 36
696 2 2 10 4 565 788 390
697 2 2 10 4 24 631 183
698 2 2 10 4 255 258 257
699 2 2 10 4 12 590 11
700 2 2 10 4 346 347 345
701 2 2 10 4 321 322 319
702 2 2 10 4 486 699 563
703 2 2 10 4 388 544 426
704 2 2 10 4 310 311 286
705 2 2 10 4 289 292 263
706 2 2 10 4 28 599 167
707 2 2 10 4 592 719 588
708 2 2 10 4 437 438 434
709 2 2 10 4 166 600 53
710 2 2 10 4 641 848 506
711 2 2 10 4 383 409 408
712 2 2 10 4 206 803 697
713 2 2 10 4 640 648 269
714 2 2 10 4 629 630 152
715 2 2 10 4 381 649 539
716 2 2 10 4 286 662 276
717 2 2 10 4 539 728 371
718 2 2 10 4 521 815 48
719 2 2 10 4 149 586 10
720 2 2 10 4 233 241 240
721 2 2 10 4 227 567 239
722 2 2 10 4 364 698 561
723 2 2 10 4 265 266 264
724 2 2 10 4 66 575 162
725 2 2 10 4 239 566 565
726 2 2 10 4 362 662 286
727 2 2 10 4 356 802 315
728 2 2 10 4 630 751 580
729 2 2 10 4 284 790 622
730 2 2 10 4 140 841 560
731 2 2 10 4 31 595 30
732 2 2 10 4 274 275 252
733 2 2 10 4 521 655 464
734 2 2 10 4 388 391 389
735 2 2 10 4 51 593 50
736 2 2 10 4 616 670 320
737 2 2 10 4 304 726 664
738 2 2 10 4 378 515 322
739 2 2 10 4 353 832 712
740 2 2 10 4 306 308 307
741 2 2 10 4 325 326 324
742 2 2 10 4 149 588 587
743 2 2 10 4 454 866 508
744 2 2 10 4 361 369 368
745 2 2 10 4 385 388 387
746 2 2 10 4 218 866 454
747 2 2 10 4 251 252 235
748 2 2 10 4 159 619 618
749 2 2 10 4 594 641 593
750 2 2 10 4 603 780 665
751 2 2 10 4 175 582 34
752 2 2 10 4 303 306 305
753 2 2 10 4 270 658 534
754 2 2 10 4 152 804 526
755 2 2 10 4 131 867 132
756 2 2 10 4 13 602 12
757 2 2 10 4 338 340 339
758 2 2 10 4 582 762 33
759 2 2 10 4 21 182 20
760 2 2 10 4 9 165 8
761 2 2 10 4 579 580 578
762 2 2 10 4 19 161 18
763 2 2 10 4 592 731 334
764 2 2 10 4 198 364 196
765 2 2 10 4 443 768 489
766 2 2 10 4 216 243 214
767 2 2 10 4 66 162 65
768 2 2 10 4 77 611 76
769 2 2 10 4 332 333 311
770 2 2 10 4 64 158 63
771 2 2 10 4 76 160 75
772 2 2 10 4 79 159 78
773 2 2 10 4 77 617 611
774 2 2 10 4 528 854 178
775 2 2 10 4 241 242 240
776 2 2 10 4 755 799 599
777 2 2 10 4 258 260 259
778 2 2 10 4 19 685 161
779 2 2 10 4 10 586 9
780 2 2 10 4 355 583 343
781 2 2 10 4 596 789 404
782 2 2 10 4 651 761 460
783 2 2 10 4 357 358 347
784 2 2 10 4 182 685 20
785 2 2 10 4 246 250 242
786 2 2 10 4 390 771 565
787 2 2 10 4 591 592 588
788 2 2 10 4 34 582 33
789 2 2 10 4 483 867 131
790 2 2 10 4 487 850 95
791 2 2 10 4 369 434 433
792 2 2 10 4 128 769 148
793 2 2 10 4 560 841 744
794 2 2 10 4 607 779 753
795 2 2 10 4 364 838 196
796 2 2 10 4 155 604 38
797 2 2 10 4 351 352 292
798 2 2 10 4 35 175 34
799 2 2 10 4 50 180 49
800 2 2 10 4 32 181 31
801 2 2 10 4 47 174 46
802 2 2 10 4 52 177 51
803 2 2 10 4 513 824 557
804 2 2 10 4 30 176 29
805 2 2 10 4 495 774 494
806 2 2 10 4 798 834 297
807 2 2 10 4 164 851 537
808 2 2 10 4 536 852 173
809 2 2 10 4 79 620 159
810 2 2 10 4 26 607 153
811 2 2 10 4 391 393 392
812 2 2 10 4 227 239 229
813 2 2 10 4 222 767 545
814 2 2 10 4 45 168 44
815 2 2 10 4 37 169 36
816 2 2 10 4 65 570 64
817 2 2 10 4 256 731 592
818 2 2 10 4 28 167 27
819 2 2 10 4 308 336 335
820 2 2 10 4 267 268 266
821 2 2 10 4 54 166 53
822 2 2 10 4 104 809 150
823 2 2 10 4 677 743 155
824 2 2 10 4 438 808 601
825 2 2 10 4 232 598 230
826 2 2 10 4 181 812 595
827 2 2 10 4 280 281 279
828 2 2 10 4 327 329 326
829 2 2 10 4 201 829 739
830 2 2 10 4 292 674 263
831 2 2 10 4 377 400 399
832 2 2 10 4 400 402 401
833 2 2 10 4 244 666 535
834 2 2 10 4 378 651 515
835 2 2 10 4 39 155 38
836 2 2 10 4 384 385 333
837 2 2 10 4 674 794 238
838 2 2 10 4 43 154 42
839 2 2 10 4 559 651 460
840 2 2 10 4 18 608 17
841 2 2 10 4 56 152 55
842 2 2 10 4 26 153 25
843 2 2 10 4 374 754 667
844 2 2 10 4 227 228 226
845 2 2 10 4 527 839 184
846 2 2 10 4 253 254 250
847 2 2 10 4 407 804 630
848 2 2 10 4 41 661 2
849 2 2 10 4 17 608 147
850 2 2 10 4 634 636 635
851 2 2 10 4 11 149 10
852 2 2 10 4 221 520 468
853 2 2 10 4 475 477 245
854 2 2 10 4 445 447 446
855 2 2 10 4 493 494 146
856 2 2 10 4 596 647 140
857 2 2 10 4 499 500 224
858 2 2 10 4 150 503 502
859 2 2 10 4 171 441 440
860 2 2 10 4 440 442 439
861 2 2 10 4 173 191 190
862 2 2 10 4 469 470 237
863 2 2 10 4 148 529 480
864 2 2 10 4 186 187 164
865 2 2 10 4 474 476 475
866 2 2 10 4 143 460 459
867 2 2 10 4 604 606 605
868 2 2 10 4 744 841 435
869 2 2 10 4 197 683 199
870 2 2 10 4 68 634 151
871 2 2 10 4 68 151 67
872 2 2 10 4 260 272 271
873 2 2 10 4 513 710 141
874 2 2 10 4 260 643 294
875 2 2 10 4 422 423 421
876 2 2 10 4 225 226 219
877 2 2 10 4 236 238 232
878 2 2 10 4 21 661 182
879 2 2 10 4 205 206 204
880 2 2 10 4 203 204 200
881 2 2 10 4 56 629 152
882 2 2 10 4 454 456 455
883 2 2 10 4 554 672 168
884 2 2 10 4 490 863 445
885 2 2 10 4 439 864 156
886 2 2 10 4 497 865 171
887 2 2 10 4 371 728 656
888 2 2 10 4 372 373 352
889 2 2 10 4 342 344 343
890 2 2 10 4 319 822 317
891 2 2 10 4 705 829 201
892 2 2 10 4 302 303 301
893 2 2 10 4 137 638 70
894 2 2 10 4 404 789 514
895 2 2 10 4 2 661 21
896 2 2 10 4 538 819 690
897 2 2 10 4 725 817 182
898 2 2 10 4 575 576 574
899 2 2 10 4 374 674 292
900 2 2 10 4 491 825 644
901 2 2 10 4 58 184 57
902 2 2 10 4 24 183 23
903 2 2 10 4 236 248 238
904 2 2 10 4 421 784 412
905 2 2 10 4 248 261 249
906 2 2 10 4 160 614 75
907 2 2 10 4 636 640 635
908 2 2 10 4 393 395 394
909 2 2 10 4 139 766 490
910 2 2 10 4 602 603 591
911 2 2 10 4 284 285 268
912 2 2 10 4 336 371 370
913 2 2 10 4 740 782 700
914 2 2 10 4 137 639 638
915 2 2 10 4 330 331 329
916 2 2 10 4 184 629 57
917 2 2 10 4 57 629 56
918 2 2 10 4 488 728 444
919 2 2 10 4 722 786 512
920 2 2 10 4 241 522 247
921 2 2 10 4 295 798 297
922 2 2 10 4 402 524 507
923 2 2 10 4 321 323 322
924 2 2 10 4 121 818 220
925 2 2 10 4 139 776 558
926 2 2 10 4 410 581 409
927 2 2 10 4 262 265 264
928 2 2 10 4 43 672 154
929 2 2 10 4 158 577 63
930 2 2 10 4 282 283 281
931 2 2 10 4 255 257 254
932 2 2 10 4 590 602 591
933 2 2 10 4 70 638 69
934 2 2 10 4 344 346 345
935 2 2 10 4 632 753 729
936 2 2 10 4 489 763 656
937 2 2 10 4 688 712 468
938 2 2 10 4 378 761 651
939 2 2 10 4 207 208 206
940 2 2 10 4 601 744 433
941 2 2 10 4 295 297 296
942 2 2 10 4 631 668 183
943 2 2 10 4 165 821 8
944 2 2 10 4 685 795 161
945 2 2 10 4 571 664 572
946 2 2 10 4 377 764 400
947 2 2 10 4 376 377 373
948 2 2 10 4 567 772 566
949 2 2 10 4 154 627 626
950 2 2 10 4 200 706 198
951 2 2 10 4 229 230 228
952 2 2 10 4 424 425 423
953 2 2 10 4 32 762 181
954 2 2 10 4 168 672 44
955 2 2 10 4 829 857 605
956 2 2 10 4 480 828 760
957 2 2 10 4 610 681 609
958 2 2 10 4 518 855 647
959 2 2 10 4 436 799 437
960 2 2 10 4 269 708 640
961 2 2 10 4 153 632 631
962 2 2 10 4 351 688 372
963 2 2 10 4 650 826 646
964 2 2 10 4 456 457 455
965 2 2 10 4 454 508 456
966 2 2 10 4 323 325 324
967 2 2 10 4 388 389 387
968 2 2 10 4 620 621 619
969 2 2 10 4 251 274 252
970 2 2 10 4 153 753 632
971 2 2 10 4 603 637 591
972 2 2 10 4 659 679 290
973 2 2 10 4 306 307 305
974 2 2 10 4 189 192 187
975 2 2 10 4 191 420 419
976 2 2 10 4 316 317 315
977 2 2 10 4 359 361 331
978 2 2 10 4 47 815 174
979 2 2 10 4 17 147 16
980 2 2 10 4 419 835 811
981 2 2 10 4 642 793 581
982 2 2 10 4 244 667 666
983 2 2 10 4 81 178 80
984 2 2 10 4 69 634 68
985 2 2 10 4 62 179 61
986 2 2 10 4 74 145 73
987 2 2 10 4 615 660 145
988 2 2 10 4 276 662 252
989 2 2 10 4 430 701 366
990 2 2 10 4 337 338 283
991 2 2 10 4 313 803 206
992 2 2 10 4 258 259 257
993 2 2 10 4 530 828 480
994 2 2 10 4 509 806 749
995 2 2 10 4 346 357 347
996 2 2 10 4 497 792 506
997 2 2 10 4 223 251 235
998 2 2 10 4 293 765 720
999 2 2 10 4 764 770 400
1000 2 2 10 4 225 227 226
1001 2 2 10 4 277 280 279
1002 2 2 10 4 450 451 449
1003 2 2 10 4 462 463 461
1004 2 2 10 4 170 657 450
1005 2 2 10 4 223 235 225
1006 2 2 10 4 209 210 208
1007 2 2 10 4 227 229 228
1008 2 2 10 4 402 682 524
1009 2 2 10 4 238 794 598
1010 2 2 10 4 791 852 536
1011 2 2 10 4 432 780 431
1012 2 2 10 4 55 663 54
1013 2 2 10 4 720 765 525
1014 2 2 10 4 11 590 149
1015 2 2 10 4 176 755 599
1016 2 2 10 4 42 626 41
1017 2 2 10 4 40 677 39
1018 2 2 10 4 234 482 481
1019 2 2 10 4 142 561 484
1020 2 2 10 4 157 601 487
1021 2 2 10 4 170 450 449
1022 2 2 10 4 172 462 461
1023 2 2 10 4 611 617 616
1024 2 2 10 4 85 237 86
1025 2 2 10 4 95 170 96
1026 2 2 10 4 114 490 115
1027 2 2 10 4 124 471 125
1028 2 2 10 4 99 185 100
1029 2 2 10 4 100 164 101
1030 2 2 10 4 91 140 92
1031 2 2 10 4 93 157 94
1032 2 2 10 4 118 645 119
1033 2 2 10 4 5 473 83
1034 2 2 10 4 83 221 84
1035 2 2 10 4 110 439 111
1036 2 2 10 4 122 551 123
1037 2 2 10 4 104 150 105
1038 2 2 10 4 119 234 120
1039 2 2 10 4 123 222 124
1040 2 2 10 4 84 467 85
1041 2 2 10 4 111 156 112
1042 2 2 10 4 90 458 91
1043 2 2 10 4 121 220 122
1044 2 2 10 4 97 536 98
1045 2 2 10 4 101 537 102
1046 2 2 10 4 130 141 131
1047 2 2 10 4 109 224 5
1048 2 2 10 4 136 497 6
1049 2 2 10 4 92 560 93
1050 2 2 10 4 107 245 108
1051 2 2 10 4 134 172 135
1052 2 2 10 4 6 171 110
1053 2 2 10 4 98 173 99
1054 2 2 10 4 125 218 126
1055 2 2 10 4 88 505 89
1056 2 2 10 4 115 445 116
1057 2 2 10 4 133 486 134
1058 2 2 10 4 87 146 88
1059 2 2 10 4 128 148 129
1060 2 2 10 4 106 474 107
1061 2 2 10 4 129 479 130
1062 2 2 10 4 86 492 87
1063 2 2 10 4 105 501 106
1064 2 2 10 4 132 163 133
1065 2 2 10 4 108 498 109
1066 2 2 10 4 89 143 90
1067 2 2 10 4 113 139 114
1068 2 2 10 4 116 144 117
1069 2 2 10 4 102 142 103
1070 2 2 10 4 14 138 13
1071 2 2 10 4 25 631 24
1072 2 2 10 4 297 299 298
1073 2 2 10 4 274 379 275
1074 2 2 10 4 383 410 409
1075 2 2 10 4 391 392 389
1076 2 2 10 4 117 653 118
1077 2 2 10 4 71 137 70
1078 2 2 10 4 448 834 516
1079 2 2 10 4 170 449 96
1080 2 2 10 4 234 481 120
1081 2 2 10 4 141 483 131
1082 2 2 10 4 156 485 112
1083 2 2 10 4 157 487 94
1084 2 2 10 4 172 461 135
1085 2 2 10 4 218 454 126
1086 2 2 10 4 142 484 103
1087 2 2 10 4 700 787 174
1088 2 2 10 4 265 267 266
1089 2 2 10 4 308 335 307
1090 2 2 10 4 193 194 192
1091 2 2 10 4 182 817 685
1092 2 2 10 4 229 231 230
1093 2 2 10 4 358 422 421
1094 2 2 10 4 597 813 175
1095 2 2 10 4 325 327 326
1096 2 2 10 4 408 695 382
1097 2 2 10 4 646 673 313
1098 2 2 10 4 406 779 684
1099 2 2 10 4 516 798 695
1100 2 2 10 4 332 716 384
1101 2 2 10 4 737 825 491
1102 2 2 10 4 379 713 275
1103 2 2 10 4 162 575 574
1104 2 2 10 4 450 657 453
1105 2 2 10 4 466 815 521
1106 2 2 10 4 231 232 230
1107 2 2 10 4 573 733 703
1108 2 2 10 4 591 637 592
1109 2 2 10 4 262 692 265
1110 2 2 10 4 141 710 483
1111 2 2 10 4 400 401 399
1112 2 2 10 4 263 674 249
1113 2 2 10 4 318 319 317
1114 2 2 10 4 199 683 287
1115 2 2 10 4 737 766 558
1116 2 2 10 4 191 418 190
1117 2 2 10 4 493 495 494
1118 2 2 10 4 503 504 502
1119 2 2 10 4 447 448 446
1120 2 2 10 4 186 188 187
1121 2 2 10 4 529 530 480
1122 2 2 10 4 469 510 470
1123 2 2 10 4 440 443 442
1124 2 2 10 4 475 478 477
1125 2 2 10 4 231 233 232
1126 2 2 10 4 576 686 574
1127 2 2 10 4 155 743 606
1128 2 2 10 4 548 737 558
1129 2 2 10 4 260 271 259
1130 2 2 10 4 739 829 773
1131 2 2 10 4 167 779 607
1132 2 2 10 4 535 849 541
1133 2 2 10 4 590 591 588
1134 2 2 10 4 482 793 735
1135 2 2 10 4 341 342 340
1136 2 2 10 4 546 650 646
1137 2 2 10 4 287 415 414
1138 2 2 10 4 211 212 210
1139 2 2 10 4 40 856 677
1140 2 2 10 4 623 668 624
1141 2 2 10 4 194 675 192
1142 2 2 10 4 314 859 268
1143 2 2 10 4 609 842 654
1144 2 2 10 4 588 719 587
1145 2 2 10 4 203 205 204
1146 2 2 10 4 354 801 686
1147 2 2 10 4 214 765 212
1148 2 2 10 4 412 710 557
1149 2 2 10 4 183 668 623
1150 2 2 10 4 147 732 585
1151 2 2 10 4 299 301 300
1152 2 2 10 4 69 638 634
1153 2 2 10 4 233 240 236
1154 2 2 10 4 444 864 442
1155 2 2 10 4 441 865 506
1156 2 2 10 4 447 863 491
1157 2 2 10 4 506 865 497
1158 2 2 10 4 393 394 392
1159 2 2 10 4 448 516 446
1160 2 2 10 4 336 370 335
1161 2 2 10 4 493 496 495
1162 2 2 10 4 504 673 502
1163 2 2 10 4 267 284 268
1164 2 2 10 4 295 296 272
1165 2 2 10 4 695 798 382
1166 2 2 10 4 327 330 329
1167 2 2 10 4 530 745 583
1168 2 2 10 4 552 702 554
1169 2 2 10 4 640 708 349
1170 2 2 10 4 436 437 434
1171 2 2 10 4 402 507 401
1172 2 2 10 4 508 509 456
1173 2 2 10 4 450 452 451
1174 2 2 10 4 462 464 463
1175 2 2 10 4 169 680 597
1176 2 2 10 4 280 282 281
1177 2 2 10 4 775 867 784
1178 2 2 10 4 410 642 581
1179 2 2 10 4 157 744 601
1180 2 2 10 4 658 861 534
1181 2 2 10 4 195 196 194
1182 2 2 10 4 184 751 629
1183 2 2 10 4 320 321 319
1184 2 2 10 4 163 867 775
1185 2 2 10 4 462 465 464
1186 2 2 10 4 638 639 636
1187 2 2 10 4 450 453 452
1188 2 2 10 4 581 843 409
1189 2 2 10 4 46 787 45
1190 2 2 10 4 425 699 423
1191 2 2 10 4 239 567 566
1192 2 2 10 4 213 214 212
1193 2 2 10 4 390 746 569
1194 2 2 10 4 14 678 138
1195 2 2 10 4 670 853 618
1196 2 2 10 4 205 207 206
1197 2 2 10 4 285 316 315
1198 2 2 10 4 429 795 685
1199 2 2 10 4 603 665 637
1200 2 2 10 4 613 614 160
1201 2 2 10 4 233 236 232
1202 2 2 10 4 159 620 619
1203 2 2 10 4 677 856 540
1204 2 2 10 4 422 424 423
1205 2 2 10 4 647 841 140
1206 2 2 10 4 572 577 158
1207 2 2 10 4 7 821 540
1208 2 2 10 4 385 387 386
1209 2 2 10 4 716 860 384
1210 2 2 10 4 465 740 466
1211 2 2 10 4 543 785 542
1212 2 2 10 4 409 843 645
1213 2 2 10 4 312 842 681
1214 2 2 10 4 429 430 366
1215 2 2 10 4 303 305 304
1216 2 2 10 4 194 838 675
1217 2 2 10 4 649 776 485
1218 2 2 10 4 503 556 504
1219 2 2 10 4 191 419 418
1220 2 2 10 4 188 189 187
1221 2 2 10 4 510 564 470
1222 2 2 10 4 443 488 442
1223 2 2 10 4 71 691 137
1224 2 2 10 4 529 531 530
1225 2 2 10 4 447 644 448
1226 2 2 10 4 395 658 394
1227 2 2 10 4 583 828 530
1228 2 2 10 4 574 801 573
1229 2 2 10 4 563 782 465
1230 2 2 10 4 657 808 438
1231 2 2 10 4 595 757 176
1232 2 2 10 4 287 683 415
1233 2 2 10 4 189 193 192
1234 2 2 10 4 330 359 331
1235 2 2 10 4 420 538 419
1236 2 2 10 4 411 659 396
1237 2 2 10 4 44 672 43
1238 2 2 10 4 634 638 636
1239 2 2 10 4 54 663 166
1240 2 2 10 4 622 679 615
1241 2 2 10 4 524 525 507
1242 2 2 10 4 365 847 748
1243 2 2 10 4 197 198 196
1244 2 2 10 4 427 654 379
1245 2 2 10 4 215 216 214
1246 2 2 10 4 358 702 422
1247 2 2 10 4 639 648 636
1248 2 2 10 4 622 781 707
1249 2 2 10 4 580 676 578
1250 2 2 10 4 265 692 290
1251 2 2 10 4 282 337 283
1252 2 2 10 4 273 396 261
1253 2 2 10 4 371 693 370
1254 2 2 10 4 39 677 155
1255 2 2 10 4 154 626 42
1256 2 2 10 4 311 362 286
1257 2 2 10 4 511 547 411
1258 2 2 10 4 656 728 488
1259 2 2 10 4 207 209 208
1260 2 2 10 4 452 690 451
1261 2 2 10 4 153 631 25
1262 2 2 10 4 655 858 463
1263 2 2 10 4 648 689 269
1264 2 2 10 4 699 775 423
1265 2 2 10 4 397 512 511
1266 2 2 10 4 730 834 448
1267 2 2 10 4 547 660 411
1268 2 2 10 4 561 698 484
1269 2 2 10 4 540 856 7
1270 2 2 10 4 15 678 14
1271 2 2 10 4 433 744 435
1272 2 2 10 4 664 723 304
1273 2 2 10 4 242 375 240
1274 2 2 10 4 297 298 296
1275 2 2 10 4 432 797 665
1276 2 2 10 4 149 590 588
1277 2 2 10 4 654 732 609
1278 2 2 10 4 457 769 455
1279 2 2 10 4 338 341 340
1280 2 2 10 4 671 813 417
1281 2 2 10 4 420 819 538
1282 2 2 10 4 534 793 642
1283 2 2 10 4 545 860 471
1284 2 2 10 4 471 860 472
1285 2 2 10 4 636 648 640
1286 2 2 10 4 626 661 41
1287 2 2 10 4 199 200 198
1288 2 2 10 4 217 219 216
1289 2 2 10 4 555 735 395
1290 2 2 10 4 377 399 398
1291 2 2 10 4 553 787 700
1292 2 2 10 4 573 801 733
1293 2 2 10 4 204 706 200
1294 2 2 10 4 359 406 361
1295 2 2 10 4 565 771 523
1296 2 2 10 4 431 585 427
1297 2 2 10 4 277 713 280
1298 2 2 10 4 396 692 261
1299 2 2 10 4 261 692 262
1300 2 2 10 4 380 432 431
1301 2 2 10 4 397 411 396
1302 2 2 10 4 316 318 317
1303 2 2 10 4 632 668 631
1304 2 2 10 4 369 436 434
1305 2 2 10 4 661 725 182
1306 2 2 10 4 223 225 219
1307 2 2 10 4 415 773 743
1308 2 2 10 4 352 374 292
1309 2 2 10 4 178 854 623
1310 2 2 10 4 559 807 651
1311 2 2 10 4 209 211 210
1312 2 2 10 4 415 743 416
1313 2 2 10 4 635 814 151
1314 2 2 10 4 424 700 425
1315 2 2 10 4 619 847 618
1316 2 2 10 4 72 691 71
1317 2 2 10 4 188 417 405
1318 2 2 10 4 202 203 200
1319 2 2 10 4 180 827 655
1320 2 2 10 4 681 846 337
1321 2 2 10 4 628 816 627
1322 2 2 10 4 299 300 298
1323 2 2 10 4 564 752 496
1324 2 2 10 4 187 851 164
1325 2 2 10 4 173 852 191
1326 2 2 10 4 243 840 214
1327 2 2 10 4 315 802 314
1328 2 2 10 4 569 771 390
1329 2 2 10 4 193 195 194
1330 2 2 10 4 494 774 559
1331 2 2 10 4 415 416 414
1332 2 2 10 4 457 749 633
1333 2 2 10 4 630 804 152
1334 2 2 10 4 385 386 333
1335 2 2 10 4 349 862 640
1336 2 2 10 4 500 764 696
1337 2 2 10 4 254 269 250
1338 2 2 10 4 380 427 379
1339 2 2 10 4 431 678 585
1340 2 2 10 4 303 304 301
1341 2 2 10 4 285 707 316
1342 2 2 10 4 500 770 764
1343 2 2 10 4 524 720 525
1344 2 2 10 4 20 685 19
1345 2 2 10 4 318 320 319
1346 2 2 10 4 328 748 652
1347 2 2 10 4 675 851 192
1348 2 2 10 4 537 851 675
1349 2 2 10 4 748 847 652
1350 2 2 10 4 416 677 540
1351 2 2 10 4 211 213 212
1352 2 2 10 4 275 713 277
1353 2 2 10 4 248 273 261
1354 2 2 10 4 272 727 271
1355 2 2 10 4 437 704 438
1356 2 2 10 4 397 511 411
1357 2 2 10 4 456 749 457
1358 2 2 10 4 793 861 735
1359 2 2 10 4 341 366 342
1360 2 2 10 4 321 365 323
1361 2 2 10 4 627 725 626
1362 2 2 10 4 297 730 299
1363 2 2 10 4 357 702 358
1364 2 2 10 4 569 746 568
1365 2 2 10 4 465 466 464
1366 2 2 10 4 395 861 658
1367 2 2 10 4 344 348 346
1368 2 2 10 4 95 850 170
1369 2 2 10 4 466 521 464
1370 2 2 10 4 406 684 361
1371 2 2 10 4 506 827 641
1372 2 2 10 4 417 813 680
1373 2 2 10 4 498 778 499
1374 2 2 10 4 370 526 407
1375 2 2 10 4 377 398 373
1376 2 2 10 4 618 853 617
1377 2 2 10 4 492 741 493
1378 2 2 10 4 502 742 501
1379 2 2 10 4 195 197 196
1380 2 2 10 4 422 702 552
1381 2 2 10 4 300 723 703
1382 2 2 10 4 389 390 387
1383 2 2 10 4 411 660 659
1384 2 2 10 4 811 835 582
1385 2 2 10 4 213 215 214
1386 2 2 10 4 307 309 305
1387 2 2 10 4 214 840 765
1388 2 2 10 4 382 798 295
1389 2 2 10 4 320 670 321
1390 2 2 10 4 443 489 488
1391 2 2 10 4 188 405 189
1392 2 2 10 4 556 697 504
1393 2 2 10 4 544 767 426
1394 2 2 10 4 175 811 582
1395 2 2 10 4 236 687 248
1396 2 2 10 4 419 811 418
1397 2 2 10 4 259 349 257
1398 2 2 10 4 380 431 427
1399 2 2 10 4 552 553 424
1400 2 2 10 4 613 781 622
1401 2 2 10 4 338 711 341
1402 2 2 10 4 491 863 766
1403 2 2 10 4 489 656 488
1404 2 2 10 4 274 380 379
1405 2 2 10 4 284 707 285
1406 2 2 10 4 766 863 490
1407 2 2 10 4 265 290 267
1408 2 2 10 4 137 823 639
1409 2 2 10 4 197 199 198
1410 2 2 10 4 585 732 427
1411 2 2 10 4 215 217 216
1412 2 2 10 4 325 328 327
1413 2 2 10 4 401 403 399
1414 2 2 10 4 273 397 396
1415 2 2 10 4 199 287 202
1416 2 2 10 4 177 768 594
1417 2 2 10 4 156 864 820
1418 2 2 10 4 743 773 606
1419 2 2 10 4 673 742 502
1420 2 2 10 4 493 741 496
1421 2 2 10 4 511 691 547
1422 2 2 10 4 423 775 421
1423 2 2 10 4 280 713 312
1424 2 2 10 4 203 350 205
1425 2 2 10 4 337 711 338
1426 2 2 10 4 394 568 392
1427 2 2 10 4 370 407 335
1428 2 2 10 4 199 202 200
1429 2 2 10 4 215 291 217
1430 2 2 10 4 217 223 219
1431 2 2 10 4 361 684 369
1432 2 2 10 4 280 312 282
1433 2 2 10 4 478 826 650
1434 2 2 10 4 174 740 700
1435 2 2 10 4 287 414 413
1436 2 2 10 4 643 758 410
1437 2 2 10 4 166 763 600
1438 2 2 10 4 774 807 559
1439 2 2 10 4 422 552 424
1440 2 2 10 4 716 810 472
1441 2 2 10 4 696 764 376
1442 2 2 10 4 330 360 359
1443 2 2 10 4 355 828 583
1444 2 2 10 4 193 201 195
1445 2 2 10 4 341 428 366
1446 2 2 10 4 240 687 236
1447 2 2 10 4 207 334 209
1448 2 2 10 4 375 687 240
1449 2 2 10 4 416 540 519
1450 2 2 10 4 298 354 296
1451 2 2 10 4 211 256 213
1452 2 2 10 4 417 680 405
1453 2 2 10 4 442 864 439
1454 2 2 10 4 171 865 441
1455 2 2 10 4 445 863 447
1456 2 2 10 4 370 693 526
1457 2 2 10 4 316 363 318
1458 2 2 10 4 321 670 365
1459 2 2 10 4 416 519 414
1460 2 2 10 4 624 756 625
1461 2 2 10 4 609 732 147
1462 2 2 10 4 703 733 300
1463 2 2 10 4 556 706 697
1464 2 2 10 4 686 727 354
1465 2 2 10 4 428 429 366
1466 2 2 10 4 311 694 362
1467 2 2 10 4 639 823 512
1468 2 2 10 4 820 864 444
1469 2 2 10 4 685 817 429
1470 2 2 10 4 333 694 311
1471 2 2 10 4 248 687 273
1472 2 2 10 4 316 707 363
1473 2 2 10 4 287 413 202
1474 2 2 10 4 366 701 342
1475 2 2 10 4 667 754 398
1476 2 2 10 4 301 723 300
1477 2 2 10 4 792 858 506
1478 2 2 10 4 304 723 301
1479 2 2 10 4 167 799 779
1480 2 2 10 4 686 801 574
1481 2 2 10 4 376 764 377
1482 2 2 10 4 305 726 304
1483 2 2 10 4 460 761 459
1484 2 2 10 4 317 822 356
1485 2 2 10 4 441 759 440
1486 2 2 10 4 601 808 487
1487 2 2 10 4 691 823 137
1488 2 2 10 4 7 856 1
1489 2 2 10 4 212 765 293
1490 2 2 10 4 599 799 167
1491 2 2 10 4 553 700 424
1492 2 2 10 4 291 717 217
1493 2 2 10 4 676 751 184
1494 2 2 10 4 342 701 344
1495 2 2 10 4 508 866 810
1496 2 2 10 4 440 759 443
1497 2 2 10 4 369 684 436
1498 2 2 10 4 184 839 676
1499 2 2 10 4 543 752 564
1500 2 2 10 4 499 770 500
1501 2 2 10 4 606 829 605
1502 2 2 10 4 380 709 432
1503 2 2 10 4 197 739 683
1504 2 2 10 4 642 758 533
1505 2 2 10 4 309 726 305
1506 2 2 10 4 341 711 428
1507 2 2 10 4 485 820 649
1508 2 2 10 4 629 751 630
1509 2 2 10 4 217 717 223
1510 2 2 10 4 755 757 704
1511 2 2 10 4 508 810 800
1512 2 2 10 4 622 790 679
1513 2 2 10 4 257 708 254
1514 2 2 10 4 682 778 477
1515 2 2 10 4 251 709 274
1516 2 2 10 4 540 821 519
1517 2 2 10 4 409 844 408
1518 2 2 10 4 607 753 153
1519 2 2 10 4 654 842 312
1520 2 2 10 4 352 754 374
1521 2 2 10 4 475 826 478
1522 2 2 10 4 386 694 333
1523 2 2 10 4 512 786 639
1524 2 2 10 4 594 848 641
1525 2 2 10 4 349 837 669
1526 2 2 10 4 531 745 530
1527 2 2 10 4 507 714 401
1528 2 2 10 4 335 715 307
1529 2 2 10 4 189 705 193
1530 2 2 10 4 564 785 543
1531 2 2 10 4 626 725 661
1532 2 2 10 4 148 769 529
1533 2 2 10 4 254 708 269
1534 2 2 10 4 472 866 218
1535 2 2 10 4 327 721 330
1536 2 2 10 4 362 772 662
1537 2 2 10 4 509 749 456
1538 2 2 10 4 414 738 413
1539 2 2 10 4 778 805 499
1540 2 2 10 4 373 754 352
1541 2 2 10 4 323 748 325
1542 2 2 10 4 205 718 207
1543 2 2 10 4 223 717 251
1544 2 2 10 4 430 783 701
1545 2 2 10 4 296 727 272
1546 2 2 10 4 392 746 389
1547 2 2 10 4 669 750 576
1548 2 2 10 4 202 724 203
1549 2 2 10 4 344 701 348
1550 2 2 10 4 397 722 512
1551 2 2 10 4 33 762 32
1552 2 2 10 4 203 724 350
1553 2 2 10 4 651 807 515
1554 2 2 10 4 156 820 485
1555 2 2 10 4 503 809 698
1556 2 2 10 4 653 831 408
1557 2 2 10 4 504 803 673
1558 2 2 10 4 511 823 691
1559 2 2 10 4 683 773 415
1560 2 2 10 4 365 748 323
1561 2 2 10 4 519 738 414
1562 2 2 10 4 680 813 597
1563 2 2 10 4 1 856 40
1564 2 2 10 4 346 747 357
1565 2 2 10 4 273 722 397
1566 2 2 10 4 196 838 194
1567 2 2 10 4 687 722 273
1568 2 2 10 4 174 787 46
1569 2 2 10 4 652 847 619
1570 2 2 10 4 405 705 189
1571 2 2 10 4 307 715 309
1572 2 2 10 4 665 797 291
1573 2 2 10 4 348 747 346
1574 2 2 10 4 640 862 635
1575 2 2 10 4 623 854 183
1576 2 2 10 4 389 746 390
1577 2 2 10 4 375 722 687
1578 2 2 10 4 349 708 257
1579 2 2 10 4 390 788 387
1580 2 2 10 4 435 855 368
1581 2 2 10 4 274 709 380
1582 2 2 10 4 398 754 373
1583 2 2 10 4 408 831 695
1584 2 2 10 4 192 851 187
1585 2 2 10 4 191 852 420
1586 2 2 10 4 215 736 291
1587 2 2 10 4 580 751 676
1588 2 2 10 4 401 714 403
1589 2 2 10 4 193 705 201
1590 2 2 10 4 617 853 616
1591 2 2 10 4 718 719 334
1592 2 2 10 4 328 721 327
1593 2 2 10 4 325 748 328
1594 2 2 10 4 407 715 335
1595 2 2 10 4 359 729 406
1596 2 2 10 4 350 718 205
1597 2 2 10 4 330 721 360
1598 2 2 10 4 568 746 392
1599 2 2 10 4 207 718 334
1600 2 2 10 4 209 731 211
1601 2 2 10 4 211 731 256
1602 2 2 10 4 704 757 453
1603 2 2 10 4 463 792 461
1604 2 2 10 4 451 791 449
1605 2 2 10 4 729 833 632
1606 2 2 10 4 251 717 709
1607 2 2 10 4 271 837 259
1608 2 2 10 4 679 790 290
1609 2 2 10 4 627 816 783
1610 2 2 10 4 576 750 686
1611 2 2 10 4 300 733 298
1612 2 2 10 4 354 727 296
1613 2 2 10 4 669 814 635
1614 2 2 10 4 413 724 202
1615 2 2 10 4 451 819 791
1616 2 2 10 4 610 846 681
1617 2 2 10 4 48 815 47
1618 2 2 10 4 150 809 503
1619 2 2 10 4 645 844 409
1620 2 2 10 4 318 734 320
1621 2 2 10 4 427 732 654
1622 2 2 10 4 8 821 7
1623 2 2 10 4 410 758 642
1624 2 2 10 4 476 826 475
1625 2 2 10 4 360 729 359
1626 2 2 10 4 845 846 610
1627 2 2 10 4 334 731 209
1628 2 2 10 4 213 736 215
1629 2 2 10 4 673 803 313
1630 2 2 10 4 477 836 682
1631 2 2 10 4 298 733 354
1632 2 2 10 4 374 794 674
1633 2 2 10 4 256 736 213
1634 2 2 10 4 363 734 318
1635 2 2 10 4 195 739 197
1636 2 2 10 4 290 790 267
1637 2 2 10 4 682 805 778
1638 2 2 10 4 465 782 740
1639 2 2 10 4 697 706 204
1640 2 2 10 4 729 753 406
1641 2 2 10 4 201 739 195
1642 2 2 10 4 671 811 175
1643 2 2 10 4 669 862 349
1644 2 2 10 4 357 796 702
1645 2 2 10 4 510 785 564
1646 2 2 10 4 491 766 737
1647 2 2 10 4 702 796 554
1648 2 2 10 4 387 788 386
1649 2 2 10 4 408 844 653
1650 2 2 10 4 176 757 755
1651 2 2 10 4 175 813 671
1652 2 2 10 4 508 800 509
1653 2 2 10 4 690 819 451
1654 2 2 10 4 721 756 360
1655 2 2 10 4 418 811 671
1656 2 2 10 4 402 805 682
1657 2 2 10 4 170 850 657
1658 2 2 10 4 698 809 484
1659 2 2 10 4 267 790 284
1660 2 2 10 4 291 797 717
1661 2 2 10 4 639 786 648
1662 2 2 10 4 711 846 845
1663 2 2 10 4 576 814 669
1664 2 2 10 4 682 836 524
1665 2 2 10 4 437 755 704
1666 2 2 10 4 624 833 756
1667 2 2 10 4 132 867 163
1668 2 2 10 4 750 837 271
1669 2 2 10 4 463 858 792
1670 2 2 10 4 428 795 429
1671 2 2 10 4 680 857 405
1672 2 2 10 4 715 777 309
1673 2 2 10 4 648 786 689
1674 2 2 10 4 478 836 477
1675 2 2 10 4 707 781 363
1676 2 2 10 4 512 823 511
1677 2 2 10 4 697 803 504
1678 2 2 10 4 452 812 690
1679 2 2 10 4 472 860 716
1680 2 2 10 4 701 783 348
1681 2 2 10 4 429 817 430
1682 2 2 10 4 760 824 513
1683 2 2 10 4 526 804 407
1684 2 2 10 4 681 842 609
1685 2 2 10 4 783 816 348
1686 2 2 10 4 360 833 729
1687 2 2 10 4 259 837 349
1688 2 2 10 4 747 796 357
1689 2 2 10 4 538 835 419
1690 2 2 10 4 739 773 683
1691 2 2 10 4 717 797 709
1692 2 2 10 4 775 784 421
1693 2 2 10 4 719 830 587
1694 2 2 10 4 635 862 669
1695 2 2 10 4 709 797 432
1696 2 2 10 4 690 812 181
1697 2 2 10 4 762 835 538
1698 2 2 10 4 733 801 354
1699 2 2 10 4 355 824 760
1700 2 2 10 4 428 845 795
1701 2 2 10 4 499 805 770
1702 2 2 10 4 718 830 719
1703 2 2 10 4 773 829 606
1704 2 2 10 4 807 822 515
1705 2 2 10 4 760 828 355
1706 2 2 10 4 297 834 730
1707 2 2 10 4 756 833 360
1708 2 2 10 4 534 861 793
1709 2 2 10 4 784 867 483
1710 2 2 10 4 348 816 747
1711 2 2 10 4 616 853 670
1712 2 2 10 4 441 848 759
1713 2 2 10 4 628 796 747
1714 2 2 10 4 669 837 750
1715 2 2 10 4 810 866 472
1716 2 2 10 4 711 845 428
1717 2 2 10 4 735 861 395
1718 2 2 10 4 350 830 718
1719 2 2 10 4 765 840 525
1720 2 2 10 4 516 834 798
1721 2 2 10 4 405 857 705
1722 2 2 10 4 759 848 594
1723 2 2 10 4 714 849 403
1724 2 2 10 4 800 810 367
1725 2 2 10 4 356 807 774
1726 2 2 10 4 337 846 711
1727 2 2 10 4 510 832 785
1728 2 2 10 4 747 816 628
1729 2 2 10 4 785 832 542
1730 2 2 10 4 752 859 314
1731 2 2 10 4 657 850 808
1732 2 2 10 4 808 850 487
1733 2 2 10 4 356 822 807
1734 2 2 10 4 506 858 827
1735 2 2 10 4 543 859 752
1736 2 2 10 4 827 858 655
$EndElements
