$MeshFormat
2.2 0 8
$EndMeshFormat
$PhysicalNames
5
1 1 "topo"
1 2 "base"
1 3 "lados"
1 4 "furos"
2 10 "aleta"
$EndPhysicalNames
$Nodes
563
1 -2 0 0
2 2 0 0
3 -3 3.5 0
4 3 3.5 0
5 -1.05 1.75 0
6 1.95 1.75 0
7 -1.692688321882817 0 0
8 -1.390467335073587 0 0
9 -1.085113894846662 0 0
10 -0.7750831797182496 0 0
11 -0.4650499078309511 0 0
12 -0.1550166359436524 0 0
13 0.155016635943646 0 0
14 0.4650499078309442 0 0
15 0.7750831797182443 0 0
16 1.085114622154849 0 0
17 1.390464460435182 0 0
18 1.692688130767815 0 0
19 -2.914688545933041 3.201409910765643 0
20 -2.829518141175548 2.903313494114418 0
21 -2.751436311964129 2.630027091874452 0
22 -2.682783088156885 2.3897408085491 0
23 -2.621625437317538 2.175689030611381 0
24 -2.566225027995207 1.981787597983225 0
25 -2.514985599624711 1.802449598686489 0
26 -2.466417286718109 1.632460503513381 0
27 -2.419088202378146 1.466808708323511 0
28 -2.371597465045069 1.30059112765774 0
29 -2.322540717779082 1.128892512226785 0
30 -2.270478209429584 0.9466737330035446 0
31 -2.21389482215204 0.7486318775321386 0
32 -2.151168438963107 0.5290895363708756 0
33 -2.08052085609454 0.2818229963308894 0
34 2.08051754680796 0.2818114138278598 0
35 2.151165517277559 0.5290793104714567 0
36 2.213890950905554 0.7486183281694396 0
37 2.270472974716212 0.9466554115067434 0
38 2.322536634111703 1.128878219390961 0
39 2.37159196792125 1.300571887724374 0
40 2.419081182236852 1.466784137828982 0
41 2.466409714621095 1.632434001173833 0
42 2.514992319109508 1.802473116883276 0
43 2.566229769635422 1.981804193723979 0
44 2.621631300118907 2.175709550416175 0
45 2.682788482942251 2.389759690297879 0
46 2.75144101263053 2.630043544206856 0
47 2.829519913897895 2.903319698642633 0
48 2.914689974297358 3.201414910040752 0
49 2.682608812848234 3.5 0
50 2.365217625696469 3.5 0
51 2.047826438544703 3.5 0
52 1.732356657706341 3.5 0
53 1.42274008693529 3.5 0
54 1.110808544207794 3.5 0
55 0.7934779678794142 3.5 0
56 0.4760867807276474 3.5 0
57 0.158695593575882 3.5 0
58 -0.158695593575882 3.5 0
59 -0.476086780727647 3.5 0
60 -0.7934779678794119 3.5 0
61 -1.110806859217607 3.5 0
62 -1.422739739499863 3.5 0
63 -1.732359316448737 3.5 0
64 -2.047826438544696 3.5 0
65 -2.365217625696462 3.5 0
66 -2.682608812848231 3.5 0
67 -1.068228161873476 1.876779650578644 0
68 -1.121435910225969 1.993288367855019 0
69 -1.205312669724622 2.090087308459417 0
70 -1.313063244149152 2.159334397909534 0
71 -1.435958322777023 2.19541964884642 0
72 -1.56404167722298 2.195419648846419 0
73 -1.686936755850851 2.159334397909533 0
74 -1.79468733027538 2.090087308459415 0
75 -1.878564089774033 1.993288367855018 0
76 -1.931771838126524 1.876779650578642 0
77 -1.95 1.749999999999999 0
78 -1.931771838126523 1.623220349421356 0
79 -1.878564089774031 1.50671163214498 0
80 -1.794687330275378 1.409912691540583 0
81 -1.686936755850849 1.340665602090467 0
82 -1.564041677222977 1.30458035115358 0
83 -1.435958322777021 1.30458035115358 0
84 -1.313063244149151 1.340665602090467 0
85 -1.205312669724622 1.409912691540584 0
86 -1.121435910225968 1.506711632144981 0
87 -1.068228161873476 1.623220349421357 0
88 1.931771838126524 1.876779650578644 0
89 1.878564089774031 1.993288367855019 0
90 1.794687330275378 2.090087308459417 0
91 1.686936755850848 2.159334397909534 0
92 1.564041677222977 2.19541964884642 0
93 1.43595832277702 2.195419648846419 0
94 1.313063244149149 2.159334397909533 0
95 1.20531266972462 2.090087308459415 0
96 1.121435910225967 1.993288367855018 0
97 1.068228161873476 1.876779650578642 0
98 1.05 1.749999999999999 0
99 1.068228161873477 1.623220349421356 0
100 1.121435910225969 1.50671163214498 0
101 1.205312669724622 1.409912691540583 0
102 1.313063244149151 1.340665602090467 0
103 1.435958322777023 1.30458035115358 0
104 1.564041677222979 1.30458035115358 0
105 1.686936755850849 1.340665602090467 0
106 1.794687330275378 1.409912691540584 0
107 1.878564089774032 1.506711632144981 0
108 1.931771838126524 1.623220349421357 0
109 0.9459101607552569 1.665751052235331 0
110 -0.9493196828527186 1.829175876536047 0
111 -0.9848005516715246 1.53065663513764 0
112 0.9883215452402343 1.978688858688781 0
113 1.079418385218763 1.379561691422545 0
114 -1.079581023686759 2.120475705930713 0
115 -0.03099262192834004 0.292747938027796 0
116 -0.004881481236128856 3.226689746111347 0
117 -1.821615148729172 2.210837534677657 0
118 1.799013985867261 2.223914549876776 0
119 -1.193127061194845 1.281136092497813 0
120 1.19921821833495 2.218025587908482 0
121 1.34765512307766 1.192809343832674 0
122 -1.343711923303512 2.286649089643228 0
123 -1.505161709163526 1.196277491803032 0
124 1.480955997997663 2.310889199872634 0
125 -0.6251982946672561 0.3127157600404018 0
126 0.6356100092127417 0.2718042703916161 0
127 1.656739960550194 1.216192716530202 0
128 0.6347823743035308 3.225157414245668 0
129 -0.6201436000926421 3.236248562118478 0
130 2.520382357573605 2.566110871598878 0
131 -2.499962484547132 2.551604949500811 0
132 1.877089103495034 3.266561710517114 0
133 -1.891214228809347 3.240053347930725 0
134 -1.229041101571048 0.2238144486819371 0
135 -2.024015806432946 0.686947046067379 0
136 1.237789541295016 0.2630870465626358 0
137 1.278946383917279 3.242308429666764 0
138 -1.266773299358735 3.2308598911266 0
139 2.017505328662169 0.6968635248838686 0
140 -1.800781781665047 1.281974412091517 0
141 2.007909636041577 1.986941420544891 0
142 -2.019572799215833 1.963716384971117 0
143 1.920456051647534 1.385672757329832 0
144 2.440356269273339 2.116736562101277 0
145 -2.432307817785857 2.124914718546021 0
146 -2.006067472873957 1.51888672903174 0
147 2.055380978971457 1.674731126284335 0
148 -2.330168168168836 1.74649172067639 0
149 2.151459284704489 1.08418294928252 0
150 -2.162152194115893 1.086660457406338 0
151 2.251636064678639 1.424735301462511 0
152 2.346512361489443 1.759023868224555 0
153 -2.247909247834119 1.448563325106305 0
154 -1.464808466535566 2.316887824229312 0
155 -1.367872275739624 2.411403221121677 0
156 -1.498258162661392 2.45014414852185 0
157 -1.401926404512364 2.54424574855474 0
158 -1.259766783437008 2.505752078626909 0
159 -1.538592429293617 2.587140890087645 0
160 -1.294610835107532 2.652905007780225 0
161 -1.142926035092096 2.612184168506123 0
162 -1.637812382480451 2.492570865713068 0
163 -1.683898640846575 2.630764904335057 0
164 -1.574052741404901 2.743494275267591 0
165 -1.789513916608868 2.534527145207907 0
166 -1.839155592060501 2.673256267195812 0
167 -1.958523105961709 2.537568782507473 0
168 -2.009896976351638 2.72514293264102 0
169 -1.111159390637454 2.455010565684812 0
170 -0.9745512384922851 2.551631255228353 0
171 -1.014809517158014 2.737649128492144 0
172 -0.8365032799703128 2.672197489817977 0
173 -0.8025210268183433 2.477415418515539 0
174 -0.6475516783773946 2.599554699722951 0
175 -0.6175395970444975 2.394765718379626 0
176 -0.4466116998201496 2.527241985265674 0
177 -0.414947134412448 2.296035738039606 0
178 -0.2242720622885108 2.448768314869211 0
179 -0.1920237504005416 2.192645987469523 0
180 0.01669294923369737 2.356283945470268 0
181 0.0667571208349363 2.085704444979403 0
182 -0.1629777072455003 1.933130362895583 0
183 0.04756625290415351 1.825418922609132 0
184 -0.1472496889695381 1.682207348168272 0
185 0.1116919177596863 1.58466130545612 0
186 -0.1282641028056277 1.423360455319553 0
187 0.1090606566016779 1.31392414972484 0
188 0.2563975439901736 2.283705426366184 0
189 -0.1134124027780728 1.16373533901576 0
190 -0.3587899525382202 1.302467267366986 0
191 0.3277430564819114 1.44062364683445 0
192 0.332429564201391 1.207518258763526 0
193 0.5208359884132866 1.342500453836113 0
194 0.5417699700262169 1.119617850982205 0
195 -0.3441941620870007 1.770868003642285 0
196 0.3587453604590893 0.9768687905974491 0
197 0.5191141829527612 1.543098184413292 0
198 -0.5984186584019908 2.196722897393374 0
199 -0.3279180346713496 1.025036392143025 0
200 -0.5426896207925664 1.139974653993874 0
201 0.2246812967494093 2.516188149064581 0
202 0.458358062449311 2.431359401431143 0
203 0.4929710380306015 2.205812605674673 0
204 0.6713934695668646 2.362943799833425 0
205 0.6347513036071006 2.565925031227504 0
206 0.8553595218867165 2.467335596372883 0
207 -0.5769163377430964 1.34941086244363 0
208 -0.7300331978337513 1.230885148598452 0
209 -0.7147873910643009 1.032164257217811 0
210 0.8117509798694176 2.682296871166368 0
211 1.003244711283645 2.608640990270575 0
212 0.5724544420375848 0.8923723978185456 0
213 0.7344203138493077 1.025516113367283 0
214 0.778680648013957 0.8125030551858965 0
215 0.9382581079532893 0.9628987551768713 0
216 -0.0974169210614716 0.8991364687604542 0
217 0.9741229197434345 0.7380260703734245 0
218 1.120897795189958 0.869795765639414 0
219 -0.8735023574659675 1.12159099744007 0
220 -0.8861339678116902 0.9340249068439104 0
221 -0.7088993885709809 0.8259138524834857 0
222 -0.8936568860715106 0.7292211531004975 0
223 -1.069042891581994 0.8474997318235289 0
224 0.9772386417746582 2.81287123915825 0
225 1.158057018385235 2.724278600849204 0
226 0.6943038444655718 1.45875043381023 0
227 0.3858842585109914 0.7299531309081715 0
228 0.8420072080724978 2.292976325621087 0
229 1.169311000697985 2.522493007728446 0
230 1.314804095670934 2.643162856888542 0
231 -0.3277014013617264 0.7438724430193784 0
232 -0.2786718688393433 2.695531213751757 0
233 0.6835897382566781 1.641065238303319 0
234 0.5275898655667473 1.728310218291051 0
235 0.6860399332116986 1.800364501173959 0
236 1.109311383166879 1.041486124322188 0
237 1.246548007627672 0.9747915633087412 0
238 1.287942919027469 0.8088375110620361 0
239 1.398064966749201 0.9426140052353351 0
240 1.449902254421299 0.7591525876299368 0
241 1.570265297108435 0.8735052344900573 0
242 1.620615830587591 0.7031893748387572 0
243 1.314235761955402 2.827267292663787 0
244 1.4912551564006 2.713580081574015 0
245 1.492438407282594 2.929831874906737 0
246 1.672257841377107 2.837319064744486 0
247 1.682148915505837 2.659973860753543 0
248 1.826759939584923 2.749384322881041 0
249 1.830980275138496 2.590349059747316 0
250 1.982222116814831 2.664911799539516 0
251 1.991052288455062 2.47507502164453 0
252 0.6172594743008503 2.77499698372401 0
253 1.994863266176601 2.851660229658521 0
254 2.153776977918453 2.75551510044857 0
255 2.175053421552033 2.973024319618393 0
256 -0.7377649862519888 1.418505587983853 0
257 -0.612919244582687 1.526293216177975 0
258 -0.7447168099914327 1.57020008215071 0
259 -2.143001581406058 2.59240859195685 0
260 -2.213859104198632 2.80294018747906 0
261 -2.098711200605483 2.422112264168796 0
262 2.06759511481114 1.795259137182037 0
263 1.692947608079092 2.282618311439434 0
264 -0.9748512621897858 1.949819498517654 0
265 -0.8448627535632705 1.908880745390517 0
266 -0.8710935813982388 2.045968582749071 0
267 1.343260039449804 2.283807283469798 0
268 -1.16598689354764 2.200336790314996 0
269 -1.02706286980169 2.232091735932274 0
270 -1.377811118412798 1.20219600275695 0
271 -1.438057167642405 1.081074427189407 0
272 -1.575930231007327 1.08506617049345 0
273 -1.501373309107831 0.9598962037238861 0
274 -1.642602011475523 0.9630762098499047 0
275 -1.572106815977888 0.82584156293554 0
276 -1.304123690070893 1.078856628979911 0
277 -1.414908354734464 0.8269845131971765 0
278 -1.488436673262777 0.6787964020751804 0
279 -1.310740643176464 0.6652948775136303 0
280 1.79267978361384 1.23894053155191 0
281 1.747126660141737 1.123336119301624 0
282 1.892958993771965 1.154927364289534 0
283 1.846435984833867 1.031209522729213 0
284 -2.063935434696492 1.668918325276023 0
285 -2.050680317147282 1.829175876536046 0
286 -2.138058673277793 1.937350930523464 0
287 -2.105495392294715 2.065565966790953 0
288 1.994177789705278 1.484702387042174 0
289 2.031947249286757 1.359823013232842 0
290 1.100261844738628 2.144706103505568 0
291 1.098533860357028 2.272299106644136 0
292 1.947887893001875 2.090648259706954 0
293 2.083837706077449 2.087018450365508 0
294 2.020076750034586 2.211268332400318 0
295 2.17742320491889 2.200833034565721 0
296 1.165656107122359 1.298876301352512 0
297 1.034853603910364 1.264787009995287 0
298 0.951130401977978 1.355353281642527 0
299 -1.078770839862305 1.342675381913943 0
300 1.500627869089693 1.174141089838453 0
301 0.9495822212304204 1.865666769300897 0
302 0.8632846475453957 1.970003086115693 0
303 -1.948940024568516 1.408580129100931 0
304 -0.6392526691299477 1.690934186127047 0
305 2.14739070889856 1.97379994261792 0
306 1.482025088558908 0.5747108651229935 0
307 1.680076510740238 0.5048994083102891 0
308 -1.66997922228361 0.6755698577595766 0
309 -1.579552271620259 0.5004253887535155 0
310 -1.912499699742056 2.132772983596052 0
311 1.406796289684245 2.407946355366236 0
312 1.536436935641678 2.435085289604558 0
313 -1.712824437961848 1.0850247489445 0
314 -1.788495508809144 0.9622609382403173 0
315 -1.856337599710712 1.095765757003734 0
316 -1.92205346691597 0.9789697266191656 0
317 -0.8747990342468499 2.869116143578696 0
318 -0.7392178620271236 1.990615921938654 0
319 0.5572587641876832 1.901138727362182 0
320 2.524448786250574 3.260525236171349 0
321 -2.528242748074052 3.242730584752803 0
322 0.8970948616212033 1.244095126402659 0
323 -1.862773590174103 2.862754847494081 0
324 1.607609650625136 1.098723450153986 0
325 -1.775635060719138 0.4723881003126114 0
326 -1.936976645830368 2.255130494746592 0
327 2.387930172076073 2.84485410394656 0
328 -1.656739960550196 2.283807283469798 0
329 -0.8850998728454735 1.316377042754938 0
330 -0.9598591656724287 1.680292566772712 0
331 -0.8494953450255692 1.757831428206622 0
332 -1.088092928749217 1.225379894441181 0
333 1.741235527410427 0.8540010127912705 0
334 1.807065845927952 2.34645117132995 0
335 -0.322625365286035 1.548059123966761 0
336 0.8199520581243878 0.6082412594389892 0
337 0.9129461144263626 2.081525506684166 0
338 0.7863086286655208 2.07864896675514 0
339 0.9743372148414597 1.549506713458517 0
340 -2.279595008709771 2.467122083524358 0
341 -2.210359355219031 2.306210683907846 0
342 -1.084913521612939 2.928893790435716 0
343 0.3786176851225641 1.829233965123214 0
344 -2.253832165459263 2.037295313969026 0
345 1.58325094108889 3.281235638540529 0
346 -0.7059750731654868 0.6133589987564432 0
347 -0.9166018663218944 0.5037600812748315 0
348 1.67397245171484 2.42354201549643 0
349 -0.4333204099029248 2.020046488611754 0
350 -2.151690025977362 1.549093766484134 0
351 0.715655977732507 1.253489414371137 0
352 2.107786734914835 2.333898553204815 0
353 2.272824165120994 2.329180215707769 0
354 2.1951330719455 2.466745907431026 0
355 -0.7067433380712801 1.82279887469834 0
356 1.031453130176565 0.4891729002401592 0
357 1.223465985878864 2.365327992046391 0
358 -2.164995670446828 1.749999999999998 0
359 -2.393650370129928 1.924068346492671 0
360 -0.6026943708984436 1.927802070908849 0
361 2.21703793350834 1.249790290855339 0
362 -1.845988756966362 2.337252075276408 0
363 -0.9493901955621313 3.226738302433021 0
364 -1.359276345358395 2.96506343360381 0
365 -0.7844191646940549 2.280515523369568 0
366 2.194134475692103 1.712399372894014 0
367 2.166134600310828 1.574999325215683 0
368 -2.303541167013273 1.581985712761702 0
369 1.491915153195817 0.368156537096251 0
370 -1.59298854271411 3.265638529164747 0
371 1.688776588787718 0.9969794067376769 0
372 1.411027492002091 1.079058749366856 0
373 -2.090166429357262 1.423920756685684 0
374 -2.045410581165351 1.304941151289733 0
375 0.8400560878888662 1.598846996810042 0
376 0.8139289132502313 1.720670824493346 0
377 -2.192831523764943 1.226366657887548 0
378 2.37670201053108 1.93773928276358 0
379 0.9526999249407506 3.225286704419964 0
380 1.024463272323552 2.46117384070238 0
381 -2.376779532567501 2.320634219682906 0
382 2.093127092404932 0.9032561629924756 0
383 2.468616306030494 2.324552455777273 0
384 -2.207234551263318 3.254166706860885 0
385 1.910382374331731 0.4440938239760712 0
386 0.4242257755810075 2.006248398956366 0
387 -0.07683899260239349 0.6199203173140369 0
388 -0.3276035721362049 0.440754519766013 0
389 -2.57782591225818 2.816856644312681 0
390 1.159221525735224 0.6689699411288961 0
391 1.439574811695763 2.544114033932804 0
392 2.310479037577613 1.604445633694392 0
393 2.218797890290101 1.858208587443863 0
394 -1.656101804063735 0.3297464231170075 0
395 -1.656739960550192 1.216192716530202 0
396 0.9402229377439802 0.2413158725950872 0
397 -0.94529166770309 2.364693028264637 0
398 1.22822224598504 1.11917424365868 0
399 1.141568827589218 2.911164631780164 0
400 1.704754585156203 0.2735509345152254 0
401 0.9701892667056642 2.196344621675014 0
402 0.8611690134898959 1.471850113626575 0
403 0.3168049654260877 3.232907780092432 0
404 0.1321669019779142 2.964637266152159 0
405 -0.3208548878710058 3.229711819623209 0
406 -0.4760993586932065 2.946532781158862 0
407 2.053857888634903 1.219778968282413 0
408 1.993221633754714 1.044850992379307 0
409 -1.016762674322218 1.02657089928171 0
410 -1.187819322580941 1.001493578406787 0
411 0.7892344605259155 2.993670481234787 0
412 1.918051080176065 2.27654541173948 0
413 -0.9505379408166287 2.137438023144658 0
414 -1.194702141381447 1.150992492715498 0
415 -1.113217268487259 0.6758851840096627 0
416 0.3088220808073467 0.2655984415604791 0
417 0.7235517097395221 1.946535883348809 0
418 -1.864014340300789 0.8242811506446159 0
419 1.921490558178129 0.87575098669969 0
420 2.192120620536409 3.232437881655971 0
421 2.269480292120138 2.070333569373093 0
422 -1.240952317305201 2.375514226641525 0
423 -2.065267805458451 0.9100403422267715 0
424 -2.034329248762815 2.171889928323906 0
425 -0.7450158620268044 2.122838915542168 0
426 -0.9707707947105373 0.2422013021996261 0
427 0.6248479562670773 2.063930366558262 0
428 -1.351669290263783 0.9625245405315241 0
429 -0.1619040133620155 2.946200144620245 0
430 -2.370351380423652 2.999988863075328 0
431 0.1213464571378937 1.060577910532361 0
432 0.9926403085130012 1.133626312796963 0
433 -0.525063841477833 0.9135048928907437 0
434 -0.8615685835217667 1.474834111928706 0
435 -1.211741821690546 0.4667908233975251 0
436 0.823345910229383 1.351587930759465 0
437 -2.303858347273426 2.646556030726006 0
438 -1.18321655931351 2.77745510628339 0
439 0.8256823446638585 1.844847634525641 0
440 0.4380723271991747 2.672299627813619 0
441 -2.04301514285873 3.004690910130049 0
442 -1.121361573709462 2.318505273511382 0
443 1.125937325782834 1.179196388954419 0
444 -1.747388378732698 3.058179657641084 0
445 0.449354288603335 2.943298512519237 0
446 -0.6809571675903497 2.800898984976371 0
447 2.10944750768377 1.462003063177124 0
448 -2.237552635779076 1.87298122467653 0
449 -0.01059246857699669 2.666718438328601 0
450 0.617184709379438 0.6791546997574316 0
451 0.3541109791554923 1.641951917598479 0
452 0.4442404783164546 0.4883123629650219 0
453 1.717628484442984 3.059583789285045 0
454 1.808810181259355 0.6696627526808729 0
455 2.623067813830611 2.802806382601483 0
456 1.311746138243924 2.476317319715044 0
457 -1.963544728398229 2.377097518870328 0
458 -2.000265798861939 1.098118404314219 0
459 -1.922430770446609 1.208565181446738 0
460 1.931672435937577 1.273227315913411 0
461 -1.729133284948165 0.8184916394792061 0
462 -2.065994906866067 2.28491408318295 0
463 0.1459547063187905 0.8045304493484855 0
464 1.320358321847556 0.6577499035191858 0
465 1.268719325285333 0.4960518885756051 0
466 -0.4863442749961833 1.633249956790047 0
467 0.7105982541145389 2.19648712370039 0
468 -1.436277022406788 0.3181787569535548 0
469 -0.5059783546640887 2.713951932975123 0
470 -1.57391070905358 2.362761228017629 0
471 -1.714501103596611 2.766098620608555 0
472 1.507651840568265 1.019940423468598 0
473 -1.625452710376063 2.910457445807507 0
474 0.9792095547663398 2.337505133939155 0
475 0.1961783182371416 0.5335104400206654 0
476 1.300214804434798 3.02225882000953 0
477 2.351022337311253 2.461415922424226 0
478 2.290905347716517 2.615529256943935 0
479 -2.287197215192003 2.183977706501974 0
480 -0.9609168870611137 1.40670050041106 0
481 -1.438603969743228 2.698735645626279 0
482 -1.351047376899026 2.790602003927594 0
483 -0.9990268447543859 1.294912531403327 0
484 1.578268479799228 2.55500451832512 0
485 -1.733447375849239 2.394217501538773 0
486 -0.527685759729449 1.792958969059577 0
487 -1.824983917247458 0.2430979659197712 0
488 -0.7552889312986493 3.020840137957479 0
489 1.58967093413125 2.329510893051895 0
490 -1.247661800559013 0.8290598768503636 0
491 0.2225782651471089 1.930055401362683 0
492 -1.405349686431367 0.5258972497386813 0
493 -2.159534713965649 2.174975613779443 0
494 -0.9174723950899575 2.243986500462351 0
495 0.8570600753794424 1.116690139283194 0
496 -1.774579984772209 1.180451768405156 0
497 -1.969161773881412 0.4540680568839053 0
498 -1.837601810842039 0.6599201174452811 0
499 1.971645336670076 3.051438750474708 0
500 -0.3155123201597401 0.2015164164989185 0
501 1.903915337666892 2.378204762045452 0
502 -1.90164377947543 1.313305835794123 0
503 2.122617960570073 2.595555417201515 0
504 -0.5602605980314969 0.7192869402635158 0
505 -2.205974071003066 1.64849625246649 0
506 2.366298630192491 3.073399000208707 0
507 -0.866634473472826 1.605688478185712 0
508 -2.635968497528251 3.025527938553272 0
509 -2.078090027933288 1.185338125659706 0
510 -0.5273337620212162 0.5170203581392114 0
511 2.248127803648309 1.963211486177255 0
512 2.145403259512952 1.349978522658317 0
513 -0.4713884491619802 1.470386241766637 0
514 1.242946852595472 1.225021514156245 0
515 1.836630973650338 2.90987723140876 0
516 -1.508700921358386 3.071181689656791 0
517 0.9899277169940035 3.002732090135333 0
518 1.13267153157521 3.080750135202351 0
519 0.9177066430058827 1.765844742721144 0
520 1.018709970941704 2.078141002315227 0
521 2.054242404738928 1.570746084392599 0
522 2.074693037633581 1.898197747673471 0
523 1.001577341627438 1.4485178892667 0
524 1.893205071928812 2.179575620174961 0
525 -1.001697058466088 2.051396118916442 0
526 -1.272587561532312 1.213875923997608 0
527 0.6638739665333722 0.485817169496469 0
528 0.8452187089378581 2.171848346702308 0
529 -0.6237334326514574 2.05160525887896 0
530 -2.545925842677274 2.31308018245451 0
531 -1.244788852534471 2.270322157711919 0
532 1.708271407907956 2.539712208088626 0
533 2.650482671693495 3.039312543370037 0
534 2.321557895487397 2.198934522315275 0
535 -2.382873557505537 2.818704341168949 0
536 0.222913020017801 1.762264302429925 0
537 1.819209601135199 2.458889039725384 0
538 -0.9878003670121911 1.183502704775052 0
539 -1.863793147302831 2.438931164425497 0
540 1.843766419992266 1.326164176977306 0
541 -1.050750185351636 1.440182698304253 0
542 1.110065999437847 2.384650998448542 0
543 1.452033966884624 3.117327449262643 0
544 -1.748945599589164 2.277089758574434 0
545 -2.010322828091688 2.077964567372706 0
546 1.514394923150433 0.1711343785700139 0
547 -1.095035486809203 1.117587913924046 0
548 -1.162818633774906 3.070826906904131 0
549 -1.476189010856666 2.863255748981596 0
550 1.894429597888192 0.188964640506402 0
551 -0.7534936153054137 1.691413694128434 0
552 0.2279382893399796 2.744233578250868 0
553 -2.145780977458188 1.84439239628698 0
554 1.318969782304354 2.379191338308213 0
555 0.2557815325542578 2.094342091245839 0
556 -0.955414111386987 3.029632484038276 0
557 -2.178698409480616 1.347713080185534 0
558 -1.600103680134877 0.1782046291980666 0
559 1.308789501093901 1.068450494996168 0
560 0.8182224203582094 0.419270294432464 0
561 1.988176438249488 2.334998416206919 0
562 -0.8537077888051368 2.166149509053563 0
563 0.7626267842948085 1.545644970502944 0
$EndNodes
$Elements
1128
1 1 2 2 1 1 7
2 1 2 2 1 7 8
3 1 2 2 1 8 9
4 1 2 2 1 9 10
5 1 2 2 1 10 11
6 1 2 2 1 11 12
7 1 2 2 1 12 13
8 1 2 2 1 13 14
9 1 2 2 1 14 15
10 1 2 2 1 15 16
11 1 2 2 1 16 17
12 1 2 2 1 17 18
13 1 2 2 1 18 2
14 1 2 3 2 3 19
15 1 2 3 2 19 20
16 1 2 3 2 20 21
17 1 2 3 2 21 22
18 1 2 3 2 22 23
19 1 2 3 2 23 24
20 1 2 3 2 24 25
21 1 2 3 2 25 26
22 1 2 3 2 26 27
23 1 2 3 2 27 28
24 1 2 3 2 28 29
25 1 2 3 2 29 30
26 1 2 3 2 30 31
27 1 2 3 2 31 32
28 1 2 3 2 32 33
29 1 2 3 2 33 1
30 1 2 3 3 2 34
31 1 2 3 3 34 35
32 1 2 3 3 35 36
33 1 2 3 3 36 37
34 1 2 3 3 37 38
35 1 2 3 3 38 39
36 1 2 3 3 39 40
37 1 2 3 3 40 41
38 1 2 3 3 41 42
39 1 2 3 3 42 43
40 1 2 3 3 43 44
41 1 2 3 3 44 45
42 1 2 3 3 45 46
43 1 2 3 3 46 47
44 1 2 3 3 47 48
45 1 2 3 3 48 4
46 1 2 1 4 4 49
47 1 2 1 4 49 50
48 1 2 1 4 50 51
49 1 2 1 4 51 52
50 1 2 1 4 52 53
51 1 2 1 4 53 54
52 1 2 1 4 54 55
53 1 2 1 4 55 56
54 1 2 1 4 56 57
55 1 2 1 4 57 58
56 1 2 1 4 58 59
57 1 2 1 4 59 60
58 1 2 1 4 60 61
59 1 2 1 4 61 62
60 1 2 1 4 62 63
61 1 2 1 4 63 64
62 1 2 1 4 64 65
63 1 2 1 4 65 66
64 1 2 1 4 66 3
65 1 2 4 5 5 67
66 1 2 4 5 67 68
67 1 2 4 5 68 69
68 1 2 4 5 69 70
69 1 2 4 5 70 71
70 1 2 4 5 71 72
71 1 2 4 5 72 73
72 1 2 4 5 73 74
73 1 2 4 5 74 75
74 1 2 4 5 75 76
75 1 2 4 5 76 77
76 1 2 4 5 77 78
77 1 2 4 5 78 79
78 1 2 4 5 79 80
79 1 2 4 5 80 81
80 1 2 4 5 81 82
81 1 2 4 5 82 83
82 1 2 4 5 83 84
83 1 2 4 5 84 85
84 1 2 4 5 85 86
85 1 2 4 5 86 87
86 1 2 4 5 87 5
87 1 2 4 6 6 88
88 1 2 4 6 88 89
89 1 2 4 6 89 90
90 1 2 4 6 90 91
91 1 2 4 6 91 92
92 1 2 4 6 92 93
93 1 2 4 6 93 94
94 1 2 4 6 94 95
95 1 2 4 6 95 96
96 1 2 4 6 96 97
97 1 2 4 6 97 98
98 1 2 4 6 98 99
99 1 2 4 6 99 100
100 1 2 4 6 100 101
101 1 2 4 6 101 102
102 1 2 4 6 102 103
103 1 2 4 6 103 104
104 1 2 4 6 104 105
105 1 2 4 6 105 106
106 1 2 4 6 106 107
107 1 2 4 6 107 108
108 1 2 4 6 108 6
109 2 2 10 4 198 349 177
110 2 2 10 4 169 442 397
111 2 2 10 4 346 347 125
112 2 2 10 4 324 472 371
113 2 2 10 4 283 371 333
114 2 2 10 4 360 486 349
115 2 2 10 4 151 392 367
116 2 2 10 4 168 441 260
117 2 2 10 4 153 373 350
118 2 2 10 4 316 423 418
119 2 2 10 4 131 381 340
120 2 2 10 4 305 421 293
121 2 2 10 4 213 351 194
122 2 2 10 4 145 359 344
123 2 2 10 4 347 435 426
124 2 2 10 4 224 411 210
125 2 2 10 4 323 441 168
126 2 2 10 4 333 454 419
127 2 2 10 4 213 495 351
128 2 2 10 4 397 442 269
129 2 2 10 4 410 414 276
130 2 2 10 4 350 368 153
131 2 2 10 4 367 447 151
132 2 2 10 4 410 547 414
133 2 2 10 4 319 427 386
134 2 2 10 4 169 397 170
135 2 2 10 4 136 465 356
136 2 2 10 4 347 426 125
137 2 2 10 4 210 411 252
138 2 2 10 4 418 423 135
139 2 2 10 4 351 495 322
140 2 2 10 4 223 490 415
141 2 2 10 4 306 465 369
142 2 2 10 4 371 472 241
143 2 2 10 4 198 529 349
144 2 2 10 4 260 441 430
145 2 2 10 4 154 470 72
146 2 2 10 4 327 478 130
147 2 2 10 4 123 395 272
148 2 2 10 4 393 522 262
149 2 2 10 4 429 449 404
150 2 2 10 4 348 484 312
151 2 2 10 4 391 484 244
152 2 2 10 4 407 512 289
153 2 2 10 4 434 480 329
154 2 2 10 4 49 320 48
155 2 2 10 4 19 321 66
156 2 2 10 4 357 554 456
157 2 2 10 4 349 486 195
158 2 2 10 4 357 456 229
159 2 2 10 4 415 435 347
160 2 2 10 4 333 419 283
161 2 2 10 4 177 349 179
162 2 2 10 4 445 552 440
163 2 2 10 4 356 396 136
164 2 2 10 4 208 329 219
165 2 2 10 4 366 392 152
166 2 2 10 4 293 421 295
167 2 2 10 4 125 510 346
168 2 2 10 4 386 427 203
169 2 2 10 4 367 392 366
170 2 2 10 4 419 454 139
171 2 2 10 4 470 485 328
172 2 2 10 4 300 472 324
173 2 2 10 4 372 472 300
174 2 2 10 4 364 438 342
175 2 2 10 4 233 376 235
176 2 2 10 4 256 434 329
177 2 2 10 4 148 505 358
178 2 2 10 4 323 444 441
179 2 2 10 4 186 335 190
180 2 2 10 4 344 479 145
181 2 2 10 4 193 226 197
182 2 2 10 4 226 563 233
183 2 2 10 4 366 393 262
184 2 2 10 4 207 256 208
185 2 2 10 4 415 490 279
186 2 2 10 4 256 329 208
187 2 2 10 4 375 376 233
188 2 2 10 4 207 208 200
189 2 2 10 4 272 395 313
190 2 2 10 4 230 391 244
191 2 2 10 4 426 435 134
192 2 2 10 4 206 474 380
193 2 2 10 4 175 365 198
194 2 2 10 4 305 522 393
195 2 2 10 4 352 354 251
196 2 2 10 4 246 453 245
197 2 2 10 4 459 496 140
198 2 2 10 4 349 529 360
199 2 2 10 4 203 204 202
200 2 2 10 4 72 470 328
201 2 2 10 4 190 207 200
202 2 2 10 4 263 489 92
203 2 2 10 4 188 203 202
204 2 2 10 4 252 445 440
205 2 2 10 4 28 557 153
206 2 2 10 4 204 228 206
207 2 2 10 4 124 311 267
208 2 2 10 4 284 350 146
209 2 2 10 4 121 372 300
210 2 2 10 4 330 331 110
211 2 2 10 4 267 357 120
212 2 2 10 4 285 358 284
213 2 2 10 4 142 286 285
214 2 2 10 4 300 324 127
215 2 2 10 4 117 326 310
216 2 2 10 4 226 233 197
217 2 2 10 4 471 473 323
218 2 2 10 4 131 530 381
219 2 2 10 4 218 236 215
220 2 2 10 4 335 513 190
221 2 2 10 4 193 197 191
222 2 2 10 4 322 436 351
223 2 2 10 4 40 392 151
224 2 2 10 4 192 193 191
225 2 2 10 4 364 482 438
226 2 2 10 4 137 345 53
227 2 2 10 4 62 370 138
228 2 2 10 4 377 557 28
229 2 2 10 4 229 542 357
230 2 2 10 4 358 448 148
231 2 2 10 4 372 559 239
232 2 2 10 4 127 324 281
233 2 2 10 4 120 357 291
234 2 2 10 4 110 331 265
235 2 2 10 4 350 373 146
236 2 2 10 4 232 449 429
237 2 2 10 4 453 543 245
238 2 2 10 4 152 393 366
239 2 2 10 4 71 154 72
240 2 2 10 4 6 262 88
241 2 2 10 4 67 264 68
242 2 2 10 4 79 303 80
243 2 2 10 4 83 270 84
244 2 2 10 4 91 263 92
245 2 2 10 4 95 290 96
246 2 2 10 4 97 301 98
247 2 2 10 4 69 268 70
248 2 2 10 4 89 292 90
249 2 2 10 4 107 288 108
250 2 2 10 4 101 296 102
251 2 2 10 4 99 339 100
252 2 2 10 4 137 543 345
253 2 2 10 4 42 378 152
254 2 2 10 4 218 237 236
255 2 2 10 4 194 351 193
256 2 2 10 4 151 361 39
257 2 2 10 4 315 496 459
258 2 2 10 4 3 19 66
259 2 2 10 4 4 49 48
260 2 2 10 4 211 229 225
261 2 2 10 4 203 467 204
262 2 2 10 4 206 380 211
263 2 2 10 4 407 460 282
264 2 2 10 4 162 485 470
265 2 2 10 4 135 423 31
266 2 2 10 4 228 474 206
267 2 2 10 4 378 393 152
268 2 2 10 4 257 258 256
269 2 2 10 4 329 538 219
270 2 2 10 4 411 445 252
271 2 2 10 4 153 368 27
272 2 2 10 4 203 555 386
273 2 2 10 4 303 502 80
274 2 2 10 4 369 465 136
275 2 2 10 4 140 395 81
276 2 2 10 4 124 267 93
277 2 2 10 4 121 300 103
278 2 2 10 4 77 285 284
279 2 2 10 4 5 330 110
280 2 2 10 4 82 395 123
281 2 2 10 4 111 330 87
282 2 2 10 4 94 267 120
283 2 2 10 4 78 284 146
284 2 2 10 4 117 310 74
285 2 2 10 4 104 300 127
286 2 2 10 4 142 285 76
287 2 2 10 4 340 437 131
288 2 2 10 4 251 561 352
289 2 2 10 4 130 455 327
290 2 2 10 4 190 200 199
291 2 2 10 4 304 486 355
292 2 2 10 4 236 432 215
293 2 2 10 4 182 349 195
294 2 2 10 4 464 465 306
295 2 2 10 4 138 363 61
296 2 2 10 4 54 379 137
297 2 2 10 4 244 484 247
298 2 2 10 4 182 195 184
299 2 2 10 4 179 349 182
300 2 2 10 4 170 397 173
301 2 2 10 4 361 512 407
302 2 2 10 4 348 532 484
303 2 2 10 4 283 419 408
304 2 2 10 4 111 507 330
305 2 2 10 4 173 365 175
306 2 2 10 4 122 422 155
307 2 2 10 4 226 436 402
308 2 2 10 4 191 451 185
309 2 2 10 4 19 508 321
310 2 2 10 4 208 219 209
311 2 2 10 4 237 398 236
312 2 2 10 4 276 428 410
313 2 2 10 4 427 467 203
314 2 2 10 4 195 335 184
315 2 2 10 4 188 202 201
316 2 2 10 4 365 425 198
317 2 2 10 4 325 497 487
318 2 2 10 4 24 359 145
319 2 2 10 4 193 351 226
320 2 2 10 4 214 215 213
321 2 2 10 4 320 533 48
322 2 2 10 4 331 355 265
323 2 2 10 4 324 371 281
324 2 2 10 4 282 460 280
325 2 2 10 4 125 426 10
326 2 2 10 4 212 213 194
327 2 2 10 4 359 448 344
328 2 2 10 4 460 540 280
329 2 2 10 4 43 378 42
330 2 2 10 4 333 371 241
331 2 2 10 4 417 427 319
332 2 2 10 4 251 537 501
333 2 2 10 4 408 419 382
334 2 2 10 4 282 408 407
335 2 2 10 4 370 516 138
336 2 2 10 4 296 514 102
337 2 2 10 4 36 382 139
338 2 2 10 4 229 230 225
339 2 2 10 4 342 548 364
340 2 2 10 4 301 519 98
341 2 2 10 4 262 522 88
342 2 2 10 4 290 520 96
343 2 2 10 4 339 523 100
344 2 2 10 4 288 521 108
345 2 2 10 4 292 524 90
346 2 2 10 4 264 525 68
347 2 2 10 4 270 526 84
348 2 2 10 4 204 206 205
349 2 2 10 4 175 198 177
350 2 2 10 4 507 551 331
351 2 2 10 4 247 249 248
352 2 2 10 4 105 540 106
353 2 2 10 4 85 541 86
354 2 2 10 4 52 345 132
355 2 2 10 4 133 370 63
356 2 2 10 4 244 247 246
357 2 2 10 4 50 420 320
358 2 2 10 4 268 531 70
359 2 2 10 4 39 361 38
360 2 2 10 4 449 552 404
361 2 2 10 4 64 384 133
362 2 2 10 4 192 194 193
363 2 2 10 4 480 541 299
364 2 2 10 4 299 483 480
365 2 2 10 4 316 458 423
366 2 2 10 4 187 192 191
367 2 2 10 4 151 512 361
368 2 2 10 4 211 380 229
369 2 2 10 4 38 361 149
370 2 2 10 4 239 559 237
371 2 2 10 4 312 489 348
372 2 2 10 4 220 409 223
373 2 2 10 4 387 388 115
374 2 2 10 4 404 552 445
375 2 2 10 4 207 257 256
376 2 2 10 4 330 507 331
377 2 2 10 4 217 218 215
378 2 2 10 4 92 489 124
379 2 2 10 4 299 541 85
380 2 2 10 4 280 540 105
381 2 2 10 4 328 544 73
382 2 2 10 4 73 544 117
383 2 2 10 4 219 409 220
384 2 2 10 4 325 487 394
385 2 2 10 4 138 516 364
386 2 2 10 4 144 378 43
387 2 2 10 4 233 235 234
388 2 2 10 4 140 496 395
389 2 2 10 4 187 191 185
390 2 2 10 4 376 439 235
391 2 2 10 4 432 495 215
392 2 2 10 4 355 486 360
393 2 2 10 4 188 555 203
394 2 2 10 4 382 419 139
395 2 2 10 4 26 368 148
396 2 2 10 4 186 190 189
397 2 2 10 4 54 137 53
398 2 2 10 4 62 138 61
399 2 2 10 4 29 377 28
400 2 2 10 4 75 545 142
401 2 2 10 4 310 545 75
402 2 2 10 4 235 417 319
403 2 2 10 4 423 458 150
404 2 2 10 4 441 444 133
405 2 2 10 4 249 537 251
406 2 2 10 4 138 548 363
407 2 2 10 4 64 133 63
408 2 2 10 4 52 132 51
409 2 2 10 4 307 400 385
410 2 2 10 4 368 505 148
411 2 2 10 4 284 505 350
412 2 2 10 4 358 505 284
413 2 2 10 4 155 422 158
414 2 2 10 4 259 261 167
415 2 2 10 4 409 547 410
416 2 2 10 4 350 505 368
417 2 2 10 4 323 473 444
418 2 2 10 4 249 251 250
419 2 2 10 4 305 511 421
420 2 2 10 4 437 535 131
421 2 2 10 4 55 379 54
422 2 2 10 4 179 182 181
423 2 2 10 4 340 341 261
424 2 2 10 4 173 397 365
425 2 2 10 4 53 345 52
426 2 2 10 4 63 370 62
427 2 2 10 4 206 211 210
428 2 2 10 4 289 460 407
429 2 2 10 4 61 363 60
430 2 2 10 4 136 546 369
431 2 2 10 4 134 468 8
432 2 2 10 4 357 542 291
433 2 2 10 4 28 153 27
434 2 2 10 4 26 148 25
435 2 2 10 4 40 151 39
436 2 2 10 4 42 152 41
437 2 2 10 4 208 209 200
438 2 2 10 4 9 134 8
439 2 2 10 4 17 136 16
440 2 2 10 4 258 434 256
441 2 2 10 4 128 379 55
442 2 2 10 4 30 150 29
443 2 2 10 4 38 149 37
444 2 2 10 4 158 422 169
445 2 2 10 4 44 383 144
446 2 2 10 4 184 335 186
447 2 2 10 4 353 534 383
448 2 2 10 4 44 144 43
449 2 2 10 4 24 145 23
450 2 2 10 4 363 556 488
451 2 2 10 4 27 368 26
452 2 2 10 4 60 363 129
453 2 2 10 4 190 199 189
454 2 2 10 4 351 436 226
455 2 2 10 4 233 563 375
456 2 2 10 4 136 396 16
457 2 2 10 4 150 377 29
458 2 2 10 4 129 406 405
459 2 2 10 4 261 457 167
460 2 2 10 4 238 239 237
461 2 2 10 4 406 469 232
462 2 2 10 4 220 223 222
463 2 2 10 4 36 139 35
464 2 2 10 4 32 135 31
465 2 2 10 4 117 362 326
466 2 2 10 4 142 287 286
467 2 2 10 4 124 312 311
468 2 2 10 4 398 559 121
469 2 2 10 4 379 518 137
470 2 2 10 4 181 188 180
471 2 2 10 4 149 408 382
472 2 2 10 4 182 184 183
473 2 2 10 4 257 304 258
474 2 2 10 4 22 131 21
475 2 2 10 4 46 130 45
476 2 2 10 4 130 383 45
477 2 2 10 4 212 214 213
478 2 2 10 4 287 493 344
479 2 2 10 4 204 205 202
480 2 2 10 4 430 441 384
481 2 2 10 4 153 557 373
482 2 2 10 4 65 384 64
483 2 2 10 4 45 383 44
484 2 2 10 4 188 201 180
485 2 2 10 4 116 429 404
486 2 2 10 4 451 536 185
487 2 2 10 4 211 225 224
488 2 2 10 4 361 407 149
489 2 2 10 4 158 169 161
490 2 2 10 4 374 557 377
491 2 2 10 4 548 556 363
492 2 2 10 4 215 495 213
493 2 2 10 4 247 248 246
494 2 2 10 4 41 392 40
495 2 2 10 4 420 506 320
496 2 2 10 4 148 359 25
497 2 2 10 4 233 234 197
498 2 2 10 4 143 460 289
499 2 2 10 4 483 538 329
500 2 2 10 4 247 532 249
501 2 2 10 4 344 448 286
502 2 2 10 4 25 359 24
503 2 2 10 4 428 490 410
504 2 2 10 4 209 433 200
505 2 2 10 4 121 559 372
506 2 2 10 4 232 429 406
507 2 2 10 4 435 492 468
508 2 2 10 4 272 313 274
509 2 2 10 4 182 183 181
510 2 2 10 4 144 421 378
511 2 2 10 4 321 384 65
512 2 2 10 4 56 128 55
513 2 2 10 4 60 129 59
514 2 2 10 4 219 220 209
515 2 2 10 4 504 510 231
516 2 2 10 4 214 217 215
517 2 2 10 4 190 513 207
518 2 2 10 4 152 392 41
519 2 2 10 4 219 538 409
520 2 2 10 4 497 498 135
521 2 2 10 4 241 472 239
522 2 2 10 4 240 241 239
523 2 2 10 4 37 382 36
524 2 2 10 4 341 462 261
525 2 2 10 4 364 548 138
526 2 2 10 4 147 367 366
527 2 2 10 4 112 337 302
528 2 2 10 4 113 298 297
529 2 2 10 4 109 376 375
530 2 2 10 4 123 272 271
531 2 2 10 4 141 305 293
532 2 2 10 4 184 186 185
533 2 2 10 4 363 488 129
534 2 2 10 4 279 435 415
535 2 2 10 4 326 424 310
536 2 2 10 4 354 503 251
537 2 2 10 4 313 315 314
538 2 2 10 4 327 533 506
539 2 2 10 4 409 410 223
540 2 2 10 4 118 412 334
541 2 2 10 4 114 413 269
542 2 2 10 4 119 414 332
543 2 2 10 4 128 411 379
544 2 2 10 4 17 546 136
545 2 2 10 4 184 185 183
546 2 2 10 4 205 440 202
547 2 2 10 4 80 502 140
548 2 2 10 4 249 250 248
549 2 2 10 4 15 126 14
550 2 2 10 4 11 125 10
551 2 2 10 4 383 534 144
552 2 2 10 4 434 507 111
553 2 2 10 4 170 173 172
554 2 2 10 4 388 500 115
555 2 2 10 4 342 556 548
556 2 2 10 4 402 563 226
557 2 2 10 4 206 210 205
558 2 2 10 4 147 366 262
559 2 2 10 4 114 269 268
560 2 2 10 4 118 334 263
561 2 2 10 4 120 291 290
562 2 2 10 4 146 373 303
563 2 2 10 4 112 302 301
564 2 2 10 4 119 332 299
565 2 2 10 4 127 281 280
566 2 2 10 4 143 289 288
567 2 2 10 4 123 271 270
568 2 2 10 4 113 297 296
569 2 2 10 4 110 265 264
570 2 2 10 4 109 375 339
571 2 2 10 4 122 155 154
572 2 2 10 4 141 293 292
573 2 2 10 4 35 385 34
574 2 2 10 4 218 390 238
575 2 2 10 4 195 466 335
576 2 2 10 4 239 472 372
577 2 2 10 4 384 441 133
578 2 2 10 4 90 118 91
579 2 2 10 4 70 122 71
580 2 2 10 4 81 395 82
581 2 2 10 4 102 121 103
582 2 2 10 4 77 284 78
583 2 2 10 4 98 109 99
584 2 2 10 4 78 146 79
585 2 2 10 4 106 143 107
586 2 2 10 4 76 285 77
587 2 2 10 4 92 124 93
588 2 2 10 4 100 113 101
589 2 2 10 4 84 119 85
590 2 2 10 4 5 110 67
591 2 2 10 4 73 117 74
592 2 2 10 4 94 120 95
593 2 2 10 4 74 310 75
594 2 2 10 4 82 123 83
595 2 2 10 4 103 300 104
596 2 2 10 4 75 142 76
597 2 2 10 4 88 141 89
598 2 2 10 4 96 112 97
599 2 2 10 4 93 267 94
600 2 2 10 4 87 330 5
601 2 2 10 4 108 147 6
602 2 2 10 4 68 114 69
603 2 2 10 4 104 127 105
604 2 2 10 4 72 328 73
605 2 2 10 4 86 111 87
606 2 2 10 4 80 140 81
607 2 2 10 4 218 238 237
608 2 2 10 4 31 423 30
609 2 2 10 4 259 340 261
610 2 2 10 4 159 162 156
611 2 2 10 4 15 396 126
612 2 2 10 4 133 444 370
613 2 2 10 4 21 389 20
614 2 2 10 4 230 244 243
615 2 2 10 4 50 320 49
616 2 2 10 4 66 321 65
617 2 2 10 4 56 403 128
618 2 2 10 4 129 405 59
619 2 2 10 4 118 263 91
620 2 2 10 4 147 262 6
621 2 2 10 4 123 270 83
622 2 2 10 4 146 303 79
623 2 2 10 4 109 339 99
624 2 2 10 4 112 301 97
625 2 2 10 4 127 280 105
626 2 2 10 4 120 290 95
627 2 2 10 4 122 154 71
628 2 2 10 4 113 296 101
629 2 2 10 4 143 288 107
630 2 2 10 4 114 268 69
631 2 2 10 4 110 264 67
632 2 2 10 4 119 299 85
633 2 2 10 4 141 292 89
634 2 2 10 4 455 533 327
635 2 2 10 4 265 355 318
636 2 2 10 4 281 371 283
637 2 2 10 4 293 294 292
638 2 2 10 4 281 282 280
639 2 2 10 4 334 348 263
640 2 2 10 4 22 530 131
641 2 2 10 4 155 156 154
642 2 2 10 4 373 374 303
643 2 2 10 4 265 266 264
644 2 2 10 4 271 276 270
645 2 2 10 4 58 116 57
646 2 2 10 4 374 509 459
647 2 2 10 4 128 445 411
648 2 2 10 4 173 175 174
649 2 2 10 4 59 405 58
650 2 2 10 4 57 403 56
651 2 2 10 4 149 382 37
652 2 2 10 4 358 553 448
653 2 2 10 4 116 404 403
654 2 2 10 4 377 509 374
655 2 2 10 4 221 433 209
656 2 2 10 4 51 420 50
657 2 2 10 4 217 390 218
658 2 2 10 4 10 426 9
659 2 2 10 4 385 454 307
660 2 2 10 4 20 508 19
661 2 2 10 4 242 333 241
662 2 2 10 4 291 401 290
663 2 2 10 4 375 402 339
664 2 2 10 4 485 544 328
665 2 2 10 4 229 456 230
666 2 2 10 4 186 187 185
667 2 2 10 4 380 542 229
668 2 2 10 4 196 212 194
669 2 2 10 4 400 550 385
670 2 2 10 4 162 470 156
671 2 2 10 4 235 319 234
672 2 2 10 4 163 165 162
673 2 2 10 4 13 115 12
674 2 2 10 4 14 416 13
675 2 2 10 4 344 493 479
676 2 2 10 4 289 447 288
677 2 2 10 4 410 490 223
678 2 2 10 4 345 453 132
679 2 2 10 4 16 396 15
680 2 2 10 4 378 511 393
681 2 2 10 4 302 439 301
682 2 2 10 4 186 189 187
683 2 2 10 4 468 558 8
684 2 2 10 4 223 415 222
685 2 2 10 4 116 403 57
686 2 2 10 4 373 557 374
687 2 2 10 4 58 405 116
688 2 2 10 4 258 551 507
689 2 2 10 4 385 550 34
690 2 2 10 4 340 381 341
691 2 2 10 4 131 535 389
692 2 2 10 4 126 416 14
693 2 2 10 4 199 433 231
694 2 2 10 4 187 431 192
695 2 2 10 4 211 224 210
696 2 2 10 4 132 420 51
697 2 2 10 4 269 494 397
698 2 2 10 4 204 467 228
699 2 2 10 4 404 445 403
700 2 2 10 4 175 177 176
701 2 2 10 4 244 246 245
702 2 2 10 4 345 543 453
703 2 2 10 4 181 555 188
704 2 2 10 4 199 231 216
705 2 2 10 4 179 181 180
706 2 2 10 4 252 440 205
707 2 2 10 4 115 475 387
708 2 2 10 4 234 451 197
709 2 2 10 4 166 167 165
710 2 2 10 4 381 530 145
711 2 2 10 4 200 433 199
712 2 2 10 4 121 514 398
713 2 2 10 4 254 478 327
714 2 2 10 4 381 479 341
715 2 2 10 4 169 170 161
716 2 2 10 4 238 240 239
717 2 2 10 4 356 560 396
718 2 2 10 4 192 431 196
719 2 2 10 4 9 426 134
720 2 2 10 4 355 360 318
721 2 2 10 4 145 479 381
722 2 2 10 4 231 510 388
723 2 2 10 4 46 455 130
724 2 2 10 4 224 517 411
725 2 2 10 4 355 551 304
726 2 2 10 4 13 416 115
727 2 2 10 4 457 539 167
728 2 2 10 4 230 243 225
729 2 2 10 4 418 498 461
730 2 2 10 4 139 454 385
731 2 2 10 4 287 344 286
732 2 2 10 4 312 391 311
733 2 2 10 4 177 179 178
734 2 2 10 4 145 530 23
735 2 2 10 4 313 496 315
736 2 2 10 4 538 547 409
737 2 2 10 4 407 408 149
738 2 2 10 4 313 314 274
739 2 2 10 4 321 430 384
740 2 2 10 4 231 388 387
741 2 2 10 4 435 468 134
742 2 2 10 4 125 500 388
743 2 2 10 4 202 440 201
744 2 2 10 4 139 385 35
745 2 2 10 4 417 439 302
746 2 2 10 4 375 563 402
747 2 2 10 4 291 542 474
748 2 2 10 4 383 477 353
749 2 2 10 4 192 196 194
750 2 2 10 4 168 259 167
751 2 2 10 4 272 273 271
752 2 2 10 4 298 322 297
753 2 2 10 4 337 338 302
754 2 2 10 4 416 475 115
755 2 2 10 4 388 510 125
756 2 2 10 4 32 497 135
757 2 2 10 4 140 502 459
758 2 2 10 4 406 429 405
759 2 2 10 4 148 448 359
760 2 2 10 4 173 174 172
761 2 2 10 4 197 451 191
762 2 2 10 4 48 533 47
763 2 2 10 4 30 423 150
764 2 2 10 4 155 158 157
765 2 2 10 4 240 242 241
766 2 2 10 4 294 524 292
767 2 2 10 4 276 526 270
768 2 2 10 4 266 525 264
769 2 2 10 4 129 488 406
770 2 2 10 4 102 514 121
771 2 2 10 4 389 535 430
772 2 2 10 4 265 318 266
773 2 2 10 4 155 157 156
774 2 2 10 4 293 295 294
775 2 2 10 4 281 283 282
776 2 2 10 4 336 356 217
777 2 2 10 4 220 222 221
778 2 2 10 4 131 389 21
779 2 2 10 4 222 415 347
780 2 2 10 4 412 524 294
781 2 2 10 4 414 526 276
782 2 2 10 4 413 525 266
783 2 2 10 4 271 428 276
784 2 2 10 4 315 316 314
785 2 2 10 4 398 443 236
786 2 2 10 4 159 163 162
787 2 2 10 4 461 498 308
788 2 2 10 4 396 560 126
789 2 2 10 4 376 519 439
790 2 2 10 4 401 520 290
791 2 2 10 4 337 520 401
792 2 2 10 4 298 523 402
793 2 2 10 4 402 523 339
794 2 2 10 4 431 463 196
795 2 2 10 4 317 342 171
796 2 2 10 4 130 477 383
797 2 2 10 4 199 216 189
798 2 2 10 4 421 534 295
799 2 2 10 4 341 493 462
800 2 2 10 4 315 459 458
801 2 2 10 4 225 399 224
802 2 2 10 4 356 390 217
803 2 2 10 4 250 254 253
804 2 2 10 4 272 274 273
805 2 2 10 4 459 509 458
806 2 2 10 4 304 551 258
807 2 2 10 4 196 463 227
808 2 2 10 4 439 519 301
809 2 2 10 4 405 429 116
810 2 2 10 4 338 417 302
811 2 2 10 4 98 519 109
812 2 2 10 4 96 520 112
813 2 2 10 4 100 523 113
814 2 2 10 4 108 521 147
815 2 2 10 4 88 522 141
816 2 2 10 4 175 176 174
817 2 2 10 4 244 245 243
818 2 2 10 4 90 524 118
819 2 2 10 4 68 525 114
820 2 2 10 4 84 526 119
821 2 2 10 4 462 493 424
822 2 2 10 4 275 277 273
823 2 2 10 4 222 347 346
824 2 2 10 4 343 451 234
825 2 2 10 4 47 455 46
826 2 2 10 4 297 443 296
827 2 2 10 4 362 457 326
828 2 2 10 4 269 442 268
829 2 2 10 4 165 485 162
830 2 2 10 4 158 161 160
831 2 2 10 4 432 443 297
832 2 2 10 4 338 467 427
833 2 2 10 4 325 498 497
834 2 2 10 4 163 166 165
835 2 2 10 4 196 227 212
836 2 2 10 4 254 327 255
837 2 2 10 4 231 387 216
838 2 2 10 4 259 437 340
839 2 2 10 4 278 279 277
840 2 2 10 4 319 386 343
841 2 2 10 4 275 308 278
842 2 2 10 4 11 500 125
843 2 2 10 4 283 408 282
844 2 2 10 4 295 352 294
845 2 2 10 4 318 425 266
846 2 2 10 4 157 159 156
847 2 2 10 4 122 531 422
848 2 2 10 4 420 499 255
849 2 2 10 4 177 178 176
850 2 2 10 4 230 456 391
851 2 2 10 4 130 478 477
852 2 2 10 4 422 442 169
853 2 2 10 4 315 458 316
854 2 2 10 4 402 436 298
855 2 2 10 4 214 336 217
856 2 2 10 4 220 221 209
857 2 2 10 4 331 551 355
858 2 2 10 4 70 531 122
859 2 2 10 4 111 480 434
860 2 2 10 4 189 431 187
861 2 2 10 4 308 325 309
862 2 2 10 4 322 432 297
863 2 2 10 4 254 503 478
864 2 2 10 4 391 456 311
865 2 2 10 4 166 168 167
866 2 2 10 4 170 172 171
867 2 2 10 4 179 180 178
868 2 2 10 4 250 253 248
869 2 2 10 4 430 535 260
870 2 2 10 4 374 502 303
871 2 2 10 4 210 252 205
872 2 2 10 4 478 503 354
873 2 2 10 4 430 508 389
874 2 2 10 4 235 439 417
875 2 2 10 4 459 502 374
876 2 2 10 4 342 438 171
877 2 2 10 4 319 343 234
878 2 2 10 4 166 323 168
879 2 2 10 4 168 260 259
880 2 2 10 4 353 354 352
881 2 2 10 4 442 531 268
882 2 2 10 4 403 445 128
883 2 2 10 4 422 531 442
884 2 2 10 4 178 232 176
885 2 2 10 4 306 307 242
886 2 2 10 4 243 399 225
887 2 2 10 4 115 500 12
888 2 2 10 4 170 171 161
889 2 2 10 4 7 487 1
890 2 2 10 4 316 418 314
891 2 2 10 4 222 346 221
892 2 2 10 4 240 306 242
893 2 2 10 4 158 160 157
894 2 2 10 4 159 164 163
895 2 2 10 4 242 454 333
896 2 2 10 4 369 400 307
897 2 2 10 4 311 554 267
898 2 2 10 4 285 553 358
899 2 2 10 4 286 553 285
900 2 2 10 4 267 554 357
901 2 2 10 4 367 521 447
902 2 2 10 4 447 521 288
903 2 2 10 4 2 550 18
904 2 2 10 4 250 503 254
905 2 2 10 4 254 255 253
906 2 2 10 4 348 489 263
907 2 2 10 4 274 275 273
908 2 2 10 4 275 278 277
909 2 2 10 4 257 466 304
910 2 2 10 4 338 427 417
911 2 2 10 4 395 496 313
912 2 2 10 4 273 428 271
913 2 2 10 4 308 309 278
914 2 2 10 4 295 353 352
915 2 2 10 4 1 487 33
916 2 2 10 4 161 438 160
917 2 2 10 4 325 394 309
918 2 2 10 4 306 369 307
919 2 2 10 4 277 490 428
920 2 2 10 4 172 317 171
921 2 2 10 4 216 431 189
922 2 2 10 4 156 470 154
923 2 2 10 4 397 494 365
924 2 2 10 4 443 514 296
925 2 2 10 4 167 539 165
926 2 2 10 4 393 511 305
927 2 2 10 4 332 483 299
928 2 2 10 4 255 506 420
929 2 2 10 4 33 497 32
930 2 2 10 4 398 514 443
931 2 2 10 4 227 450 212
932 2 2 10 4 150 509 377
933 2 2 10 4 183 491 181
934 2 2 10 4 277 428 273
935 2 2 10 4 227 452 450
936 2 2 10 4 126 452 416
937 2 2 10 4 132 499 420
938 2 2 10 4 260 437 259
939 2 2 10 4 421 511 378
940 2 2 10 4 474 542 380
941 2 2 10 4 401 528 337
942 2 2 10 4 237 559 398
943 2 2 10 4 275 461 308
944 2 2 10 4 453 515 499
945 2 2 10 4 124 489 312
946 2 2 10 4 34 550 2
947 2 2 10 4 390 464 238
948 2 2 10 4 485 539 362
949 2 2 10 4 298 436 322
950 2 2 10 4 126 560 527
951 2 2 10 4 456 554 311
952 2 2 10 4 178 449 232
953 2 2 10 4 448 553 286
954 2 2 10 4 236 443 432
955 2 2 10 4 212 450 214
956 2 2 10 4 180 449 178
957 2 2 10 4 326 462 424
958 2 2 10 4 23 530 22
959 2 2 10 4 487 497 33
960 2 2 10 4 221 504 433
961 2 2 10 4 185 536 183
962 2 2 10 4 291 474 401
963 2 2 10 4 8 558 7
964 2 2 10 4 387 463 216
965 2 2 10 4 411 517 379
966 2 2 10 4 480 483 329
967 2 2 10 4 201 449 180
968 2 2 10 4 294 561 412
969 2 2 10 4 314 461 274
970 2 2 10 4 266 562 413
971 2 2 10 4 171 438 161
972 2 2 10 4 18 550 400
973 2 2 10 4 227 475 452
974 2 2 10 4 174 446 172
975 2 2 10 4 468 492 309
976 2 2 10 4 246 515 453
977 2 2 10 4 394 468 309
978 2 2 10 4 307 454 242
979 2 2 10 4 413 494 269
980 2 2 10 4 346 504 221
981 2 2 10 4 463 475 227
982 2 2 10 4 406 488 446
983 2 2 10 4 238 464 240
984 2 2 10 4 481 549 164
985 2 2 10 4 453 499 132
986 2 2 10 4 412 501 334
987 2 2 10 4 248 515 246
988 2 2 10 4 279 490 277
989 2 2 10 4 312 484 391
990 2 2 10 4 295 534 353
991 2 2 10 4 142 545 287
992 2 2 10 4 117 544 362
993 2 2 10 4 214 450 336
994 2 2 10 4 274 461 275
995 2 2 10 4 172 446 317
996 2 2 10 4 18 546 17
997 2 2 10 4 112 520 337
998 2 2 10 4 109 519 376
999 2 2 10 4 147 521 367
1000 2 2 10 4 113 523 298
1001 2 2 10 4 141 522 305
1002 2 2 10 4 166 471 323
1003 2 2 10 4 466 486 304
1004 2 2 10 4 424 493 287
1005 2 2 10 4 318 529 425
1006 2 2 10 4 251 503 250
1007 2 2 10 4 390 465 464
1008 2 2 10 4 232 469 176
1009 2 2 10 4 477 478 354
1010 2 2 10 4 118 524 412
1011 2 2 10 4 114 525 413
1012 2 2 10 4 119 526 414
1013 2 2 10 4 12 500 11
1014 2 2 10 4 418 461 314
1015 2 2 10 4 216 463 431
1016 2 2 10 4 258 507 434
1017 2 2 10 4 159 481 164
1018 2 2 10 4 433 504 231
1019 2 2 10 4 482 549 481
1020 2 2 10 4 352 561 294
1021 2 2 10 4 425 562 266
1022 2 2 10 4 356 465 390
1023 2 2 10 4 452 475 416
1024 2 2 10 4 240 464 306
1025 2 2 10 4 425 529 198
1026 2 2 10 4 228 528 401
1027 2 2 10 4 279 492 435
1028 2 2 10 4 353 477 354
1029 2 2 10 4 289 512 447
1030 2 2 10 4 446 469 406
1031 2 2 10 4 487 558 394
1032 2 2 10 4 457 462 326
1033 2 2 10 4 7 558 487
1034 2 2 10 4 308 498 325
1035 2 2 10 4 164 473 471
1036 2 2 10 4 106 540 143
1037 2 2 10 4 86 541 111
1038 2 2 10 4 176 469 174
1039 2 2 10 4 165 539 485
1040 2 2 10 4 386 491 343
1041 2 2 10 4 195 486 466
1042 2 2 10 4 444 516 370
1043 2 2 10 4 401 474 228
1044 2 2 10 4 438 482 160
1045 2 2 10 4 163 471 166
1046 2 2 10 4 387 475 463
1047 2 2 10 4 143 540 460
1048 2 2 10 4 473 516 444
1049 2 2 10 4 207 513 257
1050 2 2 10 4 135 498 418
1051 2 2 10 4 334 537 348
1052 2 2 10 4 245 476 243
1053 2 2 10 4 414 547 332
1054 2 2 10 4 164 471 163
1055 2 2 10 4 322 495 432
1056 2 2 10 4 309 492 278
1057 2 2 10 4 400 546 18
1058 2 2 10 4 257 513 466
1059 2 2 10 4 157 481 159
1060 2 2 10 4 278 492 279
1061 2 2 10 4 243 476 399
1062 2 2 10 4 321 508 430
1063 2 2 10 4 255 499 253
1064 2 2 10 4 424 545 310
1065 2 2 10 4 446 488 317
1066 2 2 10 4 501 537 334
1067 2 2 10 4 201 552 449
1068 2 2 10 4 287 545 424
1069 2 2 10 4 144 534 421
1070 2 2 10 4 389 508 20
1071 2 2 10 4 160 481 157
1072 2 2 10 4 473 549 516
1073 2 2 10 4 516 549 364
1074 2 2 10 4 174 469 446
1075 2 2 10 4 491 555 181
1076 2 2 10 4 365 562 425
1077 2 2 10 4 327 506 255
1078 2 2 10 4 479 493 341
1079 2 2 10 4 160 482 481
1080 2 2 10 4 337 528 338
1081 2 2 10 4 369 546 400
1082 2 2 10 4 360 529 318
1083 2 2 10 4 332 547 538
1084 2 2 10 4 253 515 248
1085 2 2 10 4 499 515 253
1086 2 2 10 4 338 528 467
1087 2 2 10 4 362 544 485
1088 2 2 10 4 399 517 224
1089 2 2 10 4 494 562 365
1090 2 2 10 4 111 541 480
1091 2 2 10 4 476 543 137
1092 2 2 10 4 517 518 379
1093 2 2 10 4 126 527 452
1094 2 2 10 4 488 556 317
1095 2 2 10 4 452 527 450
1096 2 2 10 4 501 561 251
1097 2 2 10 4 467 528 228
1098 2 2 10 4 506 533 320
1099 2 2 10 4 261 462 457
1100 2 2 10 4 343 536 451
1101 2 2 10 4 137 518 476
1102 2 2 10 4 317 556 342
1103 2 2 10 4 447 512 151
1104 2 2 10 4 348 537 532
1105 2 2 10 4 362 539 457
1106 2 2 10 4 476 518 399
1107 2 2 10 4 458 509 150
1108 2 2 10 4 260 535 437
1109 2 2 10 4 332 538 483
1110 2 2 10 4 484 532 247
1111 2 2 10 4 527 560 336
1112 2 2 10 4 336 560 356
1113 2 2 10 4 466 513 335
1114 2 2 10 4 450 527 336
1115 2 2 10 4 164 549 473
1116 2 2 10 4 491 536 343
1117 2 2 10 4 346 510 504
1118 2 2 10 4 440 552 201
1119 2 2 10 4 47 533 455
1120 2 2 10 4 245 543 476
1121 2 2 10 4 399 518 517
1122 2 2 10 4 413 562 494
1123 2 2 10 4 412 561 501
1124 2 2 10 4 532 537 249
1125 2 2 10 4 386 555 491
1126 2 2 10 4 364 549 482
1127 2 2 10 4 183 536 491
1128 2 2 10 4 394 558 468
$EndElements
