$MeshFormat
2.2 0 8
$EndMeshFormat
$Nodes
371
1 0.6 0.6 0
2 3.4 0.6 0
3 3.4 3 0
4 0.6 3 0
5 0 3 0
6 0 0 0
7 4 3 0
8 4 0 0
9 0.7473684210526316 0.6 0
10 0.8947368421052633 0.6 0
11 1.042105263157895 0.6 0
12 1.189473684210527 0.6 0
13 1.336842105263158 0.6 0
14 1.48421052631579 0.6 0
15 1.631578947368422 0.6 0
16 1.778947368421054 0.6 0
17 1.926315789473685 0.6 0
18 2.073684210526317 0.6 0
19 2.221052631578949 0.6 0
20 2.368421052631581 0.6 0
21 2.515789473684213 0.6 0
22 2.663157894736844 0.6 0
23 2.810526315789476 0.6 0
24 2.957894736842108 0.6 0
25 3.105263157894739 0.6 0
26 3.252631578947369 0.6 0
27 3.4 0.7499999999999998 0
28 3.4 0.8999999999999996 0
29 3.4 1.049999999999999 0
30 3.4 1.199999999999999 0
31 3.4 1.349999999999999 0
32 3.4 1.499999999999998 0
33 3.4 1.649999999999998 0
34 3.4 1.799999999999998 0
35 3.4 1.949999999999998 0
36 3.4 2.099999999999998 0
37 3.4 2.249999999999999 0
38 3.4 2.399999999999999 0
39 3.4 2.549999999999999 0
40 3.4 2.7 0
41 3.4 2.85 0
42 0.6 2.85 0
43 0.6 2.7 0
44 0.6 2.550000000000001 0
45 0.6 2.400000000000001 0
46 0.6 2.250000000000001 0
47 0.6 2.100000000000001 0
48 0.6 1.950000000000002 0
49 0.6 1.800000000000002 0
50 0.6 1.650000000000002 0
51 0.6 1.500000000000002 0
52 0.6 1.350000000000001 0
53 0.6 1.200000000000001 0
54 0.6 1.050000000000001 0
55 0.6 0.9000000000000004 0
56 0.6 0.7500000000000004 0
57 0 2.85 0
58 0 2.7 0
59 0 2.55 0
60 0 2.4 0
61 0 2.25 0
62 0 2.1 0
63 0 1.95 0
64 0 1.8 0
65 0 1.65 0
66 0 1.5 0
67 0 1.35 0
68 0 1.2 0
69 0 1.05 0
70 0 0.8999999999999999 0
71 0 0.75 0
72 0 0.6000000000000001 0
73 0 0.4500000000000002 0
74 0 0.2999999999999998 0
75 0 0.1499999999999999 0
76 0.4499999999999997 3 0
77 0.2999999999999994 3 0
78 0.1499999999999999 3 0
79 3.85 3 0
80 3.7 3 0
81 3.55 3 0
82 4 0.15 0
83 4 0.3 0
84 4 0.45 0
85 4 0.6 0
86 4 0.75 0
87 4 0.9 0
88 4 1.05 0
89 4 1.2 0
90 4 1.35 0
91 4 1.5 0
92 4 1.65 0
93 4 1.8 0
94 4 1.95 0
95 4 2.1 0
96 4 2.25 0
97 4 2.4 0
98 4 2.55 0
99 4 2.7 0
100 4 2.85 0
101 0.1481481481481479 0 0
102 0.2962962962962959 0 0
103 0.4444444444444437 0 0
104 0.5925925925925916 0 0
105 0.7407407407407396 0 0
106 0.8888888888888877 0 0
107 1.037037037037036 0 0
108 1.185185185185184 0 0
109 1.333333333333331 0 0
110 1.481481481481479 0 0
111 1.629629629629627 0 0
112 1.777777777777774 0 0
113 1.925925925925922 0 0
114 2.074074074074069 0 0
115 2.222222222222217 0 0
116 2.370370370370364 0 0
117 2.518518518518512 0 0
118 2.666666666666661 0 0
119 2.81481481481481 0 0
120 2.962962962962959 0 0
121 3.111111111111108 0 0
122 3.259259259259256 0 0
123 3.407407407407405 0 0
124 3.555555555555554 0 0
125 3.703703703703703 0 0
126 3.851851851851852 0 0
127 0.3668189879882571 0.1322364788442887 0
128 3.633192233438998 0.1322258252169468 0
129 2.000000000000001 0.4723752036528195 0
130 2.294736842105265 0.4723752036528195 0
131 1.705263157894738 0.4723752036528195 0
132 2.590847387428927 0.4757731330652666 0
133 1.409863334574121 0.4741087540728004 0
134 2.886265818824903 0.4757572323999661 0
135 1.113821693496277 0.4757689340352924 0
136 3.17190442641044 0.4722880612134677 0
137 0.8281150838506082 0.4723567045037351 0
138 3.528764303457423 0.6749999999999998 0
139 0.471235696542577 0.6750000000000002 0
140 0.4700961894323348 2.625 0
141 3.529903810567665 1.124999999999999 0
142 3.870096189432334 1.725 0
143 0.4700961894323346 2.325000000000001 0
144 3.864930907628721 2.625583121535006 0
145 3.529903810567665 1.424999999999998 0
146 0.4674278510637602 2.040595919055605 0
147 3.529903810567665 2.024999999999999 0
148 0.1278721079684091 0.978169740901398 0
149 3.870096189432334 2.325000000000001 0
150 0.4700961894323343 1.725000000000002 0
151 0.4674278510637602 1.409404080944398 0
152 0.4709997985848631 0.5266821577475307 0
153 3.529329520225458 0.5264216542684517 0
154 0.6666666666666654 0.1283000598199167 0
155 3.333333333333331 0.1283000598199173 0
156 2.148261782221114 0.1283138120862448 0
157 1.851965333217003 0.128313812403724 0
158 2.444557913882687 0.1283138014482321 0
159 1.555669188797856 0.1283138119171772 0
160 2.740855096851792 0.1283145135165877 0
161 1.259372741278968 0.128313812404298 0
162 3.037104257806907 0.1282689228086231 0
163 0.9630765955562115 0.1283138119192271 0
164 0.1299038105676658 0.375 0
165 3.866865974715474 0.3910064387957481 0
166 3.866941182846604 0.808843791550002 0
167 0.129903810567666 1.275 0
168 3.870019095152208 1.274926788284987 0
169 0.1299038105676662 2.475 0
170 0.129903810567666 2.175 0
171 0.4732880144985032 1.141706083128248 0
172 0.1299038105676658 1.875 0
173 0.1267852503337288 1.591546938087254 0
174 3.53257214893624 2.459404080944396 0
175 0.342362028644446 0.6010011975995511 0
176 3.658083501327755 0.6010286825496889 0
177 3.529903810567665 1.724999999999998 0
178 3.870096189432334 2.025 0
179 0.1270158067583749 2.774364394607868 0
180 3.527015806758374 2.774364394607868 0
181 0.3425585354239811 0.7497753232664981 0
182 0.591268913004515 0.446558734155228 0
183 0.4786832179327773 0.3783336432375393 0
184 3.408717864739366 0.4463353114946347 0
185 3.521426164318417 0.3780330794182882 0
186 0.3844858959499216 2.8813940644825 0
187 3.784485895949921 2.8813940644825 0
188 3.657592965364934 0.7501103256376063 0
189 0.2135766499466494 0.6753908037133187 0
190 0.598937192335248 0.2943673343065105 0
191 3.400993293596364 0.2941679811968181 0
192 3.780150234881528 0.6836746490367369 0
193 0.2232216330824488 0.5345765292087896 0
194 3.79146477529245 0.5340901660823933 0
195 0.2231744102004896 0.8156095242151477 0
196 0.3402375689507475 0.9144233092789191 0
197 0.1255276592711416 0.2258033077605561 0
198 0.2593285224205604 0.3 0
199 3.878134162956909 0.2292620229512421 0
200 3.740662041918896 0.3000001698016213 0
201 3.185185972307238 0.1282407281060203 0
202 3.111167356693598 0.2501553331333837 0
203 2.963071971963847 0.2499334194930147 0
204 3.034025386527844 0.378811530807067 0
205 2.888937391602358 0.1271737679658436 0
206 2.814929359260916 0.2496940391402178 0
207 2.666776870557142 0.249867828691924 0
208 2.739631174955116 0.3799108177034074 0
209 2.592648925701304 0.1271701304603727 0
210 2.518631517990825 0.2496781610857723 0
211 2.370480347862828 0.2498618339502974 0
212 2.444300763512674 0.3831890974478314 0
213 2.29635254794752 0.1271689737603452 0
214 2.222335468294173 0.2496740391387409 0
215 2.074184192736404 0.2498601821792903 0
216 2.148214361265468 0.3845148834869918 0
217 2.000056200879714 0.1271687443083547 0
218 1.926038932020998 0.2496725808605937 0
219 1.777887754651893 0.2498605974216599 0
220 1.8519171506309 0.3845148835037739 0
221 1.703759956773858 0.1271687696038923 0
222 1.629742873986113 0.2496734880649421 0
223 1.481591600428338 0.2498635340000359 0
224 1.555621765034353 0.3845148833017646 0
225 1.407463608631195 0.1271693027295864 0
226 1.333446341605295 0.2496766770448802 0
227 1.185295164897813 0.2498684800373663 0
228 1.259987043216082 0.3820440103610032 0
229 1.111167364330666 0.1271700835611331 0
230 1.037150282850476 0.2496822199948336 0
231 0.8889987932286898 0.2491083248923625 0
232 0.9660985391902088 0.3786605425761511 0
233 0.8148520668158432 0.1270411422611928 0
234 0.7476994143602906 0.2539227525313557 0
235 0.5159062466301862 0.1677007686059517 0
236 3.252333626663368 0.2542157035253148 0
237 3.484099812859807 0.1675693607360689 0
238 3.869597140155947 0.9722689428534299 0
239 3.744156439801961 0.9044329144237618 0
240 3.747145850442362 1.05017552435977 0
241 3.610515612676135 0.9748921345141724 0
242 3.871150088965782 1.124528638123631 0
243 3.747831356925544 1.199826064912777 0
244 3.747684311855912 1.349844356017806 0
245 3.610196159344144 1.274747707936584 0
246 3.871206378056294 1.424935514835142 0
247 3.756076454402462 1.487381652302171 0
248 3.529903810567665 1.874999999999998 0
249 3.653451953597671 1.949999999999999 0
250 3.644139500201673 2.087499999999999 0
251 3.652392675674728 1.799999999999999 0
252 3.789711431702997 1.874999999999999 0
253 3.643892471315567 1.662464323352683 0
254 3.874024920086227 2.181804761101796 0
255 3.744737258413326 2.256956187168521 0
256 3.742537926396383 2.397047939537717 0
257 3.610288568297003 2.325000000000003 0
258 3.529903810567666 2.625 0
259 3.643447441302332 2.700815353081617 0
260 3.642916804547212 2.560036572337669 0
261 0.129903810567666 2.324999999999999 0
262 0.2534519535976711 2.249999999999999 0
263 0.2573835131084672 2.103253852561431 0
264 0.3897114317029966 2.174999999999997 0
265 0.2523926756747281 2.399999999999999 0
266 0.2522161293542378 2.549999999999999 0
267 0.3897114317029977 2.474999999999998 0
268 0.4696514663709057 1.572400680157401 0
269 0.3440469890083233 1.656371541128031 0
270 0.3471904814262716 1.80106192352134 0
271 0.2121464208414037 1.727410043781886 0
272 0.1295651934677897 1.125528290150233 0
273 0.2558224542981262 1.206892809460169 0
274 0.2610646534568817 1.362522589394995 0
275 0.3873613556550564 1.276981246075028 0
276 0.2598076211353317 1.049999999999999 0
277 3.523309218676163 1.583905247420392 0
278 0.4700961894323348 1.875000000000002 0
279 0.1281572279692687 2.624894065767978 0
280 0.2418910955724165 2.70079769737628 0
281 0.3401923788646697 1.500000000000002 0
282 0.3555228492408886 1.940276307096157 0
283 3.530333845945717 2.188810204769889 0
284 3.873554964374244 2.467800415743659 0
285 0.1255710619092958 2.032347069862034 0
286 0.1232378883779415 1.429844921247042 0
287 3.876800151148553 1.566022657680623 0
288 3.658631571208817 0.4413134295894641 0
289 0.3434891599562873 0.430853793797261 0
290 3.532020916396028 0.8407352761249238 0
291 0.4771727629917617 0.9800399937214905 0
292 0.4718674273181782 0.8282064377111515 0
293 3.782973378858192 0.1286129654060193 0
294 0.2176248318825671 0.1280260225570913 0
295 0.2357620333062829 2.865781217132669 0
296 3.635875469583973 2.865782503991659 0
297 0.4841331218785014 2.78379519221162 0
298 3.883272241577899 2.783892379134121 0
299 0.392678883188017 0.2644839116647997 0
300 3.607510906054306 0.2643538888539705 0
301 0.7083192649536851 0.3810804834930117 0
302 3.291658840766425 0.3809647146647075 0
303 2.887584742306526 0.3468214079087346 0
304 1.112470544730171 0.3472048374009291 0
305 2.592037542888937 0.3476838075988404 0
306 1.408102016971638 0.348041571756097 0
307 2.296013556608082 0.3479230115353362 0
308 1.704086540439599 0.348187811188992 0
309 2.000070927330754 0.3481875467366939 0
310 3.031070705300007 0.5053713648841004 0
311 0.9689754843600504 0.5053572362230359 0
312 2.738085718347053 0.506288236633728 0
313 1.261997572152033 0.5063843396938192 0
314 2.442819103872532 0.5062674868331836 0
315 1.557307546237485 0.506199768205477 0
316 2.1475376090952 0.5058530581585262 0
317 1.852488693284076 0.5058530581618826 0
318 0.1106854805338926 0.6326930849501897 0
319 0.1198245369407669 0.7500129259498374 0
320 3.895429043333281 0.6573343579368014 0
321 3.910751958668241 0.5264861925629885 0
322 0.8241594819488307 0.3470687407058013 0
323 3.175913929912377 0.347218514599793 0
324 3.491897779750181 0.9749999999999994 0
325 0.3801178672583285 1.050234305447323 0
326 3.64911855799117 1.124928286344661 0
327 0.2199806890658373 1.499981269339655 0
328 0.3452991380057344 2.622426058185547 0
329 0.5082301946582954 2.175000000000002 0
330 3.491769805341705 2.324999999999999 0
331 3.746331241525253 2.018332652372967 0
332 0.09176980534170487 1.725 0
333 0.3510727364221455 2.324999999999999 0
334 0.2539777066191617 1.869225263001451 0
335 0.5082301946582959 2.475000000000001 0
336 3.908230194658296 1.875 0
337 0.5082301946582957 1.275000000000001 0
338 3.746095643725704 1.731611871757015 0
339 3.735016836658075 2.630358238053215 0
340 3.491717872425979 1.274999999999999 0
341 3.653808607295469 1.418197152968107 0
342 3.890296279278793 0.1101897744663036 0
343 0.1096293771709973 0.1101163487377028 0
344 0.109807621135332 2.890192378864668 0
345 3.509807621135332 2.890192378864668 0
346 0.490192378864668 2.890192378864668 0
347 3.890192378864669 2.890192378864669 0
348 0.6982983362657471 0.4978492491636388 0
349 3.301661216069347 0.4977596805564555 0
350 0.3601167033700927 2.752667093902954 0
351 3.760024267024084 2.756184709922554 0
352 0.2307820126243176 0.4146534376256437 0
353 0.115765489468054 0.5011538419641041 0
354 0.1097597528624321 0.8605669840408915 0
355 3.764406090783909 0.4166025510673068 0
356 0.2272855869258492 0.9312150744722553 0
357 3.754324107871566 0.791708686944002 0
358 3.64171328343257 0.8581222410500016 0
359 3.644404898260507 2.205763109162043 0
360 0.3637647627880234 1.390828566610775 0
361 0.3555619252069728 2.055825768547961 0
362 0.2486303456227925 1.595061958467366 0
363 3.644318620951406 2.44421903258418 0
364 3.758760122583192 2.134908950126138 0
365 0.241380598043659 1.984957551424071 0
366 0.3512794625690694 1.145162888822153 0
367 3.757020501208765 2.515125236064065 0
368 3.640702934709914 1.53586207511285 0
369 3.757842424849414 1.615417577342471 0
370 3.502787713745264 0.2746015800354189 0
371 0.4972437366109186 0.2745945139893933 0
$EndNodes
$Elements
748
1 15 2 0 5 1
2 15 2 0 6 2
3 15 2 0 7 3
4 15 2 0 8 4
5 15 2 0 9 5
6 15 2 0 10 6
7 15 2 0 11 7
8 15 2 0 12 8
9 1 2 0 5 1 9
10 1 2 0 5 9 10
11 1 2 0 5 10 11
12 1 2 0 5 11 12
13 1 2 0 5 12 13
14 1 2 0 5 13 14
15 1 2 0 5 14 15
16 1 2 0 5 15 16
17 1 2 0 5 16 17
18 1 2 0 5 17 18
19 1 2 0 5 18 19
20 1 2 0 5 19 20
21 1 2 0 5 20 21
22 1 2 0 5 21 22
23 1 2 0 5 22 23
24 1 2 0 5 23 24
25 1 2 0 5 24 25
26 1 2 0 5 25 26
27 1 2 0 5 26 2
28 1 2 0 6 2 27
29 1 2 0 6 27 28
30 1 2 0 6 28 29
31 1 2 0 6 29 30
32 1 2 0 6 30 31
33 1 2 0 6 31 32
34 1 2 0 6 32 33
35 1 2 0 6 33 34
36 1 2 0 6 34 35
37 1 2 0 6 35 36
38 1 2 0 6 36 37
39 1 2 0 6 37 38
40 1 2 0 6 38 39
41 1 2 0 6 39 40
42 1 2 0 6 40 41
43 1 2 0 6 41 3
44 1 2 0 8 4 42
45 1 2 0 8 42 43
46 1 2 0 8 43 44
47 1 2 0 8 44 45
48 1 2 0 8 45 46
49 1 2 0 8 46 47
50 1 2 0 8 47 48
51 1 2 0 8 48 49
52 1 2 0 8 49 50
53 1 2 0 8 50 51
54 1 2 0 8 51 52
55 1 2 0 8 52 53
56 1 2 0 8 53 54
57 1 2 0 8 54 55
58 1 2 0 8 55 56
59 1 2 0 8 56 1
60 1 2 0 9 5 57
61 1 2 0 9 57 58
62 1 2 0 9 58 59
63 1 2 0 9 59 60
64 1 2 0 9 60 61
65 1 2 0 9 61 62
66 1 2 0 9 62 63
67 1 2 0 9 63 64
68 1 2 0 9 64 65
69 1 2 0 9 65 66
70 1 2 0 9 66 67
71 1 2 0 9 67 68
72 1 2 0 9 68 69
73 1 2 0 9 69 70
74 1 2 0 9 70 71
75 1 2 0 9 71 72
76 1 2 0 9 72 73
77 1 2 0 9 73 74
78 1 2 0 9 74 75
79 1 2 0 9 75 6
80 1 2 0 10 4 76
81 1 2 0 10 76 77
82 1 2 0 10 77 78
83 1 2 0 10 78 5
84 1 2 0 11 7 79
85 1 2 0 11 79 80
86 1 2 0 11 80 81
87 1 2 0 11 81 3
88 1 2 0 12 8 82
89 1 2 0 12 82 83
90 1 2 0 12 83 84
91 1 2 0 12 84 85
92 1 2 0 12 85 86
93 1 2 0 12 86 87
94 1 2 0 12 87 88
95 1 2 0 12 88 89
96 1 2 0 12 89 90
97 1 2 0 12 90 91
98 1 2 0 12 91 92
99 1 2 0 12 92 93
100 1 2 0 12 93 94
101 1 2 0 12 94 95
102 1 2 0 12 95 96
103 1 2 0 12 96 97
104 1 2 0 12 97 98
105 1 2 0 12 98 99
106 1 2 0 12 99 100
107 1 2 0 12 100 7
108 1 2 0 13 6 101
109 1 2 0 13 101 102
110 1 2 0 13 102 103
111 1 2 0 13 103 104
112 1 2 0 13 104 105
113 1 2 0 13 105 106
114 1 2 0 13 106 107
115 1 2 0 13 107 108
116 1 2 0 13 108 109
117 1 2 0 13 109 110
118 1 2 0 13 110 111
119 1 2 0 13 111 112
120 1 2 0 13 112 113
121 1 2 0 13 113 114
122 1 2 0 13 114 115
123 1 2 0 13 115 116
124 1 2 0 13 116 117
125 1 2 0 13 117 118
126 1 2 0 13 118 119
127 1 2 0 13 119 120
128 1 2 0 13 120 121
129 1 2 0 13 121 122
130 1 2 0 13 122 123
131 1 2 0 13 123 124
132 1 2 0 13 124 125
133 1 2 0 13 125 126
134 1 2 0 13 126 8
135 2 2 0 1 198 294 127
136 2 2 0 1 128 293 200
137 2 2 0 1 127 299 198
138 2 2 0 1 200 300 128
139 2 2 0 1 104 235 103
140 2 2 0 1 124 237 123
141 2 2 0 1 198 299 289
142 2 2 0 1 288 300 200
143 2 2 0 1 289 299 183
144 2 2 0 1 190 235 154
145 2 2 0 1 185 300 288
146 2 2 0 1 155 237 191
147 2 2 0 1 154 234 190
148 2 2 0 1 154 235 104
149 2 2 0 1 103 235 127
150 2 2 0 1 123 237 155
151 2 2 0 1 128 237 124
152 2 2 0 1 191 236 155
153 2 2 0 1 318 319 71
154 2 2 0 1 72 318 71
155 2 2 0 1 194 320 192
156 2 2 0 1 194 321 320
157 2 2 0 1 259 351 296
158 2 2 0 1 280 350 295
159 2 2 0 1 197 294 198
160 2 2 0 1 200 293 199
161 2 2 0 1 259 296 180
162 2 2 0 1 280 295 179
163 2 2 0 1 134 303 204
164 2 2 0 1 232 304 135
165 2 2 0 1 204 310 134
166 2 2 0 1 135 311 232
167 2 2 0 1 132 305 208
168 2 2 0 1 228 306 133
169 2 2 0 1 208 312 132
170 2 2 0 1 133 313 228
171 2 2 0 1 130 307 212
172 2 2 0 1 224 308 131
173 2 2 0 1 212 314 130
174 2 2 0 1 131 315 224
175 2 2 0 1 129 309 216
176 2 2 0 1 220 309 129
177 2 2 0 1 216 316 129
178 2 2 0 1 129 317 220
179 2 2 0 1 131 308 220
180 2 2 0 1 216 307 130
181 2 2 0 1 289 352 198
182 2 2 0 1 220 317 131
183 2 2 0 1 130 316 216
184 2 2 0 1 165 321 194
185 2 2 0 1 133 306 224
186 2 2 0 1 212 305 132
187 2 2 0 1 196 325 276
188 2 2 0 1 224 315 133
189 2 2 0 1 137 322 232
190 2 2 0 1 132 314 212
191 2 2 0 1 200 355 288
192 2 2 0 1 204 323 136
193 2 2 0 1 135 304 228
194 2 2 0 1 208 303 134
195 2 2 0 1 228 313 135
196 2 2 0 1 134 312 208
197 2 2 0 1 192 320 166
198 2 2 0 1 241 324 290
199 2 2 0 1 141 324 241
200 2 2 0 1 241 326 141
201 2 2 0 1 145 340 245
202 2 2 0 1 232 311 137
203 2 2 0 1 235 299 127
204 2 2 0 1 245 341 145
205 2 2 0 1 128 300 237
206 2 2 0 1 136 310 204
207 2 2 0 1 257 330 283
208 2 2 0 1 143 333 264
209 2 2 0 1 140 328 267
210 2 2 0 1 264 329 143
211 2 2 0 1 267 335 140
212 2 2 0 1 171 337 275
213 2 2 0 1 271 332 173
214 2 2 0 1 281 327 274
215 2 2 0 1 178 331 252
216 2 2 0 1 252 336 178
217 2 2 0 1 275 337 151
218 2 2 0 1 142 336 252
219 2 2 0 1 174 330 257
220 2 2 0 1 172 332 271
221 2 2 0 1 252 338 142
222 2 2 0 1 267 333 143
223 2 2 0 1 143 335 267
224 2 2 0 1 271 334 172
225 2 2 0 1 146 329 264
226 2 2 0 1 141 326 245
227 2 2 0 1 245 340 141
228 2 2 0 1 296 351 187
229 2 2 0 1 295 350 186
230 2 2 0 1 194 355 165
231 2 2 0 1 276 356 196
232 2 2 0 1 291 292 55
233 2 2 0 1 56 139 1
234 2 2 0 1 197 198 164
235 2 2 0 1 2 138 27
236 2 2 0 1 139 152 1
237 2 2 0 1 165 200 199
238 2 2 0 1 74 197 164
239 2 2 0 1 119 205 160
240 2 2 0 1 113 217 157
241 2 2 0 1 109 225 161
242 2 2 0 1 105 233 154
243 2 2 0 1 117 209 158
244 2 2 0 1 107 229 163
245 2 2 0 1 115 213 156
246 2 2 0 1 111 221 159
247 2 2 0 1 2 153 138
248 2 2 0 1 205 206 160
249 2 2 0 1 225 226 161
250 2 2 0 1 217 218 157
251 2 2 0 1 213 214 156
252 2 2 0 1 229 230 163
253 2 2 0 1 221 222 159
254 2 2 0 1 209 210 158
255 2 2 0 1 203 206 205
256 2 2 0 1 215 218 217
257 2 2 0 1 223 226 225
258 2 2 0 1 207 210 209
259 2 2 0 1 227 230 229
260 2 2 0 1 219 222 221
261 2 2 0 1 211 214 213
262 2 2 0 1 92 287 91
263 2 2 0 1 165 199 83
264 2 2 0 1 233 234 154
265 2 2 0 1 231 234 233
266 2 2 0 1 75 197 74
267 2 2 0 1 91 287 246
268 2 2 0 1 2 184 153
269 2 2 0 1 152 182 1
270 2 2 0 1 196 292 291
271 2 2 0 1 74 164 73
272 2 2 0 1 83 199 82
273 2 2 0 1 120 205 119
274 2 2 0 1 114 217 113
275 2 2 0 1 110 225 109
276 2 2 0 1 106 233 105
277 2 2 0 1 118 209 117
278 2 2 0 1 108 229 107
279 2 2 0 1 112 221 111
280 2 2 0 1 116 213 115
281 2 2 0 1 155 201 122
282 2 2 0 1 84 165 83
283 2 2 0 1 91 246 90
284 2 2 0 1 201 236 202
285 2 2 0 1 206 207 160
286 2 2 0 1 206 208 207
287 2 2 0 1 155 236 201
288 2 2 0 1 214 216 215
289 2 2 0 1 222 224 223
290 2 2 0 1 230 232 231
291 2 2 0 1 226 228 227
292 2 2 0 1 218 220 219
293 2 2 0 1 210 212 211
294 2 2 0 1 214 215 156
295 2 2 0 1 222 223 159
296 2 2 0 1 230 231 163
297 2 2 0 1 226 227 161
298 2 2 0 1 218 219 157
299 2 2 0 1 210 211 158
300 2 2 0 1 142 287 92
301 2 2 0 1 202 204 203
302 2 2 0 1 201 202 162
303 2 2 0 1 238 239 166
304 2 2 0 1 87 238 166
305 2 2 0 1 202 203 162
306 2 2 0 1 185 288 153
307 2 2 0 1 184 191 185
308 2 2 0 1 168 243 242
309 2 2 0 1 168 244 243
310 2 2 0 1 121 201 162
311 2 2 0 1 90 246 168
312 2 2 0 1 168 242 89
313 2 2 0 1 87 166 86
314 2 2 0 1 123 155 122
315 2 2 0 1 111 159 110
316 2 2 0 1 121 162 120
317 2 2 0 1 113 157 112
318 2 2 0 1 115 156 114
319 2 2 0 1 119 160 118
320 2 2 0 1 125 128 124
321 2 2 0 1 107 163 106
322 2 2 0 1 105 154 104
323 2 2 0 1 117 158 116
324 2 2 0 1 103 127 102
325 2 2 0 1 109 161 108
326 2 2 0 1 272 276 273
327 2 2 0 1 148 276 272
328 2 2 0 1 89 242 88
329 2 2 0 1 122 201 121
330 2 2 0 1 160 209 118
331 2 2 0 1 156 217 114
332 2 2 0 1 159 225 110
333 2 2 0 1 163 233 106
334 2 2 0 1 161 229 108
335 2 2 0 1 157 221 112
336 2 2 0 1 158 213 116
337 2 2 0 1 162 205 120
338 2 2 0 1 88 238 87
339 2 2 0 1 183 190 182
340 2 2 0 1 244 245 243
341 2 2 0 1 168 246 244
342 2 2 0 1 88 242 238
343 2 2 0 1 246 247 244
344 2 2 0 1 97 284 149
345 2 2 0 1 62 285 170
346 2 2 0 1 266 280 279
347 2 2 0 1 177 277 253
348 2 2 0 1 61 261 60
349 2 2 0 1 174 260 258
350 2 2 0 1 258 260 259
351 2 2 0 1 77 186 76
352 2 2 0 1 265 266 169
353 2 2 0 1 262 265 261
354 2 2 0 1 174 258 39
355 2 2 0 1 251 252 249
356 2 2 0 1 34 248 35
357 2 2 0 1 59 279 58
358 2 2 0 1 90 168 89
359 2 2 0 1 263 264 262
360 2 2 0 1 80 187 79
361 2 2 0 1 95 178 94
362 2 2 0 1 96 254 95
363 2 2 0 1 99 144 98
364 2 2 0 1 149 254 96
365 2 2 0 1 98 284 97
366 2 2 0 1 58 279 179
367 2 2 0 1 60 261 169
368 2 2 0 1 68 272 167
369 2 2 0 1 58 179 57
370 2 2 0 1 69 272 68
371 2 2 0 1 39 258 40
372 2 2 0 1 45 143 46
373 2 2 0 1 68 167 67
374 2 2 0 1 266 279 169
375 2 2 0 1 149 284 256
376 2 2 0 1 170 285 263
377 2 2 0 1 177 251 248
378 2 2 0 1 273 275 274
379 2 2 0 1 33 277 177
380 2 2 0 1 38 174 39
381 2 2 0 1 93 142 92
382 2 2 0 1 51 151 52
383 2 2 0 1 150 269 268
384 2 2 0 1 256 257 255
385 2 2 0 1 35 147 36
386 2 2 0 1 177 248 34
387 2 2 0 1 70 148 69
388 2 2 0 1 150 278 270
389 2 2 0 1 177 253 251
390 2 2 0 1 150 268 50
391 2 2 0 1 53 171 54
392 2 2 0 1 167 286 67
393 2 2 0 1 272 273 167
394 2 2 0 1 170 262 261
395 2 2 0 1 258 259 180
396 2 2 0 1 248 251 249
397 2 2 0 1 270 271 269
398 2 2 0 1 35 248 147
399 2 2 0 1 146 278 48
400 2 2 0 1 50 268 51
401 2 2 0 1 148 272 69
402 2 2 0 1 261 265 169
403 2 2 0 1 279 280 179
404 2 2 0 1 95 254 178
405 2 2 0 1 32 277 33
406 2 2 0 1 64 172 63
407 2 2 0 1 66 173 65
408 2 2 0 1 145 277 32
409 2 2 0 1 36 283 37
410 2 2 0 1 40 258 180
411 2 2 0 1 63 285 62
412 2 2 0 1 33 177 34
413 2 2 0 1 265 267 266
414 2 2 0 1 29 141 30
415 2 2 0 1 43 140 44
416 2 2 0 1 51 268 151
417 2 2 0 1 146 282 278
418 2 2 0 1 249 250 147
419 2 2 0 1 150 270 269
420 2 2 0 1 273 274 167
421 2 2 0 1 97 149 96
422 2 2 0 1 47 146 48
423 2 2 0 1 48 278 49
424 2 2 0 1 49 150 50
425 2 2 0 1 49 278 150
426 2 2 0 1 248 249 147
427 2 2 0 1 149 255 254
428 2 2 0 1 169 279 59
429 2 2 0 1 170 261 61
430 2 2 0 1 66 286 173
431 2 2 0 1 31 145 32
432 2 2 0 1 62 170 61
433 2 2 0 1 170 263 262
434 2 2 0 1 60 169 59
435 2 2 0 1 67 286 66
436 2 2 0 1 278 282 270
437 2 2 0 1 268 281 151
438 2 2 0 1 147 283 36
439 2 2 0 1 40 180 41
440 2 2 0 1 274 286 167
441 2 2 0 1 269 281 268
442 2 2 0 1 250 283 147
443 2 2 0 1 149 256 255
444 2 2 0 1 172 285 63
445 2 2 0 1 144 284 98
446 2 2 0 1 246 287 247
447 2 2 0 1 207 209 160
448 2 2 0 1 215 217 156
449 2 2 0 1 223 225 159
450 2 2 0 1 231 233 163
451 2 2 0 1 227 229 161
452 2 2 0 1 219 221 157
453 2 2 0 1 211 213 158
454 2 2 0 1 240 241 239
455 2 2 0 1 238 240 239
456 2 2 0 1 203 205 162
457 2 2 0 1 242 243 240
458 2 2 0 1 238 242 240
459 2 2 0 1 11 135 12
460 2 2 0 1 9 137 10
461 2 2 0 1 13 133 14
462 2 2 0 1 15 131 16
463 2 2 0 1 23 134 24
464 2 2 0 1 17 129 18
465 2 2 0 1 19 130 20
466 2 2 0 1 21 132 22
467 2 2 0 1 25 136 26
468 2 2 0 1 153 288 176
469 2 2 0 1 176 194 192
470 2 2 0 1 152 183 182
471 2 2 0 1 184 185 153
472 2 2 0 1 152 289 183
473 2 2 0 1 166 357 192
474 2 2 0 1 188 290 138
475 2 2 0 1 189 193 175
476 2 2 0 1 181 196 195
477 2 2 0 1 176 192 188
478 2 2 0 1 139 175 152
479 2 2 0 1 54 291 55
480 2 2 0 1 181 195 189
481 2 2 0 1 181 189 175
482 2 2 0 1 175 289 152
483 2 2 0 1 139 181 175
484 2 2 0 1 176 188 138
485 2 2 0 1 153 176 138
486 2 2 0 1 138 290 27
487 2 2 0 1 176 288 194
488 2 2 0 1 297 350 140
489 2 2 0 1 298 351 144
490 2 2 0 1 139 292 181
491 2 2 0 1 193 289 175
492 2 2 0 1 171 291 54
493 2 2 0 1 27 290 28
494 2 2 0 1 55 292 56
495 2 2 0 1 56 292 139
496 2 2 0 1 275 366 171
497 2 2 0 1 173 362 271
498 2 2 0 1 274 360 281
499 2 2 0 1 181 292 196
500 2 2 0 1 290 358 241
501 2 2 0 1 140 350 328
502 2 2 0 1 144 351 339
503 2 2 0 1 283 359 257
504 2 2 0 1 151 360 275
505 2 2 0 1 257 363 174
506 2 2 0 1 264 361 146
507 2 2 0 1 78 295 77
508 2 2 0 1 100 298 99
509 2 2 0 1 42 297 43
510 2 2 0 1 81 296 80
511 2 2 0 1 126 293 125
512 2 2 0 1 102 294 101
513 2 2 0 1 125 293 128
514 2 2 0 1 127 294 102
515 2 2 0 1 80 296 187
516 2 2 0 1 77 295 186
517 2 2 0 1 43 297 140
518 2 2 0 1 99 298 144
519 2 2 0 1 82 342 8
520 2 2 0 1 8 342 126
521 2 2 0 1 6 343 75
522 2 2 0 1 101 343 6
523 2 2 0 1 206 303 208
524 2 2 0 1 230 304 232
525 2 2 0 1 210 305 212
526 2 2 0 1 226 306 228
527 2 2 0 1 214 307 216
528 2 2 0 1 222 308 224
529 2 2 0 1 218 309 220
530 2 2 0 1 204 303 203
531 2 2 0 1 228 304 227
532 2 2 0 1 208 305 207
533 2 2 0 1 224 306 223
534 2 2 0 1 212 307 211
535 2 2 0 1 220 308 219
536 2 2 0 1 216 309 215
537 2 2 0 1 25 310 136
538 2 2 0 1 134 310 24
539 2 2 0 1 137 311 10
540 2 2 0 1 11 311 135
541 2 2 0 1 132 312 22
542 2 2 0 1 23 312 134
543 2 2 0 1 13 313 133
544 2 2 0 1 135 313 12
545 2 2 0 1 21 314 132
546 2 2 0 1 130 314 20
547 2 2 0 1 15 315 131
548 2 2 0 1 133 315 14
549 2 2 0 1 19 316 130
550 2 2 0 1 129 316 18
551 2 2 0 1 131 317 16
552 2 2 0 1 17 317 129
553 2 2 0 1 84 321 165
554 2 2 0 1 232 322 231
555 2 2 0 1 166 320 86
556 2 2 0 1 202 323 204
557 2 2 0 1 291 325 196
558 2 2 0 1 29 324 141
559 2 2 0 1 245 326 243
560 2 2 0 1 267 328 266
561 2 2 0 1 264 333 262
562 2 2 0 1 38 330 174
563 2 2 0 1 252 331 249
564 2 2 0 1 45 335 143
565 2 2 0 1 173 332 65
566 2 2 0 1 283 330 37
567 2 2 0 1 178 336 94
568 2 2 0 1 64 332 172
569 2 2 0 1 53 337 171
570 2 2 0 1 93 336 142
571 2 2 0 1 151 337 52
572 2 2 0 1 140 335 44
573 2 2 0 1 47 329 146
574 2 2 0 1 143 329 46
575 2 2 0 1 251 338 252
576 2 2 0 1 274 327 286
577 2 2 0 1 270 334 271
578 2 2 0 1 265 333 267
579 2 2 0 1 31 340 145
580 2 2 0 1 141 340 30
581 2 2 0 1 244 341 245
582 2 2 0 1 240 326 241
583 2 2 0 1 142 369 287
584 2 2 0 1 4 346 42
585 2 2 0 1 57 344 5
586 2 2 0 1 76 346 4
587 2 2 0 1 3 345 81
588 2 2 0 1 5 344 78
589 2 2 0 1 41 345 3
590 2 2 0 1 7 347 100
591 2 2 0 1 79 347 7
592 2 2 0 1 73 353 72
593 2 2 0 1 276 366 273
594 2 2 0 1 269 362 281
595 2 2 0 1 254 364 178
596 2 2 0 1 172 365 285
597 2 2 0 1 144 367 284
598 2 2 0 1 145 368 277
599 2 2 0 1 290 324 28
600 2 2 0 1 2 349 184
601 2 2 0 1 26 349 2
602 2 2 0 1 1 348 9
603 2 2 0 1 182 348 1
604 2 2 0 1 71 354 70
605 2 2 0 1 234 301 190
606 2 2 0 1 191 302 236
607 2 2 0 1 300 370 237
608 2 2 0 1 235 371 299
609 2 2 0 1 338 369 142
610 2 2 0 1 190 301 182
611 2 2 0 1 184 302 191
612 2 2 0 1 136 323 302
613 2 2 0 1 301 322 137
614 2 2 0 1 341 368 145
615 2 2 0 1 325 366 276
616 2 2 0 1 281 362 327
617 2 2 0 1 178 364 331
618 2 2 0 1 334 365 172
619 2 2 0 1 339 367 144
620 2 2 0 1 72 353 318
621 2 2 0 1 190 371 235
622 2 2 0 1 237 370 191
623 2 2 0 1 319 354 71
624 2 2 0 1 137 348 301
625 2 2 0 1 302 349 136
626 2 2 0 1 203 303 206
627 2 2 0 1 227 304 230
628 2 2 0 1 207 305 210
629 2 2 0 1 223 306 226
630 2 2 0 1 211 307 214
631 2 2 0 1 219 308 222
632 2 2 0 1 215 309 218
633 2 2 0 1 24 310 25
634 2 2 0 1 10 311 11
635 2 2 0 1 22 312 23
636 2 2 0 1 12 313 13
637 2 2 0 1 20 314 21
638 2 2 0 1 14 315 15
639 2 2 0 1 18 316 19
640 2 2 0 1 16 317 17
641 2 2 0 1 100 347 298
642 2 2 0 1 78 344 295
643 2 2 0 1 42 346 297
644 2 2 0 1 81 345 296
645 2 2 0 1 320 321 85
646 2 2 0 1 86 320 85
647 2 2 0 1 189 318 193
648 2 2 0 1 85 321 84
649 2 2 0 1 231 322 234
650 2 2 0 1 195 319 189
651 2 2 0 1 189 319 318
652 2 2 0 1 294 343 101
653 2 2 0 1 126 342 293
654 2 2 0 1 236 323 202
655 2 2 0 1 28 324 29
656 2 2 0 1 266 328 280
657 2 2 0 1 260 339 259
658 2 2 0 1 65 332 64
659 2 2 0 1 37 330 38
660 2 2 0 1 286 327 173
661 2 2 0 1 262 333 265
662 2 2 0 1 52 337 53
663 2 2 0 1 44 335 45
664 2 2 0 1 253 338 251
665 2 2 0 1 94 336 93
666 2 2 0 1 46 329 47
667 2 2 0 1 282 334 270
668 2 2 0 1 249 331 250
669 2 2 0 1 243 326 240
670 2 2 0 1 30 340 31
671 2 2 0 1 247 341 244
672 2 2 0 1 199 342 82
673 2 2 0 1 75 343 197
674 2 2 0 1 9 348 137
675 2 2 0 1 193 353 352
676 2 2 0 1 136 349 26
677 2 2 0 1 171 325 291
678 2 2 0 1 179 344 57
679 2 2 0 1 186 346 76
680 2 2 0 1 187 347 79
681 2 2 0 1 180 345 41
682 2 2 0 1 148 356 276
683 2 2 0 1 257 359 255
684 2 2 0 1 256 363 257
685 2 2 0 1 263 361 264
686 2 2 0 1 275 360 274
687 2 2 0 1 241 358 239
688 2 2 0 1 239 357 166
689 2 2 0 1 288 355 194
690 2 2 0 1 352 353 164
691 2 2 0 1 198 352 164
692 2 2 0 1 164 353 73
693 2 2 0 1 70 354 148
694 2 2 0 1 193 352 289
695 2 2 0 1 165 355 200
696 2 2 0 1 196 356 195
697 2 2 0 1 192 357 188
698 2 2 0 1 239 358 357
699 2 2 0 1 255 364 254
700 2 2 0 1 273 366 275
701 2 2 0 1 271 362 269
702 2 2 0 1 146 361 282
703 2 2 0 1 174 363 260
704 2 2 0 1 250 359 283
705 2 2 0 1 281 360 151
706 2 2 0 1 285 365 263
707 2 2 0 1 284 367 256
708 2 2 0 1 277 368 253
709 2 2 0 1 287 369 247
710 2 2 0 1 188 358 290
711 2 2 0 1 357 358 188
712 2 2 0 1 354 356 148
713 2 2 0 1 191 370 185
714 2 2 0 1 183 371 190
715 2 2 0 1 195 356 354
716 2 2 0 1 298 347 187
717 2 2 0 1 297 346 186
718 2 2 0 1 295 344 179
719 2 2 0 1 296 345 180
720 2 2 0 1 197 343 294
721 2 2 0 1 293 342 199
722 2 2 0 1 263 365 361
723 2 2 0 1 256 367 363
724 2 2 0 1 361 365 282
725 2 2 0 1 363 367 260
726 2 2 0 1 250 364 359
727 2 2 0 1 359 364 255
728 2 2 0 1 186 350 297
729 2 2 0 1 187 351 298
730 2 2 0 1 368 369 253
731 2 2 0 1 247 369 368
732 2 2 0 1 299 371 183
733 2 2 0 1 234 322 301
734 2 2 0 1 302 323 236
735 2 2 0 1 328 350 280
736 2 2 0 1 339 351 259
737 2 2 0 1 185 370 300
738 2 2 0 1 301 348 182
739 2 2 0 1 184 349 302
740 2 2 0 1 318 353 193
741 2 2 0 1 195 354 319
742 2 2 0 1 247 368 341
743 2 2 0 1 253 369 338
744 2 2 0 1 331 364 250
745 2 2 0 1 327 362 173
746 2 2 0 1 260 367 339
747 2 2 0 1 282 365 334
748 2 2 0 1 171 366 325
$EndElements
